%FSLAX45Y45*%
G04 Gerber Fmt 4.5, Leading zero omitted, Abs format (unit mm)*
G04 Created by KiCad (PCBNEW (6.0.2)) date 2022-08-14 15:00:57*
%MOMM*%
%LPD*%
G01*
G04 APERTURE LIST*
%TA.AperFunction,Profile*%
%ADD10C,0.200000*%
%TD*%
%ADD11C,0.200000*%
%ADD12C,0.115200*%
%ADD13C,0.275000*%
G04 APERTURE END LIST*
D10*
X4900000Y-9500000D02*
X11300000Y-9500000D01*
X4900000Y-4500000D02*
X11300000Y-4500000D01*
X4900000Y-4500000D02*
G75*
G03*
X4700000Y-4700000I0J-200000D01*
G01*
X4700000Y-4700000D02*
X4700000Y-9300000D01*
X11300000Y-9500000D02*
G75*
G03*
X11500000Y-9300000I0J200000D01*
G01*
X11500000Y-4700000D02*
G75*
G03*
X11300000Y-4500000I-200000J0D01*
G01*
X11500000Y-4700000D02*
X11500000Y-9300000D01*
X4700000Y-9300000D02*
G75*
G03*
X4900000Y-9500000I200000J0D01*
G01*
D11*
D12*
X4942400Y-4742400D02*
X5057600Y-4857600D01*
X5057600Y-4742400D02*
X4942400Y-4857600D01*
X11142400Y-4742400D02*
X11257600Y-4857600D01*
X11257600Y-4742400D02*
X11142400Y-4857600D01*
X11142400Y-9242400D02*
X11257600Y-9357600D01*
X11257600Y-9242400D02*
X11142400Y-9357600D01*
D13*
X5337500Y-5175000D02*
G75*
G03*
X5337500Y-5175000I-137500J0D01*
G01*
X11137500Y-5175000D02*
G75*
G03*
X11137500Y-5175000I-137500J0D01*
G01*
D11*
X4947619Y-9820476D02*
X4947619Y-9620476D01*
X4995238Y-9620476D01*
X5023810Y-9630000D01*
X5042857Y-9649048D01*
X5052381Y-9668095D01*
X5061905Y-9706190D01*
X5061905Y-9734762D01*
X5052381Y-9772857D01*
X5042857Y-9791905D01*
X5023810Y-9810952D01*
X4995238Y-9820476D01*
X4947619Y-9820476D01*
X5147619Y-9820476D02*
X5147619Y-9687143D01*
X5147619Y-9725238D02*
X5157143Y-9706190D01*
X5166667Y-9696667D01*
X5185714Y-9687143D01*
X5204762Y-9687143D01*
X5271429Y-9820476D02*
X5271429Y-9687143D01*
X5271429Y-9620476D02*
X5261905Y-9630000D01*
X5271429Y-9639524D01*
X5280952Y-9630000D01*
X5271429Y-9620476D01*
X5271429Y-9639524D01*
X5395238Y-9820476D02*
X5376190Y-9810952D01*
X5366667Y-9791905D01*
X5366667Y-9620476D01*
X5500000Y-9820476D02*
X5480952Y-9810952D01*
X5471429Y-9791905D01*
X5471429Y-9620476D01*
X5728571Y-9820476D02*
X5728571Y-9620476D01*
X5795238Y-9763333D01*
X5861905Y-9620476D01*
X5861905Y-9820476D01*
X6042857Y-9820476D02*
X6042857Y-9715714D01*
X6033333Y-9696667D01*
X6014286Y-9687143D01*
X5976190Y-9687143D01*
X5957143Y-9696667D01*
X6042857Y-9810952D02*
X6023809Y-9820476D01*
X5976190Y-9820476D01*
X5957143Y-9810952D01*
X5947619Y-9791905D01*
X5947619Y-9772857D01*
X5957143Y-9753810D01*
X5976190Y-9744286D01*
X6023809Y-9744286D01*
X6042857Y-9734762D01*
X6138095Y-9687143D02*
X6138095Y-9887143D01*
X6138095Y-9696667D02*
X6157143Y-9687143D01*
X6195238Y-9687143D01*
X6214286Y-9696667D01*
X6223809Y-9706190D01*
X6233333Y-9725238D01*
X6233333Y-9782381D01*
X6223809Y-9801429D01*
X6214286Y-9810952D01*
X6195238Y-9820476D01*
X6157143Y-9820476D01*
X6138095Y-9810952D01*
X6319048Y-9801429D02*
X6328571Y-9810952D01*
X6319048Y-9820476D01*
X6309524Y-9810952D01*
X6319048Y-9801429D01*
X6319048Y-9820476D01*
X6319048Y-9696667D02*
X6328571Y-9706190D01*
X6319048Y-9715714D01*
X6309524Y-9706190D01*
X6319048Y-9696667D01*
X6319048Y-9715714D01*
D12*
X4574800Y-10092400D02*
X4690000Y-10207600D01*
X4690000Y-10092400D02*
X4574800Y-10207600D01*
D11*
X5052381Y-10240476D02*
X4938095Y-10240476D01*
X4995238Y-10240476D02*
X4995238Y-10040476D01*
X4976190Y-10069048D01*
X4957143Y-10088095D01*
X4938095Y-10097619D01*
X5138095Y-10221429D02*
X5147619Y-10230952D01*
X5138095Y-10240476D01*
X5128571Y-10230952D01*
X5138095Y-10221429D01*
X5138095Y-10240476D01*
X5338095Y-10240476D02*
X5223810Y-10240476D01*
X5280952Y-10240476D02*
X5280952Y-10040476D01*
X5261905Y-10069048D01*
X5242857Y-10088095D01*
X5223810Y-10097619D01*
X5519048Y-10040476D02*
X5423810Y-10040476D01*
X5414286Y-10135714D01*
X5423810Y-10126190D01*
X5442857Y-10116667D01*
X5490476Y-10116667D01*
X5509524Y-10126190D01*
X5519048Y-10135714D01*
X5528571Y-10154762D01*
X5528571Y-10202381D01*
X5519048Y-10221429D01*
X5509524Y-10230952D01*
X5490476Y-10240476D01*
X5442857Y-10240476D01*
X5423810Y-10230952D01*
X5414286Y-10221429D01*
X5604762Y-10059524D02*
X5614286Y-10050000D01*
X5633333Y-10040476D01*
X5680952Y-10040476D01*
X5700000Y-10050000D01*
X5709524Y-10059524D01*
X5719048Y-10078571D01*
X5719048Y-10097619D01*
X5709524Y-10126190D01*
X5595238Y-10240476D01*
X5719048Y-10240476D01*
X5804762Y-10240476D02*
X5804762Y-10107143D01*
X5804762Y-10126190D02*
X5814286Y-10116667D01*
X5833333Y-10107143D01*
X5861905Y-10107143D01*
X5880952Y-10116667D01*
X5890476Y-10135714D01*
X5890476Y-10240476D01*
X5890476Y-10135714D02*
X5900000Y-10116667D01*
X5919048Y-10107143D01*
X5947619Y-10107143D01*
X5966667Y-10116667D01*
X5976190Y-10135714D01*
X5976190Y-10240476D01*
X6071428Y-10240476D02*
X6071428Y-10107143D01*
X6071428Y-10126190D02*
X6080952Y-10116667D01*
X6100000Y-10107143D01*
X6128571Y-10107143D01*
X6147619Y-10116667D01*
X6157143Y-10135714D01*
X6157143Y-10240476D01*
X6157143Y-10135714D02*
X6166667Y-10116667D01*
X6185714Y-10107143D01*
X6214286Y-10107143D01*
X6233333Y-10116667D01*
X6242857Y-10135714D01*
X6242857Y-10240476D01*
X6633333Y-10030952D02*
X6461905Y-10288095D01*
X6890476Y-10040476D02*
X6909524Y-10040476D01*
X6928571Y-10050000D01*
X6938095Y-10059524D01*
X6947619Y-10078571D01*
X6957143Y-10116667D01*
X6957143Y-10164286D01*
X6947619Y-10202381D01*
X6938095Y-10221429D01*
X6928571Y-10230952D01*
X6909524Y-10240476D01*
X6890476Y-10240476D01*
X6871428Y-10230952D01*
X6861905Y-10221429D01*
X6852381Y-10202381D01*
X6842857Y-10164286D01*
X6842857Y-10116667D01*
X6852381Y-10078571D01*
X6861905Y-10059524D01*
X6871428Y-10050000D01*
X6890476Y-10040476D01*
X7042857Y-10221429D02*
X7052381Y-10230952D01*
X7042857Y-10240476D01*
X7033333Y-10230952D01*
X7042857Y-10221429D01*
X7042857Y-10240476D01*
X7176190Y-10040476D02*
X7195238Y-10040476D01*
X7214286Y-10050000D01*
X7223809Y-10059524D01*
X7233333Y-10078571D01*
X7242857Y-10116667D01*
X7242857Y-10164286D01*
X7233333Y-10202381D01*
X7223809Y-10221429D01*
X7214286Y-10230952D01*
X7195238Y-10240476D01*
X7176190Y-10240476D01*
X7157143Y-10230952D01*
X7147619Y-10221429D01*
X7138095Y-10202381D01*
X7128571Y-10164286D01*
X7128571Y-10116667D01*
X7138095Y-10078571D01*
X7147619Y-10059524D01*
X7157143Y-10050000D01*
X7176190Y-10040476D01*
X7414286Y-10107143D02*
X7414286Y-10240476D01*
X7366667Y-10030952D02*
X7319048Y-10173810D01*
X7442857Y-10173810D01*
X7614286Y-10040476D02*
X7519048Y-10040476D01*
X7509524Y-10135714D01*
X7519048Y-10126190D01*
X7538095Y-10116667D01*
X7585714Y-10116667D01*
X7604762Y-10126190D01*
X7614286Y-10135714D01*
X7623809Y-10154762D01*
X7623809Y-10202381D01*
X7614286Y-10221429D01*
X7604762Y-10230952D01*
X7585714Y-10240476D01*
X7538095Y-10240476D01*
X7519048Y-10230952D01*
X7509524Y-10221429D01*
X7795238Y-10107143D02*
X7795238Y-10240476D01*
X7747619Y-10030952D02*
X7700000Y-10173810D01*
X7823809Y-10173810D01*
X7890476Y-10040476D02*
X7890476Y-10078571D01*
X7966667Y-10040476D02*
X7966667Y-10078571D01*
X8261905Y-10316667D02*
X8252381Y-10307143D01*
X8233333Y-10278571D01*
X8223809Y-10259524D01*
X8214286Y-10230952D01*
X8204762Y-10183333D01*
X8204762Y-10145238D01*
X8214286Y-10097619D01*
X8223809Y-10069048D01*
X8233333Y-10050000D01*
X8252381Y-10021429D01*
X8261905Y-10011905D01*
X8319048Y-10040476D02*
X8442857Y-10040476D01*
X8376190Y-10116667D01*
X8404762Y-10116667D01*
X8423810Y-10126190D01*
X8433333Y-10135714D01*
X8442857Y-10154762D01*
X8442857Y-10202381D01*
X8433333Y-10221429D01*
X8423810Y-10230952D01*
X8404762Y-10240476D01*
X8347619Y-10240476D01*
X8328571Y-10230952D01*
X8319048Y-10221429D01*
X8680952Y-10240476D02*
X8680952Y-10040476D01*
X8766667Y-10240476D02*
X8766667Y-10135714D01*
X8757143Y-10116667D01*
X8738095Y-10107143D01*
X8709524Y-10107143D01*
X8690476Y-10116667D01*
X8680952Y-10126190D01*
X8890476Y-10240476D02*
X8871429Y-10230952D01*
X8861905Y-10221429D01*
X8852381Y-10202381D01*
X8852381Y-10145238D01*
X8861905Y-10126190D01*
X8871429Y-10116667D01*
X8890476Y-10107143D01*
X8919048Y-10107143D01*
X8938095Y-10116667D01*
X8947619Y-10126190D01*
X8957143Y-10145238D01*
X8957143Y-10202381D01*
X8947619Y-10221429D01*
X8938095Y-10230952D01*
X8919048Y-10240476D01*
X8890476Y-10240476D01*
X9071429Y-10240476D02*
X9052381Y-10230952D01*
X9042857Y-10211905D01*
X9042857Y-10040476D01*
X9223810Y-10230952D02*
X9204762Y-10240476D01*
X9166667Y-10240476D01*
X9147619Y-10230952D01*
X9138095Y-10211905D01*
X9138095Y-10135714D01*
X9147619Y-10116667D01*
X9166667Y-10107143D01*
X9204762Y-10107143D01*
X9223810Y-10116667D01*
X9233333Y-10135714D01*
X9233333Y-10154762D01*
X9138095Y-10173810D01*
X9309524Y-10230952D02*
X9328571Y-10240476D01*
X9366667Y-10240476D01*
X9385714Y-10230952D01*
X9395238Y-10211905D01*
X9395238Y-10202381D01*
X9385714Y-10183333D01*
X9366667Y-10173810D01*
X9338095Y-10173810D01*
X9319048Y-10164286D01*
X9309524Y-10145238D01*
X9309524Y-10135714D01*
X9319048Y-10116667D01*
X9338095Y-10107143D01*
X9366667Y-10107143D01*
X9385714Y-10116667D01*
X9461905Y-10316667D02*
X9471429Y-10307143D01*
X9490476Y-10278571D01*
X9500000Y-10259524D01*
X9509524Y-10230952D01*
X9519048Y-10183333D01*
X9519048Y-10145238D01*
X9509524Y-10097619D01*
X9500000Y-10069048D01*
X9490476Y-10050000D01*
X9471429Y-10021429D01*
X9461905Y-10011905D01*
X9823810Y-10316667D02*
X9814286Y-10307143D01*
X9795238Y-10278571D01*
X9785714Y-10259524D01*
X9776190Y-10230952D01*
X9766667Y-10183333D01*
X9766667Y-10145238D01*
X9776190Y-10097619D01*
X9785714Y-10069048D01*
X9795238Y-10050000D01*
X9814286Y-10021429D01*
X9823810Y-10011905D01*
X9900000Y-10107143D02*
X9900000Y-10240476D01*
X9900000Y-10126190D02*
X9909524Y-10116667D01*
X9928571Y-10107143D01*
X9957143Y-10107143D01*
X9976190Y-10116667D01*
X9985714Y-10135714D01*
X9985714Y-10240476D01*
X10109524Y-10240476D02*
X10090476Y-10230952D01*
X10080952Y-10221429D01*
X10071429Y-10202381D01*
X10071429Y-10145238D01*
X10080952Y-10126190D01*
X10090476Y-10116667D01*
X10109524Y-10107143D01*
X10138095Y-10107143D01*
X10157143Y-10116667D01*
X10166667Y-10126190D01*
X10176190Y-10145238D01*
X10176190Y-10202381D01*
X10166667Y-10221429D01*
X10157143Y-10230952D01*
X10138095Y-10240476D01*
X10109524Y-10240476D01*
X10233333Y-10107143D02*
X10309524Y-10107143D01*
X10261905Y-10040476D02*
X10261905Y-10211905D01*
X10271429Y-10230952D01*
X10290476Y-10240476D01*
X10309524Y-10240476D01*
X10528571Y-10107143D02*
X10528571Y-10307143D01*
X10528571Y-10116667D02*
X10547619Y-10107143D01*
X10585714Y-10107143D01*
X10604762Y-10116667D01*
X10614286Y-10126190D01*
X10623810Y-10145238D01*
X10623810Y-10202381D01*
X10614286Y-10221429D01*
X10604762Y-10230952D01*
X10585714Y-10240476D01*
X10547619Y-10240476D01*
X10528571Y-10230952D01*
X10738095Y-10240476D02*
X10719048Y-10230952D01*
X10709524Y-10211905D01*
X10709524Y-10040476D01*
X10900000Y-10240476D02*
X10900000Y-10135714D01*
X10890476Y-10116667D01*
X10871429Y-10107143D01*
X10833333Y-10107143D01*
X10814286Y-10116667D01*
X10900000Y-10230952D02*
X10880952Y-10240476D01*
X10833333Y-10240476D01*
X10814286Y-10230952D01*
X10804762Y-10211905D01*
X10804762Y-10192857D01*
X10814286Y-10173810D01*
X10833333Y-10164286D01*
X10880952Y-10164286D01*
X10900000Y-10154762D01*
X10966667Y-10107143D02*
X11042857Y-10107143D01*
X10995238Y-10040476D02*
X10995238Y-10211905D01*
X11004762Y-10230952D01*
X11023810Y-10240476D01*
X11042857Y-10240476D01*
X11185714Y-10230952D02*
X11166667Y-10240476D01*
X11128571Y-10240476D01*
X11109524Y-10230952D01*
X11100000Y-10211905D01*
X11100000Y-10135714D01*
X11109524Y-10116667D01*
X11128571Y-10107143D01*
X11166667Y-10107143D01*
X11185714Y-10116667D01*
X11195238Y-10135714D01*
X11195238Y-10154762D01*
X11100000Y-10173810D01*
X11366667Y-10240476D02*
X11366667Y-10040476D01*
X11366667Y-10230952D02*
X11347619Y-10240476D01*
X11309524Y-10240476D01*
X11290476Y-10230952D01*
X11280952Y-10221429D01*
X11271428Y-10202381D01*
X11271428Y-10145238D01*
X11280952Y-10126190D01*
X11290476Y-10116667D01*
X11309524Y-10107143D01*
X11347619Y-10107143D01*
X11366667Y-10116667D01*
X11442857Y-10316667D02*
X11452381Y-10307143D01*
X11471428Y-10278571D01*
X11480952Y-10259524D01*
X11490476Y-10230952D01*
X11500000Y-10183333D01*
X11500000Y-10145238D01*
X11490476Y-10097619D01*
X11480952Y-10069048D01*
X11471428Y-10050000D01*
X11452381Y-10021429D01*
X11442857Y-10011905D01*
X4690000Y-10414000D02*
G75*
G03*
X4690000Y-10414000I-100000J0D01*
G01*
X4938095Y-10323524D02*
X4947619Y-10314000D01*
X4966667Y-10304476D01*
X5014286Y-10304476D01*
X5033333Y-10314000D01*
X5042857Y-10323524D01*
X5052381Y-10342571D01*
X5052381Y-10361619D01*
X5042857Y-10390190D01*
X4928571Y-10504476D01*
X5052381Y-10504476D01*
X5138095Y-10485429D02*
X5147619Y-10494952D01*
X5138095Y-10504476D01*
X5128571Y-10494952D01*
X5138095Y-10485429D01*
X5138095Y-10504476D01*
X5214286Y-10304476D02*
X5347619Y-10304476D01*
X5261905Y-10504476D01*
X5519048Y-10304476D02*
X5423810Y-10304476D01*
X5414286Y-10399714D01*
X5423810Y-10390190D01*
X5442857Y-10380667D01*
X5490476Y-10380667D01*
X5509524Y-10390190D01*
X5519048Y-10399714D01*
X5528571Y-10418762D01*
X5528571Y-10466381D01*
X5519048Y-10485429D01*
X5509524Y-10494952D01*
X5490476Y-10504476D01*
X5442857Y-10504476D01*
X5423810Y-10494952D01*
X5414286Y-10485429D01*
X5652381Y-10304476D02*
X5671428Y-10304476D01*
X5690476Y-10314000D01*
X5700000Y-10323524D01*
X5709524Y-10342571D01*
X5719048Y-10380667D01*
X5719048Y-10428286D01*
X5709524Y-10466381D01*
X5700000Y-10485429D01*
X5690476Y-10494952D01*
X5671428Y-10504476D01*
X5652381Y-10504476D01*
X5633333Y-10494952D01*
X5623809Y-10485429D01*
X5614286Y-10466381D01*
X5604762Y-10428286D01*
X5604762Y-10380667D01*
X5614286Y-10342571D01*
X5623809Y-10323524D01*
X5633333Y-10314000D01*
X5652381Y-10304476D01*
X5804762Y-10504476D02*
X5804762Y-10371143D01*
X5804762Y-10390190D02*
X5814286Y-10380667D01*
X5833333Y-10371143D01*
X5861905Y-10371143D01*
X5880952Y-10380667D01*
X5890476Y-10399714D01*
X5890476Y-10504476D01*
X5890476Y-10399714D02*
X5900000Y-10380667D01*
X5919048Y-10371143D01*
X5947619Y-10371143D01*
X5966667Y-10380667D01*
X5976190Y-10399714D01*
X5976190Y-10504476D01*
X6071428Y-10504476D02*
X6071428Y-10371143D01*
X6071428Y-10390190D02*
X6080952Y-10380667D01*
X6100000Y-10371143D01*
X6128571Y-10371143D01*
X6147619Y-10380667D01*
X6157143Y-10399714D01*
X6157143Y-10504476D01*
X6157143Y-10399714D02*
X6166667Y-10380667D01*
X6185714Y-10371143D01*
X6214286Y-10371143D01*
X6233333Y-10380667D01*
X6242857Y-10399714D01*
X6242857Y-10504476D01*
X6633333Y-10294952D02*
X6461905Y-10552095D01*
X6890476Y-10304476D02*
X6909524Y-10304476D01*
X6928571Y-10314000D01*
X6938095Y-10323524D01*
X6947619Y-10342571D01*
X6957143Y-10380667D01*
X6957143Y-10428286D01*
X6947619Y-10466381D01*
X6938095Y-10485429D01*
X6928571Y-10494952D01*
X6909524Y-10504476D01*
X6890476Y-10504476D01*
X6871428Y-10494952D01*
X6861905Y-10485429D01*
X6852381Y-10466381D01*
X6842857Y-10428286D01*
X6842857Y-10380667D01*
X6852381Y-10342571D01*
X6861905Y-10323524D01*
X6871428Y-10314000D01*
X6890476Y-10304476D01*
X7042857Y-10485429D02*
X7052381Y-10494952D01*
X7042857Y-10504476D01*
X7033333Y-10494952D01*
X7042857Y-10485429D01*
X7042857Y-10504476D01*
X7242857Y-10504476D02*
X7128571Y-10504476D01*
X7185714Y-10504476D02*
X7185714Y-10304476D01*
X7166667Y-10333048D01*
X7147619Y-10352095D01*
X7128571Y-10361619D01*
X7366667Y-10304476D02*
X7385714Y-10304476D01*
X7404762Y-10314000D01*
X7414286Y-10323524D01*
X7423809Y-10342571D01*
X7433333Y-10380667D01*
X7433333Y-10428286D01*
X7423809Y-10466381D01*
X7414286Y-10485429D01*
X7404762Y-10494952D01*
X7385714Y-10504476D01*
X7366667Y-10504476D01*
X7347619Y-10494952D01*
X7338095Y-10485429D01*
X7328571Y-10466381D01*
X7319048Y-10428286D01*
X7319048Y-10380667D01*
X7328571Y-10342571D01*
X7338095Y-10323524D01*
X7347619Y-10314000D01*
X7366667Y-10304476D01*
X7547619Y-10390190D02*
X7528571Y-10380667D01*
X7519048Y-10371143D01*
X7509524Y-10352095D01*
X7509524Y-10342571D01*
X7519048Y-10323524D01*
X7528571Y-10314000D01*
X7547619Y-10304476D01*
X7585714Y-10304476D01*
X7604762Y-10314000D01*
X7614286Y-10323524D01*
X7623809Y-10342571D01*
X7623809Y-10352095D01*
X7614286Y-10371143D01*
X7604762Y-10380667D01*
X7585714Y-10390190D01*
X7547619Y-10390190D01*
X7528571Y-10399714D01*
X7519048Y-10409238D01*
X7509524Y-10428286D01*
X7509524Y-10466381D01*
X7519048Y-10485429D01*
X7528571Y-10494952D01*
X7547619Y-10504476D01*
X7585714Y-10504476D01*
X7604762Y-10494952D01*
X7614286Y-10485429D01*
X7623809Y-10466381D01*
X7623809Y-10428286D01*
X7614286Y-10409238D01*
X7604762Y-10399714D01*
X7585714Y-10390190D01*
X7690476Y-10304476D02*
X7814286Y-10304476D01*
X7747619Y-10380667D01*
X7776190Y-10380667D01*
X7795238Y-10390190D01*
X7804762Y-10399714D01*
X7814286Y-10418762D01*
X7814286Y-10466381D01*
X7804762Y-10485429D01*
X7795238Y-10494952D01*
X7776190Y-10504476D01*
X7719048Y-10504476D01*
X7700000Y-10494952D01*
X7690476Y-10485429D01*
X7890476Y-10304476D02*
X7890476Y-10342571D01*
X7966667Y-10304476D02*
X7966667Y-10342571D01*
X8261905Y-10580667D02*
X8252381Y-10571143D01*
X8233333Y-10542571D01*
X8223809Y-10523524D01*
X8214286Y-10494952D01*
X8204762Y-10447333D01*
X8204762Y-10409238D01*
X8214286Y-10361619D01*
X8223809Y-10333048D01*
X8233333Y-10314000D01*
X8252381Y-10285429D01*
X8261905Y-10275905D01*
X8328571Y-10323524D02*
X8338095Y-10314000D01*
X8357143Y-10304476D01*
X8404762Y-10304476D01*
X8423810Y-10314000D01*
X8433333Y-10323524D01*
X8442857Y-10342571D01*
X8442857Y-10361619D01*
X8433333Y-10390190D01*
X8319048Y-10504476D01*
X8442857Y-10504476D01*
X8680952Y-10504476D02*
X8680952Y-10304476D01*
X8766667Y-10504476D02*
X8766667Y-10399714D01*
X8757143Y-10380667D01*
X8738095Y-10371143D01*
X8709524Y-10371143D01*
X8690476Y-10380667D01*
X8680952Y-10390190D01*
X8890476Y-10504476D02*
X8871429Y-10494952D01*
X8861905Y-10485429D01*
X8852381Y-10466381D01*
X8852381Y-10409238D01*
X8861905Y-10390190D01*
X8871429Y-10380667D01*
X8890476Y-10371143D01*
X8919048Y-10371143D01*
X8938095Y-10380667D01*
X8947619Y-10390190D01*
X8957143Y-10409238D01*
X8957143Y-10466381D01*
X8947619Y-10485429D01*
X8938095Y-10494952D01*
X8919048Y-10504476D01*
X8890476Y-10504476D01*
X9071429Y-10504476D02*
X9052381Y-10494952D01*
X9042857Y-10475905D01*
X9042857Y-10304476D01*
X9223810Y-10494952D02*
X9204762Y-10504476D01*
X9166667Y-10504476D01*
X9147619Y-10494952D01*
X9138095Y-10475905D01*
X9138095Y-10399714D01*
X9147619Y-10380667D01*
X9166667Y-10371143D01*
X9204762Y-10371143D01*
X9223810Y-10380667D01*
X9233333Y-10399714D01*
X9233333Y-10418762D01*
X9138095Y-10437810D01*
X9309524Y-10494952D02*
X9328571Y-10504476D01*
X9366667Y-10504476D01*
X9385714Y-10494952D01*
X9395238Y-10475905D01*
X9395238Y-10466381D01*
X9385714Y-10447333D01*
X9366667Y-10437810D01*
X9338095Y-10437810D01*
X9319048Y-10428286D01*
X9309524Y-10409238D01*
X9309524Y-10399714D01*
X9319048Y-10380667D01*
X9338095Y-10371143D01*
X9366667Y-10371143D01*
X9385714Y-10380667D01*
X9461905Y-10580667D02*
X9471429Y-10571143D01*
X9490476Y-10542571D01*
X9500000Y-10523524D01*
X9509524Y-10494952D01*
X9519048Y-10447333D01*
X9519048Y-10409238D01*
X9509524Y-10361619D01*
X9500000Y-10333048D01*
X9490476Y-10314000D01*
X9471429Y-10285429D01*
X9461905Y-10275905D01*
X9823810Y-10580667D02*
X9814286Y-10571143D01*
X9795238Y-10542571D01*
X9785714Y-10523524D01*
X9776190Y-10494952D01*
X9766667Y-10447333D01*
X9766667Y-10409238D01*
X9776190Y-10361619D01*
X9785714Y-10333048D01*
X9795238Y-10314000D01*
X9814286Y-10285429D01*
X9823810Y-10275905D01*
X9900000Y-10371143D02*
X9900000Y-10504476D01*
X9900000Y-10390190D02*
X9909524Y-10380667D01*
X9928571Y-10371143D01*
X9957143Y-10371143D01*
X9976190Y-10380667D01*
X9985714Y-10399714D01*
X9985714Y-10504476D01*
X10109524Y-10504476D02*
X10090476Y-10494952D01*
X10080952Y-10485429D01*
X10071429Y-10466381D01*
X10071429Y-10409238D01*
X10080952Y-10390190D01*
X10090476Y-10380667D01*
X10109524Y-10371143D01*
X10138095Y-10371143D01*
X10157143Y-10380667D01*
X10166667Y-10390190D01*
X10176190Y-10409238D01*
X10176190Y-10466381D01*
X10166667Y-10485429D01*
X10157143Y-10494952D01*
X10138095Y-10504476D01*
X10109524Y-10504476D01*
X10233333Y-10371143D02*
X10309524Y-10371143D01*
X10261905Y-10304476D02*
X10261905Y-10475905D01*
X10271429Y-10494952D01*
X10290476Y-10504476D01*
X10309524Y-10504476D01*
X10528571Y-10371143D02*
X10528571Y-10571143D01*
X10528571Y-10380667D02*
X10547619Y-10371143D01*
X10585714Y-10371143D01*
X10604762Y-10380667D01*
X10614286Y-10390190D01*
X10623810Y-10409238D01*
X10623810Y-10466381D01*
X10614286Y-10485429D01*
X10604762Y-10494952D01*
X10585714Y-10504476D01*
X10547619Y-10504476D01*
X10528571Y-10494952D01*
X10738095Y-10504476D02*
X10719048Y-10494952D01*
X10709524Y-10475905D01*
X10709524Y-10304476D01*
X10900000Y-10504476D02*
X10900000Y-10399714D01*
X10890476Y-10380667D01*
X10871429Y-10371143D01*
X10833333Y-10371143D01*
X10814286Y-10380667D01*
X10900000Y-10494952D02*
X10880952Y-10504476D01*
X10833333Y-10504476D01*
X10814286Y-10494952D01*
X10804762Y-10475905D01*
X10804762Y-10456857D01*
X10814286Y-10437810D01*
X10833333Y-10428286D01*
X10880952Y-10428286D01*
X10900000Y-10418762D01*
X10966667Y-10371143D02*
X11042857Y-10371143D01*
X10995238Y-10304476D02*
X10995238Y-10475905D01*
X11004762Y-10494952D01*
X11023810Y-10504476D01*
X11042857Y-10504476D01*
X11185714Y-10494952D02*
X11166667Y-10504476D01*
X11128571Y-10504476D01*
X11109524Y-10494952D01*
X11100000Y-10475905D01*
X11100000Y-10399714D01*
X11109524Y-10380667D01*
X11128571Y-10371143D01*
X11166667Y-10371143D01*
X11185714Y-10380667D01*
X11195238Y-10399714D01*
X11195238Y-10418762D01*
X11100000Y-10437810D01*
X11366667Y-10504476D02*
X11366667Y-10304476D01*
X11366667Y-10494952D02*
X11347619Y-10504476D01*
X11309524Y-10504476D01*
X11290476Y-10494952D01*
X11280952Y-10485429D01*
X11271428Y-10466381D01*
X11271428Y-10409238D01*
X11280952Y-10390190D01*
X11290476Y-10380667D01*
X11309524Y-10371143D01*
X11347619Y-10371143D01*
X11366667Y-10380667D01*
X11442857Y-10580667D02*
X11452381Y-10571143D01*
X11471428Y-10542571D01*
X11480952Y-10523524D01*
X11490476Y-10494952D01*
X11500000Y-10447333D01*
X11500000Y-10409238D01*
X11490476Y-10361619D01*
X11480952Y-10333048D01*
X11471428Y-10314000D01*
X11452381Y-10285429D01*
X11442857Y-10275905D01*
M02*
