%FSLAX45Y45*%
G04 Gerber Fmt 4.5, Leading zero omitted, Abs format (unit mm)*
G04 Created by KiCad (PCBNEW (6.0.2)) date 2022-08-14 15:00:57*
%MOMM*%
%LPD*%
G01*
G04 APERTURE LIST*
%TA.AperFunction,Profile*%
%ADD10C,0.200000*%
%TD*%
%ADD11C,0.200000*%
%ADD12C,0.040000*%
%ADD13C,0.100000*%
G04 APERTURE END LIST*
D10*
X4900000Y-9500000D02*
X11300000Y-9500000D01*
X4900000Y-4500000D02*
X11300000Y-4500000D01*
X4900000Y-4500000D02*
G75*
G03*
X4700000Y-4700000I0J-200000D01*
G01*
X4700000Y-4700000D02*
X4700000Y-9300000D01*
X11300000Y-9500000D02*
G75*
G03*
X11500000Y-9300000I0J200000D01*
G01*
X11500000Y-4700000D02*
G75*
G03*
X11300000Y-4500000I-200000J0D01*
G01*
X11500000Y-4700000D02*
X11500000Y-9300000D01*
X4700000Y-9300000D02*
G75*
G03*
X4900000Y-9500000I200000J0D01*
G01*
D11*
D12*
X5280000Y-7580000D02*
X5320000Y-7620000D01*
X5320000Y-7580000D02*
X5280000Y-7620000D01*
X5288750Y-6688750D02*
X5328750Y-6728750D01*
X5328750Y-6688750D02*
X5288750Y-6728750D01*
X5680000Y-7580000D02*
X5720000Y-7620000D01*
X5720000Y-7580000D02*
X5680000Y-7620000D01*
X6030000Y-6930000D02*
X6070000Y-6970000D01*
X6070000Y-6930000D02*
X6030000Y-6970000D01*
X6380000Y-6480000D02*
X6420000Y-6520000D01*
X6420000Y-6480000D02*
X6380000Y-6520000D01*
X6380000Y-7580000D02*
X6420000Y-7620000D01*
X6420000Y-7580000D02*
X6380000Y-7620000D01*
X6480000Y-6280000D02*
X6520000Y-6320000D01*
X6520000Y-6280000D02*
X6480000Y-6320000D01*
X6480000Y-8580000D02*
X6520000Y-8620000D01*
X6520000Y-8580000D02*
X6480000Y-8620000D01*
X6480000Y-8980000D02*
X6520000Y-9020000D01*
X6520000Y-8980000D02*
X6480000Y-9020000D01*
X6580000Y-8780000D02*
X6620000Y-8820000D01*
X6620000Y-8780000D02*
X6580000Y-8820000D01*
X6771250Y-6688750D02*
X6811250Y-6728750D01*
X6811250Y-6688750D02*
X6771250Y-6728750D01*
X6780000Y-7580000D02*
X6820000Y-7620000D01*
X6820000Y-7580000D02*
X6780000Y-7620000D01*
X6780000Y-8780000D02*
X6820000Y-8820000D01*
X6820000Y-8780000D02*
X6780000Y-8820000D01*
X6880000Y-6580000D02*
X6920000Y-6620000D01*
X6920000Y-6580000D02*
X6880000Y-6620000D01*
X6880000Y-8580000D02*
X6920000Y-8620000D01*
X6920000Y-8580000D02*
X6880000Y-8620000D01*
X6880000Y-8980000D02*
X6920000Y-9020000D01*
X6920000Y-8980000D02*
X6880000Y-9020000D01*
X7080000Y-6380000D02*
X7120000Y-6420000D01*
X7120000Y-6380000D02*
X7080000Y-6420000D01*
X7380000Y-8080000D02*
X7420000Y-8120000D01*
X7420000Y-8080000D02*
X7380000Y-8120000D01*
X7380000Y-8480000D02*
X7420000Y-8520000D01*
X7420000Y-8480000D02*
X7380000Y-8520000D01*
X7480000Y-7430000D02*
X7520000Y-7470000D01*
X7520000Y-7430000D02*
X7480000Y-7470000D01*
X7880000Y-5780000D02*
X7920000Y-5820000D01*
X7920000Y-5780000D02*
X7880000Y-5820000D01*
X7880000Y-5980000D02*
X7920000Y-6020000D01*
X7920000Y-5980000D02*
X7880000Y-6020000D01*
X7880000Y-6480000D02*
X7920000Y-6520000D01*
X7920000Y-6480000D02*
X7880000Y-6520000D01*
X7880000Y-6680000D02*
X7920000Y-6720000D01*
X7920000Y-6680000D02*
X7880000Y-6720000D01*
X8180000Y-7030000D02*
X8220000Y-7070000D01*
X8220000Y-7030000D02*
X8180000Y-7070000D01*
X8280000Y-8880000D02*
X8320000Y-8920000D01*
X8320000Y-8880000D02*
X8280000Y-8920000D01*
X8480000Y-7980000D02*
X8520000Y-8020000D01*
X8520000Y-7980000D02*
X8480000Y-8020000D01*
X8480000Y-8680000D02*
X8520000Y-8720000D01*
X8520000Y-8680000D02*
X8480000Y-8720000D01*
X8580000Y-6180000D02*
X8620000Y-6220000D01*
X8620000Y-6180000D02*
X8580000Y-6220000D01*
X8580000Y-6480000D02*
X8620000Y-6520000D01*
X8620000Y-6480000D02*
X8580000Y-6520000D01*
X8580000Y-6980000D02*
X8620000Y-7020000D01*
X8620000Y-6980000D02*
X8580000Y-7020000D01*
X8630000Y-8030000D02*
X8670000Y-8070000D01*
X8670000Y-8030000D02*
X8630000Y-8070000D01*
X8630000Y-8180000D02*
X8670000Y-8220000D01*
X8670000Y-8180000D02*
X8630000Y-8220000D01*
X8680000Y-7780000D02*
X8720000Y-7820000D01*
X8720000Y-7780000D02*
X8680000Y-7820000D01*
X8780000Y-5980000D02*
X8820000Y-6020000D01*
X8820000Y-5980000D02*
X8780000Y-6020000D01*
X8780000Y-6480000D02*
X8820000Y-6520000D01*
X8820000Y-6480000D02*
X8780000Y-6520000D01*
X8780000Y-6980000D02*
X8820000Y-7020000D01*
X8820000Y-6980000D02*
X8780000Y-7020000D01*
X8830000Y-8405000D02*
X8870000Y-8445000D01*
X8870000Y-8405000D02*
X8830000Y-8445000D01*
X8880000Y-8880000D02*
X8920000Y-8920000D01*
X8920000Y-8880000D02*
X8880000Y-8920000D01*
X9080000Y-5630000D02*
X9120000Y-5670000D01*
X9120000Y-5630000D02*
X9080000Y-5670000D01*
X9080000Y-8680000D02*
X9120000Y-8720000D01*
X9120000Y-8680000D02*
X9080000Y-8720000D01*
X9130000Y-5830000D02*
X9170000Y-5870000D01*
X9170000Y-5830000D02*
X9130000Y-5870000D01*
X9130000Y-7980000D02*
X9170000Y-8020000D01*
X9170000Y-7980000D02*
X9130000Y-8020000D01*
X9130000Y-8130000D02*
X9170000Y-8170000D01*
X9170000Y-8130000D02*
X9130000Y-8170000D01*
X9230000Y-5830000D02*
X9270000Y-5870000D01*
X9270000Y-5830000D02*
X9230000Y-5870000D01*
X9285000Y-9325000D02*
X9325000Y-9365000D01*
X9325000Y-9325000D02*
X9285000Y-9365000D01*
X9480000Y-6280000D02*
X9520000Y-6320000D01*
X9520000Y-6280000D02*
X9480000Y-6320000D01*
X9480000Y-6630000D02*
X9520000Y-6670000D01*
X9520000Y-6630000D02*
X9480000Y-6670000D01*
X9480000Y-7455000D02*
X9520000Y-7495000D01*
X9520000Y-7455000D02*
X9480000Y-7495000D01*
X9480000Y-8880000D02*
X9520000Y-8920000D01*
X9520000Y-8880000D02*
X9480000Y-8920000D01*
X9605000Y-7380000D02*
X9645000Y-7420000D01*
X9645000Y-7380000D02*
X9605000Y-7420000D01*
X9680000Y-8680000D02*
X9720000Y-8720000D01*
X9720000Y-8680000D02*
X9680000Y-8720000D01*
X9730000Y-7255000D02*
X9770000Y-7295000D01*
X9770000Y-7255000D02*
X9730000Y-7295000D01*
X9780000Y-6080000D02*
X9820000Y-6120000D01*
X9820000Y-6080000D02*
X9780000Y-6120000D01*
X9880000Y-6280000D02*
X9920000Y-6320000D01*
X9920000Y-6280000D02*
X9880000Y-6320000D01*
X9980000Y-6080000D02*
X10020000Y-6120000D01*
X10020000Y-6080000D02*
X9980000Y-6120000D01*
X9980000Y-6880000D02*
X10020000Y-6920000D01*
X10020000Y-6880000D02*
X9980000Y-6920000D01*
X10080000Y-6280000D02*
X10120000Y-6320000D01*
X10120000Y-6280000D02*
X10080000Y-6320000D01*
X10180000Y-7080000D02*
X10220000Y-7120000D01*
X10220000Y-7080000D02*
X10180000Y-7120000D01*
X10180000Y-7255000D02*
X10220000Y-7295000D01*
X10220000Y-7255000D02*
X10180000Y-7295000D01*
X10280000Y-5805000D02*
X10320000Y-5845000D01*
X10320000Y-5805000D02*
X10280000Y-5845000D01*
X10280000Y-7630000D02*
X10320000Y-7670000D01*
X10320000Y-7630000D02*
X10280000Y-7670000D01*
X10280000Y-8630000D02*
X10320000Y-8670000D01*
X10320000Y-8630000D02*
X10280000Y-8670000D01*
X10380000Y-9180000D02*
X10420000Y-9220000D01*
X10420000Y-9180000D02*
X10380000Y-9220000D01*
X10430000Y-7630000D02*
X10470000Y-7670000D01*
X10470000Y-7630000D02*
X10430000Y-7670000D01*
X10430000Y-8630000D02*
X10470000Y-8670000D01*
X10470000Y-8630000D02*
X10430000Y-8670000D01*
X10580000Y-7880000D02*
X10620000Y-7920000D01*
X10620000Y-7880000D02*
X10580000Y-7920000D01*
X10580000Y-8180000D02*
X10620000Y-8220000D01*
X10620000Y-8180000D02*
X10580000Y-8220000D01*
X10580000Y-8380000D02*
X10620000Y-8420000D01*
X10620000Y-8380000D02*
X10580000Y-8420000D01*
X10580000Y-8680000D02*
X10620000Y-8720000D01*
X10620000Y-8680000D02*
X10580000Y-8720000D01*
X10580000Y-8980000D02*
X10620000Y-9020000D01*
X10620000Y-8980000D02*
X10580000Y-9020000D01*
X10880000Y-6280000D02*
X10920000Y-6320000D01*
X10920000Y-6280000D02*
X10880000Y-6320000D01*
X10880000Y-6680000D02*
X10920000Y-6720000D01*
X10920000Y-6680000D02*
X10880000Y-6720000D01*
X11080000Y-6480000D02*
X11120000Y-6520000D01*
X11120000Y-6480000D02*
X11080000Y-6520000D01*
X11080000Y-6880000D02*
X11120000Y-6920000D01*
X11120000Y-6880000D02*
X11080000Y-6920000D01*
X11180000Y-7380000D02*
X11220000Y-7420000D01*
X11220000Y-7380000D02*
X11180000Y-7420000D01*
X11180000Y-7880000D02*
X11220000Y-7920000D01*
X11220000Y-7880000D02*
X11180000Y-7920000D01*
D13*
X5737000Y-5048000D02*
G75*
G03*
X5737000Y-5048000I-50000J0D01*
G01*
X5737000Y-5302000D02*
G75*
G03*
X5737000Y-5302000I-50000J0D01*
G01*
X5991000Y-5048000D02*
G75*
G03*
X5991000Y-5048000I-50000J0D01*
G01*
X5991000Y-5302000D02*
G75*
G03*
X5991000Y-5302000I-50000J0D01*
G01*
X6245000Y-5048000D02*
G75*
G03*
X6245000Y-5048000I-50000J0D01*
G01*
X6245000Y-5302000D02*
G75*
G03*
X6245000Y-5302000I-50000J0D01*
G01*
X6499000Y-5048000D02*
G75*
G03*
X6499000Y-5048000I-50000J0D01*
G01*
X6499000Y-5302000D02*
G75*
G03*
X6499000Y-5302000I-50000J0D01*
G01*
X6753000Y-5048000D02*
G75*
G03*
X6753000Y-5048000I-50000J0D01*
G01*
X6753000Y-5302000D02*
G75*
G03*
X6753000Y-5302000I-50000J0D01*
G01*
X7007000Y-5048000D02*
G75*
G03*
X7007000Y-5048000I-50000J0D01*
G01*
X7007000Y-5302000D02*
G75*
G03*
X7007000Y-5302000I-50000J0D01*
G01*
X7261000Y-5048000D02*
G75*
G03*
X7261000Y-5048000I-50000J0D01*
G01*
X7261000Y-5302000D02*
G75*
G03*
X7261000Y-5302000I-50000J0D01*
G01*
X7515000Y-5048000D02*
G75*
G03*
X7515000Y-5048000I-50000J0D01*
G01*
X7515000Y-5302000D02*
G75*
G03*
X7515000Y-5302000I-50000J0D01*
G01*
X7757520Y-7514500D02*
G75*
G03*
X7757520Y-7514500I-50000J0D01*
G01*
X7757520Y-7768500D02*
G75*
G03*
X7757520Y-7768500I-50000J0D01*
G01*
X7757520Y-8022500D02*
G75*
G03*
X7757520Y-8022500I-50000J0D01*
G01*
X7757520Y-8276500D02*
G75*
G03*
X7757520Y-8276500I-50000J0D01*
G01*
X7757520Y-8530500D02*
G75*
G03*
X7757520Y-8530500I-50000J0D01*
G01*
X7757520Y-8784500D02*
G75*
G03*
X7757520Y-8784500I-50000J0D01*
G01*
X7757520Y-9038500D02*
G75*
G03*
X7757520Y-9038500I-50000J0D01*
G01*
X7769000Y-5048000D02*
G75*
G03*
X7769000Y-5048000I-50000J0D01*
G01*
X7769000Y-5302000D02*
G75*
G03*
X7769000Y-5302000I-50000J0D01*
G01*
X8011520Y-7514500D02*
G75*
G03*
X8011520Y-7514500I-50000J0D01*
G01*
X8011520Y-7768500D02*
G75*
G03*
X8011520Y-7768500I-50000J0D01*
G01*
X8011520Y-8022500D02*
G75*
G03*
X8011520Y-8022500I-50000J0D01*
G01*
X8011520Y-8276500D02*
G75*
G03*
X8011520Y-8276500I-50000J0D01*
G01*
X8011520Y-8530500D02*
G75*
G03*
X8011520Y-8530500I-50000J0D01*
G01*
X8011520Y-8784500D02*
G75*
G03*
X8011520Y-8784500I-50000J0D01*
G01*
X8011520Y-9038500D02*
G75*
G03*
X8011520Y-9038500I-50000J0D01*
G01*
X8023000Y-5048000D02*
G75*
G03*
X8023000Y-5048000I-50000J0D01*
G01*
X8023000Y-5302000D02*
G75*
G03*
X8023000Y-5302000I-50000J0D01*
G01*
X8277000Y-5048000D02*
G75*
G03*
X8277000Y-5048000I-50000J0D01*
G01*
X8277000Y-5302000D02*
G75*
G03*
X8277000Y-5302000I-50000J0D01*
G01*
X8531000Y-5048000D02*
G75*
G03*
X8531000Y-5048000I-50000J0D01*
G01*
X8531000Y-5302000D02*
G75*
G03*
X8531000Y-5302000I-50000J0D01*
G01*
X8785000Y-5048000D02*
G75*
G03*
X8785000Y-5048000I-50000J0D01*
G01*
X8785000Y-5302000D02*
G75*
G03*
X8785000Y-5302000I-50000J0D01*
G01*
X9039000Y-5048000D02*
G75*
G03*
X9039000Y-5048000I-50000J0D01*
G01*
X9039000Y-5302000D02*
G75*
G03*
X9039000Y-5302000I-50000J0D01*
G01*
X9293000Y-5048000D02*
G75*
G03*
X9293000Y-5048000I-50000J0D01*
G01*
X9293000Y-5302000D02*
G75*
G03*
X9293000Y-5302000I-50000J0D01*
G01*
X9547000Y-5048000D02*
G75*
G03*
X9547000Y-5048000I-50000J0D01*
G01*
X9547000Y-5302000D02*
G75*
G03*
X9547000Y-5302000I-50000J0D01*
G01*
X9801000Y-5048000D02*
G75*
G03*
X9801000Y-5048000I-50000J0D01*
G01*
X9801000Y-5302000D02*
G75*
G03*
X9801000Y-5302000I-50000J0D01*
G01*
X10055000Y-5048000D02*
G75*
G03*
X10055000Y-5048000I-50000J0D01*
G01*
X10055000Y-5302000D02*
G75*
G03*
X10055000Y-5302000I-50000J0D01*
G01*
X10309000Y-5048000D02*
G75*
G03*
X10309000Y-5048000I-50000J0D01*
G01*
X10309000Y-5302000D02*
G75*
G03*
X10309000Y-5302000I-50000J0D01*
G01*
X10563000Y-5048000D02*
G75*
G03*
X10563000Y-5048000I-50000J0D01*
G01*
X10563000Y-5302000D02*
G75*
G03*
X10563000Y-5302000I-50000J0D01*
G01*
X10996020Y-7260500D02*
G75*
G03*
X10996020Y-7260500I-50000J0D01*
G01*
X10996020Y-7514500D02*
G75*
G03*
X10996020Y-7514500I-50000J0D01*
G01*
X10996020Y-7768500D02*
G75*
G03*
X10996020Y-7768500I-50000J0D01*
G01*
X10996020Y-8022500D02*
G75*
G03*
X10996020Y-8022500I-50000J0D01*
G01*
X10996020Y-8276500D02*
G75*
G03*
X10996020Y-8276500I-50000J0D01*
G01*
X10996020Y-8530500D02*
G75*
G03*
X10996020Y-8530500I-50000J0D01*
G01*
X10996020Y-8800248D02*
G75*
G03*
X10996020Y-8800248I-50000J0D01*
G01*
X10996020Y-9054248D02*
G75*
G03*
X10996020Y-9054248I-50000J0D01*
G01*
D11*
X4947619Y-9820476D02*
X4947619Y-9620476D01*
X4995238Y-9620476D01*
X5023810Y-9630000D01*
X5042857Y-9649048D01*
X5052381Y-9668095D01*
X5061905Y-9706190D01*
X5061905Y-9734762D01*
X5052381Y-9772857D01*
X5042857Y-9791905D01*
X5023810Y-9810952D01*
X4995238Y-9820476D01*
X4947619Y-9820476D01*
X5147619Y-9820476D02*
X5147619Y-9687143D01*
X5147619Y-9725238D02*
X5157143Y-9706190D01*
X5166667Y-9696667D01*
X5185714Y-9687143D01*
X5204762Y-9687143D01*
X5271429Y-9820476D02*
X5271429Y-9687143D01*
X5271429Y-9620476D02*
X5261905Y-9630000D01*
X5271429Y-9639524D01*
X5280952Y-9630000D01*
X5271429Y-9620476D01*
X5271429Y-9639524D01*
X5395238Y-9820476D02*
X5376190Y-9810952D01*
X5366667Y-9791905D01*
X5366667Y-9620476D01*
X5500000Y-9820476D02*
X5480952Y-9810952D01*
X5471429Y-9791905D01*
X5471429Y-9620476D01*
X5728571Y-9820476D02*
X5728571Y-9620476D01*
X5795238Y-9763333D01*
X5861905Y-9620476D01*
X5861905Y-9820476D01*
X6042857Y-9820476D02*
X6042857Y-9715714D01*
X6033333Y-9696667D01*
X6014286Y-9687143D01*
X5976190Y-9687143D01*
X5957143Y-9696667D01*
X6042857Y-9810952D02*
X6023809Y-9820476D01*
X5976190Y-9820476D01*
X5957143Y-9810952D01*
X5947619Y-9791905D01*
X5947619Y-9772857D01*
X5957143Y-9753810D01*
X5976190Y-9744286D01*
X6023809Y-9744286D01*
X6042857Y-9734762D01*
X6138095Y-9687143D02*
X6138095Y-9887143D01*
X6138095Y-9696667D02*
X6157143Y-9687143D01*
X6195238Y-9687143D01*
X6214286Y-9696667D01*
X6223809Y-9706190D01*
X6233333Y-9725238D01*
X6233333Y-9782381D01*
X6223809Y-9801429D01*
X6214286Y-9810952D01*
X6195238Y-9820476D01*
X6157143Y-9820476D01*
X6138095Y-9810952D01*
X6319048Y-9801429D02*
X6328571Y-9810952D01*
X6319048Y-9820476D01*
X6309524Y-9810952D01*
X6319048Y-9801429D01*
X6319048Y-9820476D01*
X6319048Y-9696667D02*
X6328571Y-9706190D01*
X6319048Y-9715714D01*
X6309524Y-9706190D01*
X6319048Y-9696667D01*
X6319048Y-9715714D01*
D12*
X4650000Y-10130000D02*
X4690000Y-10170000D01*
X4690000Y-10130000D02*
X4650000Y-10170000D01*
D11*
X4985714Y-10040476D02*
X5004762Y-10040476D01*
X5023810Y-10050000D01*
X5033333Y-10059524D01*
X5042857Y-10078571D01*
X5052381Y-10116667D01*
X5052381Y-10164286D01*
X5042857Y-10202381D01*
X5033333Y-10221429D01*
X5023810Y-10230952D01*
X5004762Y-10240476D01*
X4985714Y-10240476D01*
X4966667Y-10230952D01*
X4957143Y-10221429D01*
X4947619Y-10202381D01*
X4938095Y-10164286D01*
X4938095Y-10116667D01*
X4947619Y-10078571D01*
X4957143Y-10059524D01*
X4966667Y-10050000D01*
X4985714Y-10040476D01*
X5138095Y-10221429D02*
X5147619Y-10230952D01*
X5138095Y-10240476D01*
X5128571Y-10230952D01*
X5138095Y-10221429D01*
X5138095Y-10240476D01*
X5319048Y-10107143D02*
X5319048Y-10240476D01*
X5271429Y-10030952D02*
X5223810Y-10173810D01*
X5347619Y-10173810D01*
X5461905Y-10040476D02*
X5480952Y-10040476D01*
X5500000Y-10050000D01*
X5509524Y-10059524D01*
X5519048Y-10078571D01*
X5528571Y-10116667D01*
X5528571Y-10164286D01*
X5519048Y-10202381D01*
X5509524Y-10221429D01*
X5500000Y-10230952D01*
X5480952Y-10240476D01*
X5461905Y-10240476D01*
X5442857Y-10230952D01*
X5433333Y-10221429D01*
X5423810Y-10202381D01*
X5414286Y-10164286D01*
X5414286Y-10116667D01*
X5423810Y-10078571D01*
X5433333Y-10059524D01*
X5442857Y-10050000D01*
X5461905Y-10040476D01*
X5652381Y-10040476D02*
X5671428Y-10040476D01*
X5690476Y-10050000D01*
X5700000Y-10059524D01*
X5709524Y-10078571D01*
X5719048Y-10116667D01*
X5719048Y-10164286D01*
X5709524Y-10202381D01*
X5700000Y-10221429D01*
X5690476Y-10230952D01*
X5671428Y-10240476D01*
X5652381Y-10240476D01*
X5633333Y-10230952D01*
X5623809Y-10221429D01*
X5614286Y-10202381D01*
X5604762Y-10164286D01*
X5604762Y-10116667D01*
X5614286Y-10078571D01*
X5623809Y-10059524D01*
X5633333Y-10050000D01*
X5652381Y-10040476D01*
X5804762Y-10240476D02*
X5804762Y-10107143D01*
X5804762Y-10126190D02*
X5814286Y-10116667D01*
X5833333Y-10107143D01*
X5861905Y-10107143D01*
X5880952Y-10116667D01*
X5890476Y-10135714D01*
X5890476Y-10240476D01*
X5890476Y-10135714D02*
X5900000Y-10116667D01*
X5919048Y-10107143D01*
X5947619Y-10107143D01*
X5966667Y-10116667D01*
X5976190Y-10135714D01*
X5976190Y-10240476D01*
X6071428Y-10240476D02*
X6071428Y-10107143D01*
X6071428Y-10126190D02*
X6080952Y-10116667D01*
X6100000Y-10107143D01*
X6128571Y-10107143D01*
X6147619Y-10116667D01*
X6157143Y-10135714D01*
X6157143Y-10240476D01*
X6157143Y-10135714D02*
X6166667Y-10116667D01*
X6185714Y-10107143D01*
X6214286Y-10107143D01*
X6233333Y-10116667D01*
X6242857Y-10135714D01*
X6242857Y-10240476D01*
X6633333Y-10030952D02*
X6461905Y-10288095D01*
X6890476Y-10040476D02*
X6909524Y-10040476D01*
X6928571Y-10050000D01*
X6938095Y-10059524D01*
X6947619Y-10078571D01*
X6957143Y-10116667D01*
X6957143Y-10164286D01*
X6947619Y-10202381D01*
X6938095Y-10221429D01*
X6928571Y-10230952D01*
X6909524Y-10240476D01*
X6890476Y-10240476D01*
X6871428Y-10230952D01*
X6861905Y-10221429D01*
X6852381Y-10202381D01*
X6842857Y-10164286D01*
X6842857Y-10116667D01*
X6852381Y-10078571D01*
X6861905Y-10059524D01*
X6871428Y-10050000D01*
X6890476Y-10040476D01*
X7042857Y-10221429D02*
X7052381Y-10230952D01*
X7042857Y-10240476D01*
X7033333Y-10230952D01*
X7042857Y-10221429D01*
X7042857Y-10240476D01*
X7176190Y-10040476D02*
X7195238Y-10040476D01*
X7214286Y-10050000D01*
X7223809Y-10059524D01*
X7233333Y-10078571D01*
X7242857Y-10116667D01*
X7242857Y-10164286D01*
X7233333Y-10202381D01*
X7223809Y-10221429D01*
X7214286Y-10230952D01*
X7195238Y-10240476D01*
X7176190Y-10240476D01*
X7157143Y-10230952D01*
X7147619Y-10221429D01*
X7138095Y-10202381D01*
X7128571Y-10164286D01*
X7128571Y-10116667D01*
X7138095Y-10078571D01*
X7147619Y-10059524D01*
X7157143Y-10050000D01*
X7176190Y-10040476D01*
X7433333Y-10240476D02*
X7319048Y-10240476D01*
X7376190Y-10240476D02*
X7376190Y-10040476D01*
X7357143Y-10069048D01*
X7338095Y-10088095D01*
X7319048Y-10097619D01*
X7614286Y-10040476D02*
X7519048Y-10040476D01*
X7509524Y-10135714D01*
X7519048Y-10126190D01*
X7538095Y-10116667D01*
X7585714Y-10116667D01*
X7604762Y-10126190D01*
X7614286Y-10135714D01*
X7623809Y-10154762D01*
X7623809Y-10202381D01*
X7614286Y-10221429D01*
X7604762Y-10230952D01*
X7585714Y-10240476D01*
X7538095Y-10240476D01*
X7519048Y-10230952D01*
X7509524Y-10221429D01*
X7690476Y-10040476D02*
X7823809Y-10040476D01*
X7738095Y-10240476D01*
X7890476Y-10040476D02*
X7890476Y-10078571D01*
X7966667Y-10040476D02*
X7966667Y-10078571D01*
X8261905Y-10316667D02*
X8252381Y-10307143D01*
X8233333Y-10278571D01*
X8223809Y-10259524D01*
X8214286Y-10230952D01*
X8204762Y-10183333D01*
X8204762Y-10145238D01*
X8214286Y-10097619D01*
X8223809Y-10069048D01*
X8233333Y-10050000D01*
X8252381Y-10021429D01*
X8261905Y-10011905D01*
X8319048Y-10040476D02*
X8452381Y-10040476D01*
X8366667Y-10240476D01*
X8509524Y-10040476D02*
X8642857Y-10040476D01*
X8557143Y-10240476D01*
X8871429Y-10240476D02*
X8871429Y-10040476D01*
X8957143Y-10240476D02*
X8957143Y-10135714D01*
X8947619Y-10116667D01*
X8928571Y-10107143D01*
X8900000Y-10107143D01*
X8880952Y-10116667D01*
X8871429Y-10126190D01*
X9080952Y-10240476D02*
X9061905Y-10230952D01*
X9052381Y-10221429D01*
X9042857Y-10202381D01*
X9042857Y-10145238D01*
X9052381Y-10126190D01*
X9061905Y-10116667D01*
X9080952Y-10107143D01*
X9109524Y-10107143D01*
X9128571Y-10116667D01*
X9138095Y-10126190D01*
X9147619Y-10145238D01*
X9147619Y-10202381D01*
X9138095Y-10221429D01*
X9128571Y-10230952D01*
X9109524Y-10240476D01*
X9080952Y-10240476D01*
X9261905Y-10240476D02*
X9242857Y-10230952D01*
X9233333Y-10211905D01*
X9233333Y-10040476D01*
X9414286Y-10230952D02*
X9395238Y-10240476D01*
X9357143Y-10240476D01*
X9338095Y-10230952D01*
X9328571Y-10211905D01*
X9328571Y-10135714D01*
X9338095Y-10116667D01*
X9357143Y-10107143D01*
X9395238Y-10107143D01*
X9414286Y-10116667D01*
X9423810Y-10135714D01*
X9423810Y-10154762D01*
X9328571Y-10173810D01*
X9500000Y-10230952D02*
X9519048Y-10240476D01*
X9557143Y-10240476D01*
X9576190Y-10230952D01*
X9585714Y-10211905D01*
X9585714Y-10202381D01*
X9576190Y-10183333D01*
X9557143Y-10173810D01*
X9528571Y-10173810D01*
X9509524Y-10164286D01*
X9500000Y-10145238D01*
X9500000Y-10135714D01*
X9509524Y-10116667D01*
X9528571Y-10107143D01*
X9557143Y-10107143D01*
X9576190Y-10116667D01*
X9652381Y-10316667D02*
X9661905Y-10307143D01*
X9680952Y-10278571D01*
X9690476Y-10259524D01*
X9700000Y-10230952D01*
X9709524Y-10183333D01*
X9709524Y-10145238D01*
X9700000Y-10097619D01*
X9690476Y-10069048D01*
X9680952Y-10050000D01*
X9661905Y-10021429D01*
X9652381Y-10011905D01*
D13*
X4690000Y-10414000D02*
G75*
G03*
X4690000Y-10414000I-50000J0D01*
G01*
D11*
X5052381Y-10504476D02*
X4938095Y-10504476D01*
X4995238Y-10504476D02*
X4995238Y-10304476D01*
X4976190Y-10333048D01*
X4957143Y-10352095D01*
X4938095Y-10361619D01*
X5138095Y-10485429D02*
X5147619Y-10494952D01*
X5138095Y-10504476D01*
X5128571Y-10494952D01*
X5138095Y-10485429D01*
X5138095Y-10504476D01*
X5271429Y-10304476D02*
X5290476Y-10304476D01*
X5309524Y-10314000D01*
X5319048Y-10323524D01*
X5328571Y-10342571D01*
X5338095Y-10380667D01*
X5338095Y-10428286D01*
X5328571Y-10466381D01*
X5319048Y-10485429D01*
X5309524Y-10494952D01*
X5290476Y-10504476D01*
X5271429Y-10504476D01*
X5252381Y-10494952D01*
X5242857Y-10485429D01*
X5233333Y-10466381D01*
X5223810Y-10428286D01*
X5223810Y-10380667D01*
X5233333Y-10342571D01*
X5242857Y-10323524D01*
X5252381Y-10314000D01*
X5271429Y-10304476D01*
X5461905Y-10304476D02*
X5480952Y-10304476D01*
X5500000Y-10314000D01*
X5509524Y-10323524D01*
X5519048Y-10342571D01*
X5528571Y-10380667D01*
X5528571Y-10428286D01*
X5519048Y-10466381D01*
X5509524Y-10485429D01*
X5500000Y-10494952D01*
X5480952Y-10504476D01*
X5461905Y-10504476D01*
X5442857Y-10494952D01*
X5433333Y-10485429D01*
X5423810Y-10466381D01*
X5414286Y-10428286D01*
X5414286Y-10380667D01*
X5423810Y-10342571D01*
X5433333Y-10323524D01*
X5442857Y-10314000D01*
X5461905Y-10304476D01*
X5652381Y-10304476D02*
X5671428Y-10304476D01*
X5690476Y-10314000D01*
X5700000Y-10323524D01*
X5709524Y-10342571D01*
X5719048Y-10380667D01*
X5719048Y-10428286D01*
X5709524Y-10466381D01*
X5700000Y-10485429D01*
X5690476Y-10494952D01*
X5671428Y-10504476D01*
X5652381Y-10504476D01*
X5633333Y-10494952D01*
X5623809Y-10485429D01*
X5614286Y-10466381D01*
X5604762Y-10428286D01*
X5604762Y-10380667D01*
X5614286Y-10342571D01*
X5623809Y-10323524D01*
X5633333Y-10314000D01*
X5652381Y-10304476D01*
X5804762Y-10504476D02*
X5804762Y-10371143D01*
X5804762Y-10390190D02*
X5814286Y-10380667D01*
X5833333Y-10371143D01*
X5861905Y-10371143D01*
X5880952Y-10380667D01*
X5890476Y-10399714D01*
X5890476Y-10504476D01*
X5890476Y-10399714D02*
X5900000Y-10380667D01*
X5919048Y-10371143D01*
X5947619Y-10371143D01*
X5966667Y-10380667D01*
X5976190Y-10399714D01*
X5976190Y-10504476D01*
X6071428Y-10504476D02*
X6071428Y-10371143D01*
X6071428Y-10390190D02*
X6080952Y-10380667D01*
X6100000Y-10371143D01*
X6128571Y-10371143D01*
X6147619Y-10380667D01*
X6157143Y-10399714D01*
X6157143Y-10504476D01*
X6157143Y-10399714D02*
X6166667Y-10380667D01*
X6185714Y-10371143D01*
X6214286Y-10371143D01*
X6233333Y-10380667D01*
X6242857Y-10399714D01*
X6242857Y-10504476D01*
X6633333Y-10294952D02*
X6461905Y-10552095D01*
X6890476Y-10304476D02*
X6909524Y-10304476D01*
X6928571Y-10314000D01*
X6938095Y-10323524D01*
X6947619Y-10342571D01*
X6957143Y-10380667D01*
X6957143Y-10428286D01*
X6947619Y-10466381D01*
X6938095Y-10485429D01*
X6928571Y-10494952D01*
X6909524Y-10504476D01*
X6890476Y-10504476D01*
X6871428Y-10494952D01*
X6861905Y-10485429D01*
X6852381Y-10466381D01*
X6842857Y-10428286D01*
X6842857Y-10380667D01*
X6852381Y-10342571D01*
X6861905Y-10323524D01*
X6871428Y-10314000D01*
X6890476Y-10304476D01*
X7042857Y-10485429D02*
X7052381Y-10494952D01*
X7042857Y-10504476D01*
X7033333Y-10494952D01*
X7042857Y-10485429D01*
X7042857Y-10504476D01*
X7176190Y-10304476D02*
X7195238Y-10304476D01*
X7214286Y-10314000D01*
X7223809Y-10323524D01*
X7233333Y-10342571D01*
X7242857Y-10380667D01*
X7242857Y-10428286D01*
X7233333Y-10466381D01*
X7223809Y-10485429D01*
X7214286Y-10494952D01*
X7195238Y-10504476D01*
X7176190Y-10504476D01*
X7157143Y-10494952D01*
X7147619Y-10485429D01*
X7138095Y-10466381D01*
X7128571Y-10428286D01*
X7128571Y-10380667D01*
X7138095Y-10342571D01*
X7147619Y-10323524D01*
X7157143Y-10314000D01*
X7176190Y-10304476D01*
X7309524Y-10304476D02*
X7433333Y-10304476D01*
X7366667Y-10380667D01*
X7395238Y-10380667D01*
X7414286Y-10390190D01*
X7423809Y-10399714D01*
X7433333Y-10418762D01*
X7433333Y-10466381D01*
X7423809Y-10485429D01*
X7414286Y-10494952D01*
X7395238Y-10504476D01*
X7338095Y-10504476D01*
X7319048Y-10494952D01*
X7309524Y-10485429D01*
X7528571Y-10504476D02*
X7566667Y-10504476D01*
X7585714Y-10494952D01*
X7595238Y-10485429D01*
X7614286Y-10456857D01*
X7623809Y-10418762D01*
X7623809Y-10342571D01*
X7614286Y-10323524D01*
X7604762Y-10314000D01*
X7585714Y-10304476D01*
X7547619Y-10304476D01*
X7528571Y-10314000D01*
X7519048Y-10323524D01*
X7509524Y-10342571D01*
X7509524Y-10390190D01*
X7519048Y-10409238D01*
X7528571Y-10418762D01*
X7547619Y-10428286D01*
X7585714Y-10428286D01*
X7604762Y-10418762D01*
X7614286Y-10409238D01*
X7623809Y-10390190D01*
X7795238Y-10371143D02*
X7795238Y-10504476D01*
X7747619Y-10294952D02*
X7700000Y-10437810D01*
X7823809Y-10437810D01*
X7890476Y-10304476D02*
X7890476Y-10342571D01*
X7966667Y-10304476D02*
X7966667Y-10342571D01*
X8261905Y-10580667D02*
X8252381Y-10571143D01*
X8233333Y-10542571D01*
X8223809Y-10523524D01*
X8214286Y-10494952D01*
X8204762Y-10447333D01*
X8204762Y-10409238D01*
X8214286Y-10361619D01*
X8223809Y-10333048D01*
X8233333Y-10314000D01*
X8252381Y-10285429D01*
X8261905Y-10275905D01*
X8423810Y-10304476D02*
X8385714Y-10304476D01*
X8366667Y-10314000D01*
X8357143Y-10323524D01*
X8338095Y-10352095D01*
X8328571Y-10390190D01*
X8328571Y-10466381D01*
X8338095Y-10485429D01*
X8347619Y-10494952D01*
X8366667Y-10504476D01*
X8404762Y-10504476D01*
X8423810Y-10494952D01*
X8433333Y-10485429D01*
X8442857Y-10466381D01*
X8442857Y-10418762D01*
X8433333Y-10399714D01*
X8423810Y-10390190D01*
X8404762Y-10380667D01*
X8366667Y-10380667D01*
X8347619Y-10390190D01*
X8338095Y-10399714D01*
X8328571Y-10418762D01*
X8519048Y-10323524D02*
X8528571Y-10314000D01*
X8547619Y-10304476D01*
X8595238Y-10304476D01*
X8614286Y-10314000D01*
X8623810Y-10323524D01*
X8633333Y-10342571D01*
X8633333Y-10361619D01*
X8623810Y-10390190D01*
X8509524Y-10504476D01*
X8633333Y-10504476D01*
X8871429Y-10504476D02*
X8871429Y-10304476D01*
X8957143Y-10504476D02*
X8957143Y-10399714D01*
X8947619Y-10380667D01*
X8928571Y-10371143D01*
X8900000Y-10371143D01*
X8880952Y-10380667D01*
X8871429Y-10390190D01*
X9080952Y-10504476D02*
X9061905Y-10494952D01*
X9052381Y-10485429D01*
X9042857Y-10466381D01*
X9042857Y-10409238D01*
X9052381Y-10390190D01*
X9061905Y-10380667D01*
X9080952Y-10371143D01*
X9109524Y-10371143D01*
X9128571Y-10380667D01*
X9138095Y-10390190D01*
X9147619Y-10409238D01*
X9147619Y-10466381D01*
X9138095Y-10485429D01*
X9128571Y-10494952D01*
X9109524Y-10504476D01*
X9080952Y-10504476D01*
X9261905Y-10504476D02*
X9242857Y-10494952D01*
X9233333Y-10475905D01*
X9233333Y-10304476D01*
X9414286Y-10494952D02*
X9395238Y-10504476D01*
X9357143Y-10504476D01*
X9338095Y-10494952D01*
X9328571Y-10475905D01*
X9328571Y-10399714D01*
X9338095Y-10380667D01*
X9357143Y-10371143D01*
X9395238Y-10371143D01*
X9414286Y-10380667D01*
X9423810Y-10399714D01*
X9423810Y-10418762D01*
X9328571Y-10437810D01*
X9500000Y-10494952D02*
X9519048Y-10504476D01*
X9557143Y-10504476D01*
X9576190Y-10494952D01*
X9585714Y-10475905D01*
X9585714Y-10466381D01*
X9576190Y-10447333D01*
X9557143Y-10437810D01*
X9528571Y-10437810D01*
X9509524Y-10428286D01*
X9500000Y-10409238D01*
X9500000Y-10399714D01*
X9509524Y-10380667D01*
X9528571Y-10371143D01*
X9557143Y-10371143D01*
X9576190Y-10380667D01*
X9652381Y-10580667D02*
X9661905Y-10571143D01*
X9680952Y-10542571D01*
X9690476Y-10523524D01*
X9700000Y-10494952D01*
X9709524Y-10447333D01*
X9709524Y-10409238D01*
X9700000Y-10361619D01*
X9690476Y-10333048D01*
X9680952Y-10314000D01*
X9661905Y-10285429D01*
X9652381Y-10275905D01*
M02*
