M48
; DRILL file {KiCad (6.0.2)} date Thu Jul  7 22:01:22 2022
; FORMAT={-:-/ absolute / metric / decimal}
; #@! TF.CreationDate,2022-07-07T22:01:22-07:00
; #@! TF.GenerationSoftware,Kicad,Pcbnew,(6.0.2)
; #@! TF.FileFunction,Plated,1,2,PTH
FMAT,2
METRIC
; #@! TA.AperFunction,Plated,PTH,ViaDrill
T1C0.300
; #@! TA.AperFunction,Plated,PTH,ComponentDrill
T2C1.000
%
G90
G05
T1
X53.087Y-67.087
X67.912Y-67.087
X74.0Y-81.0
X74.0Y-85.0
X91.0Y-56.5
X91.5Y-58.5
X92.5Y-58.5
X102.0Y-56.5
X102.0Y-76.5
X102.0Y-86.5
X103.0Y-76.5
X103.0Y-86.5
T2
X56.87Y-50.48
X56.87Y-53.02
X59.41Y-50.48
X59.41Y-53.02
X61.95Y-50.48
X61.95Y-53.02
X64.49Y-50.48
X64.49Y-53.02
X67.03Y-50.48
X67.03Y-53.02
X69.57Y-50.48
X69.57Y-53.02
X72.11Y-50.48
X72.11Y-53.02
X74.65Y-50.48
X74.65Y-53.02
X77.075Y-75.145
X77.075Y-77.685
X77.075Y-80.225
X77.075Y-82.765
X77.075Y-85.305
X77.075Y-87.845
X77.075Y-90.385
X77.19Y-50.48
X77.19Y-53.02
X79.615Y-75.145
X79.615Y-77.685
X79.615Y-80.225
X79.615Y-82.765
X79.615Y-85.305
X79.615Y-87.845
X79.615Y-90.385
X79.73Y-50.48
X79.73Y-53.02
X82.27Y-50.48
X82.27Y-53.02
X84.81Y-50.48
X84.81Y-53.02
X87.35Y-50.48
X87.35Y-53.02
X89.89Y-50.48
X89.89Y-53.02
X92.43Y-50.48
X92.43Y-53.02
X94.97Y-50.48
X94.97Y-53.02
X97.51Y-50.48
X97.51Y-53.02
X100.05Y-50.48
X100.05Y-53.02
X102.59Y-50.48
X102.59Y-53.02
X105.13Y-50.48
X105.13Y-53.02
X109.46Y-72.605
X109.46Y-75.145
X109.46Y-77.685
X109.46Y-80.225
X109.46Y-82.765
X109.46Y-85.305
X109.46Y-88.002
X109.46Y-90.542
T0
M30
