%TF.GenerationSoftware,KiCad,Pcbnew,(6.0.2)*%
%TF.CreationDate,2022-08-14T15:00:56-07:00*%
%TF.ProjectId,RaspberryPIZero-small,52617370-6265-4727-9279-50495a65726f,rev?*%
%TF.SameCoordinates,Original*%
%TF.FileFunction,Legend,Bot*%
%TF.FilePolarity,Positive*%
%FSLAX46Y46*%
G04 Gerber Fmt 4.6, Leading zero omitted, Abs format (unit mm)*
G04 Created by KiCad (PCBNEW (6.0.2)) date 2022-08-14 15:00:56*
%MOMM*%
%LPD*%
G01*
G04 APERTURE LIST*
%ADD10C,0.120000*%
G04 APERTURE END LIST*
D10*
X84695238Y-56361904D02*
X84695238Y-56933333D01*
X84733333Y-57047619D01*
X84809523Y-57123809D01*
X84923809Y-57161904D01*
X85000000Y-57161904D01*
X83933333Y-57161904D02*
X84314285Y-57161904D01*
X84314285Y-56361904D01*
X83209523Y-57085714D02*
X83247619Y-57123809D01*
X83361904Y-57161904D01*
X83438095Y-57161904D01*
X83552380Y-57123809D01*
X83628571Y-57047619D01*
X83666666Y-56971428D01*
X83704761Y-56819047D01*
X83704761Y-56704761D01*
X83666666Y-56552380D01*
X83628571Y-56476190D01*
X83552380Y-56400000D01*
X83438095Y-56361904D01*
X83361904Y-56361904D01*
X83247619Y-56400000D01*
X83209523Y-56438095D01*
X82638095Y-56361904D02*
X82638095Y-56933333D01*
X82676190Y-57047619D01*
X82752380Y-57123809D01*
X82866666Y-57161904D01*
X82942857Y-57161904D01*
X81876190Y-57161904D02*
X82257142Y-57161904D01*
X82257142Y-56361904D01*
X81152380Y-57085714D02*
X81190476Y-57123809D01*
X81304761Y-57161904D01*
X81380952Y-57161904D01*
X81495238Y-57123809D01*
X81571428Y-57047619D01*
X81609523Y-56971428D01*
X81647619Y-56819047D01*
X81647619Y-56704761D01*
X81609523Y-56552380D01*
X81571428Y-56476190D01*
X81495238Y-56400000D01*
X81380952Y-56361904D01*
X81304761Y-56361904D01*
X81190476Y-56400000D01*
X81152380Y-56438095D01*
X80580952Y-56361904D02*
X80580952Y-56933333D01*
X80619047Y-57047619D01*
X80695238Y-57123809D01*
X80809523Y-57161904D01*
X80885714Y-57161904D01*
X79819047Y-57161904D02*
X80200000Y-57161904D01*
X80200000Y-56361904D01*
X79095238Y-57085714D02*
X79133333Y-57123809D01*
X79247619Y-57161904D01*
X79323809Y-57161904D01*
X79438095Y-57123809D01*
X79514285Y-57047619D01*
X79552380Y-56971428D01*
X79590476Y-56819047D01*
X79590476Y-56704761D01*
X79552380Y-56552380D01*
X79514285Y-56476190D01*
X79438095Y-56400000D01*
X79323809Y-56361904D01*
X79247619Y-56361904D01*
X79133333Y-56400000D01*
X79095238Y-56438095D01*
X78523809Y-56361904D02*
X78523809Y-56933333D01*
X78561904Y-57047619D01*
X78638095Y-57123809D01*
X78752380Y-57161904D01*
X78828571Y-57161904D01*
X77761904Y-57161904D02*
X78142857Y-57161904D01*
X78142857Y-56361904D01*
X77038095Y-57085714D02*
X77076190Y-57123809D01*
X77190476Y-57161904D01*
X77266666Y-57161904D01*
X77380952Y-57123809D01*
X77457142Y-57047619D01*
X77495238Y-56971428D01*
X77533333Y-56819047D01*
X77533333Y-56704761D01*
X77495238Y-56552380D01*
X77457142Y-56476190D01*
X77380952Y-56400000D01*
X77266666Y-56361904D01*
X77190476Y-56361904D01*
X77076190Y-56400000D01*
X77038095Y-56438095D01*
M02*
