%TF.GenerationSoftware,KiCad,Pcbnew,(6.0.2)*%
%TF.CreationDate,2022-08-14T15:00:56-07:00*%
%TF.ProjectId,RaspberryPIZero-small,52617370-6265-4727-9279-50495a65726f,rev?*%
%TF.SameCoordinates,Original*%
%TF.FileFunction,Legend,Top*%
%TF.FilePolarity,Positive*%
%FSLAX46Y46*%
G04 Gerber Fmt 4.6, Leading zero omitted, Abs format (unit mm)*
G04 Created by KiCad (PCBNEW (6.0.2)) date 2022-08-14 15:00:56*
%MOMM*%
%LPD*%
G01*
G04 APERTURE LIST*
%ADD10C,0.200000*%
%ADD11C,0.150000*%
%ADD12C,0.300000*%
%ADD13C,0.120000*%
G04 APERTURE END LIST*
D10*
X81302302Y-58000000D02*
X104697698Y-58000000D01*
X78015439Y-94246000D02*
X80409283Y-94246000D01*
D11*
X60750000Y-62750000D02*
X49500000Y-62750000D01*
X49500000Y-62750000D02*
X49500000Y-66250000D01*
X49500000Y-66250000D02*
X60750000Y-66250000D01*
X60750000Y-66250000D02*
X60750000Y-62750000D01*
D10*
X79506248Y-58743950D02*
X74644148Y-63606050D01*
D11*
X72000000Y-67000000D02*
X49500000Y-67000000D01*
X49500000Y-67000000D02*
X49500000Y-82000000D01*
X49500000Y-82000000D02*
X72000000Y-82000000D01*
X72000000Y-82000000D02*
X72000000Y-67000000D01*
D10*
X107664148Y-58743950D02*
X112526248Y-63606050D01*
D11*
X63200000Y-48000000D02*
X55600000Y-48000000D01*
X55600000Y-48000000D02*
X55600000Y-42000000D01*
X55600000Y-42000000D02*
X63200000Y-42000000D01*
X63200000Y-42000000D02*
X63200000Y-48000000D01*
D10*
X73900198Y-90141028D02*
G75*
G03*
X74650031Y-91942943I2539324J-280D01*
G01*
X80409283Y-94246000D02*
G75*
G03*
X82184417Y-93522728I-814J2541998D01*
G01*
X83028030Y-93179815D02*
X87000000Y-93179814D01*
D11*
X105200000Y-49000000D02*
X104800000Y-48600000D01*
D10*
X107664148Y-58743949D02*
G75*
G03*
X105868095Y-58000000I-1796052J-1796053D01*
G01*
X113270198Y-65402103D02*
X113270198Y-69747500D01*
D11*
X61750000Y-82500000D02*
X49500000Y-82500000D01*
X49500000Y-82500000D02*
X49500000Y-94250000D01*
X49500000Y-94250000D02*
X61750000Y-94250000D01*
X61750000Y-94250000D02*
X61750000Y-82500000D01*
D10*
X104697698Y-58000000D02*
X105868095Y-58000000D01*
D11*
X106800000Y-48000000D02*
X99000000Y-48000000D01*
X99000000Y-48000000D02*
X99000000Y-42000000D01*
X99000000Y-42000000D02*
X106800000Y-42000000D01*
X106800000Y-42000000D02*
X106800000Y-48000000D01*
D10*
X81302302Y-58000000D02*
G75*
G03*
X79506248Y-58743950I-1J-2540002D01*
G01*
X74650030Y-91942943D02*
X76225270Y-93507915D01*
D11*
X105600000Y-48600000D02*
X105200000Y-49000000D01*
D10*
X74644148Y-63606050D02*
G75*
G03*
X73900199Y-65402103I1796053J-1796052D01*
G01*
D11*
X75800000Y-48000000D02*
X68200000Y-48000000D01*
X68200000Y-48000000D02*
X68200000Y-42000000D01*
X68200000Y-42000000D02*
X75800000Y-42000000D01*
X75800000Y-42000000D02*
X75800000Y-48000000D01*
D10*
X113270198Y-88221696D02*
X113270198Y-72922500D01*
X108261902Y-93221690D02*
G75*
G03*
X113270199Y-88221696I8511J4999779D01*
G01*
D11*
X60500000Y-67000000D02*
X60500000Y-77500000D01*
X60500000Y-77500000D02*
X62500000Y-79500000D01*
D10*
X113270197Y-65402103D02*
G75*
G03*
X112526248Y-63606050I-2540002J1D01*
G01*
D11*
X104800000Y-48600000D02*
X105600000Y-48600000D01*
D10*
X76225270Y-93507915D02*
G75*
G03*
X78015440Y-94246001I1790448J1802589D01*
G01*
D11*
X62500000Y-79500000D02*
X62500000Y-82000000D01*
D10*
X83028030Y-93179814D02*
G75*
G03*
X82184417Y-93522728I-1663J-1205064D01*
G01*
X73900198Y-65402103D02*
X73900198Y-90141028D01*
X113270198Y-72922500D02*
X113270198Y-69747500D01*
X101000000Y-93221690D02*
X108261902Y-93221690D01*
D11*
X101404761Y-47252380D02*
X101404761Y-46252380D01*
X101404761Y-46728571D02*
X101976190Y-46728571D01*
X101976190Y-47252380D02*
X101976190Y-46252380D01*
X102452380Y-47252380D02*
X102452380Y-46252380D01*
X102690476Y-46252380D01*
X102833333Y-46300000D01*
X102928571Y-46395238D01*
X102976190Y-46490476D01*
X103023809Y-46680952D01*
X103023809Y-46823809D01*
X102976190Y-47014285D01*
X102928571Y-47109523D01*
X102833333Y-47204761D01*
X102690476Y-47252380D01*
X102452380Y-47252380D01*
X103452380Y-47252380D02*
X103452380Y-46252380D01*
X103785714Y-46966666D01*
X104119047Y-46252380D01*
X104119047Y-47252380D01*
X104595238Y-47252380D02*
X104595238Y-46252380D01*
X50366785Y-88928571D02*
X50509642Y-88976190D01*
X50557261Y-89023809D01*
X50604880Y-89119047D01*
X50604880Y-89261904D01*
X50557261Y-89357142D01*
X50509642Y-89404761D01*
X50414404Y-89452380D01*
X50033452Y-89452380D01*
X50033452Y-88452380D01*
X50366785Y-88452380D01*
X50462023Y-88500000D01*
X50509642Y-88547619D01*
X50557261Y-88642857D01*
X50557261Y-88738095D01*
X50509642Y-88833333D01*
X50462023Y-88880952D01*
X50366785Y-88928571D01*
X50033452Y-88928571D01*
X51033452Y-88452380D02*
X51033452Y-89261904D01*
X51081071Y-89357142D01*
X51128690Y-89404761D01*
X51223928Y-89452380D01*
X51414404Y-89452380D01*
X51509642Y-89404761D01*
X51557261Y-89357142D01*
X51604880Y-89261904D01*
X51604880Y-88452380D01*
X52033452Y-89404761D02*
X52176309Y-89452380D01*
X52414404Y-89452380D01*
X52509642Y-89404761D01*
X52557261Y-89357142D01*
X52604880Y-89261904D01*
X52604880Y-89166666D01*
X52557261Y-89071428D01*
X52509642Y-89023809D01*
X52414404Y-88976190D01*
X52223928Y-88928571D01*
X52128690Y-88880952D01*
X52081071Y-88833333D01*
X52033452Y-88738095D01*
X52033452Y-88642857D01*
X52081071Y-88547619D01*
X52128690Y-88500000D01*
X52223928Y-88452380D01*
X52462023Y-88452380D01*
X52604880Y-88500000D01*
X53223928Y-88976190D02*
X53223928Y-89452380D01*
X52890595Y-88452380D02*
X53223928Y-88976190D01*
X53557261Y-88452380D01*
X82333333Y-47452380D02*
X82000000Y-46976190D01*
X81761904Y-47452380D02*
X81761904Y-46452380D01*
X82142857Y-46452380D01*
X82238095Y-46500000D01*
X82285714Y-46547619D01*
X82333333Y-46642857D01*
X82333333Y-46785714D01*
X82285714Y-46880952D01*
X82238095Y-46928571D01*
X82142857Y-46976190D01*
X81761904Y-46976190D01*
X83190476Y-47452380D02*
X83190476Y-46928571D01*
X83142857Y-46833333D01*
X83047619Y-46785714D01*
X82857142Y-46785714D01*
X82761904Y-46833333D01*
X83190476Y-47404761D02*
X83095238Y-47452380D01*
X82857142Y-47452380D01*
X82761904Y-47404761D01*
X82714285Y-47309523D01*
X82714285Y-47214285D01*
X82761904Y-47119047D01*
X82857142Y-47071428D01*
X83095238Y-47071428D01*
X83190476Y-47023809D01*
X83619047Y-47404761D02*
X83714285Y-47452380D01*
X83904761Y-47452380D01*
X84000000Y-47404761D01*
X84047619Y-47309523D01*
X84047619Y-47261904D01*
X84000000Y-47166666D01*
X83904761Y-47119047D01*
X83761904Y-47119047D01*
X83666666Y-47071428D01*
X83619047Y-46976190D01*
X83619047Y-46928571D01*
X83666666Y-46833333D01*
X83761904Y-46785714D01*
X83904761Y-46785714D01*
X84000000Y-46833333D01*
X84476190Y-46785714D02*
X84476190Y-47785714D01*
X84476190Y-46833333D02*
X84571428Y-46785714D01*
X84761904Y-46785714D01*
X84857142Y-46833333D01*
X84904761Y-46880952D01*
X84952380Y-46976190D01*
X84952380Y-47261904D01*
X84904761Y-47357142D01*
X84857142Y-47404761D01*
X84761904Y-47452380D01*
X84571428Y-47452380D01*
X84476190Y-47404761D01*
X85380952Y-47452380D02*
X85380952Y-46452380D01*
X85380952Y-46833333D02*
X85476190Y-46785714D01*
X85666666Y-46785714D01*
X85761904Y-46833333D01*
X85809523Y-46880952D01*
X85857142Y-46976190D01*
X85857142Y-47261904D01*
X85809523Y-47357142D01*
X85761904Y-47404761D01*
X85666666Y-47452380D01*
X85476190Y-47452380D01*
X85380952Y-47404761D01*
X86666666Y-47404761D02*
X86571428Y-47452380D01*
X86380952Y-47452380D01*
X86285714Y-47404761D01*
X86238095Y-47309523D01*
X86238095Y-46928571D01*
X86285714Y-46833333D01*
X86380952Y-46785714D01*
X86571428Y-46785714D01*
X86666666Y-46833333D01*
X86714285Y-46928571D01*
X86714285Y-47023809D01*
X86238095Y-47119047D01*
X87142857Y-47452380D02*
X87142857Y-46785714D01*
X87142857Y-46976190D02*
X87190476Y-46880952D01*
X87238095Y-46833333D01*
X87333333Y-46785714D01*
X87428571Y-46785714D01*
X87761904Y-47452380D02*
X87761904Y-46785714D01*
X87761904Y-46976190D02*
X87809523Y-46880952D01*
X87857142Y-46833333D01*
X87952380Y-46785714D01*
X88047619Y-46785714D01*
X88285714Y-46785714D02*
X88523809Y-47452380D01*
X88761904Y-46785714D02*
X88523809Y-47452380D01*
X88428571Y-47690476D01*
X88380952Y-47738095D01*
X88285714Y-47785714D01*
X89142857Y-47452380D02*
X89142857Y-46452380D01*
X89523809Y-46452380D01*
X89619047Y-46500000D01*
X89666666Y-46547619D01*
X89714285Y-46642857D01*
X89714285Y-46785714D01*
X89666666Y-46880952D01*
X89619047Y-46928571D01*
X89523809Y-46976190D01*
X89142857Y-46976190D01*
X90142857Y-47452380D02*
X90142857Y-46452380D01*
X91285714Y-46452380D02*
X91952380Y-46452380D01*
X91285714Y-47452380D01*
X91952380Y-47452380D01*
X92714285Y-47404761D02*
X92619047Y-47452380D01*
X92428571Y-47452380D01*
X92333333Y-47404761D01*
X92285714Y-47309523D01*
X92285714Y-46928571D01*
X92333333Y-46833333D01*
X92428571Y-46785714D01*
X92619047Y-46785714D01*
X92714285Y-46833333D01*
X92761904Y-46928571D01*
X92761904Y-47023809D01*
X92285714Y-47119047D01*
X93190476Y-47452380D02*
X93190476Y-46785714D01*
X93190476Y-46976190D02*
X93238095Y-46880952D01*
X93285714Y-46833333D01*
X93380952Y-46785714D01*
X93476190Y-46785714D01*
X93952380Y-47452380D02*
X93857142Y-47404761D01*
X93809523Y-47357142D01*
X93761904Y-47261904D01*
X93761904Y-46976190D01*
X93809523Y-46880952D01*
X93857142Y-46833333D01*
X93952380Y-46785714D01*
X94095238Y-46785714D01*
X94190476Y-46833333D01*
X94238095Y-46880952D01*
X94285714Y-46976190D01*
X94285714Y-47261904D01*
X94238095Y-47357142D01*
X94190476Y-47404761D01*
X94095238Y-47452380D01*
X93952380Y-47452380D01*
D12*
X49880714Y-56835809D02*
X50185476Y-56835809D01*
X50337857Y-56912000D01*
X50490238Y-57064380D01*
X50566428Y-57369142D01*
X50566428Y-57902476D01*
X50490238Y-58207238D01*
X50337857Y-58359619D01*
X50185476Y-58435809D01*
X49880714Y-58435809D01*
X49728333Y-58359619D01*
X49575952Y-58207238D01*
X49499761Y-57902476D01*
X49499761Y-57369142D01*
X49575952Y-57064380D01*
X49728333Y-56912000D01*
X49880714Y-56835809D01*
X52090238Y-56912000D02*
X51937857Y-56835809D01*
X51709285Y-56835809D01*
X51480714Y-56912000D01*
X51328333Y-57064380D01*
X51252142Y-57216761D01*
X51175952Y-57521523D01*
X51175952Y-57750095D01*
X51252142Y-58054857D01*
X51328333Y-58207238D01*
X51480714Y-58359619D01*
X51709285Y-58435809D01*
X51861666Y-58435809D01*
X52090238Y-58359619D01*
X52166428Y-58283428D01*
X52166428Y-57750095D01*
X51861666Y-57750095D01*
X53918809Y-56835809D02*
X54985476Y-58435809D01*
X54985476Y-56835809D02*
X53918809Y-58435809D01*
X55595000Y-58435809D02*
X55595000Y-56835809D01*
X55595000Y-57445333D02*
X55747380Y-57369142D01*
X56052142Y-57369142D01*
X56204523Y-57445333D01*
X56280714Y-57521523D01*
X56356904Y-57673904D01*
X56356904Y-58131047D01*
X56280714Y-58283428D01*
X56204523Y-58359619D01*
X56052142Y-58435809D01*
X55747380Y-58435809D01*
X55595000Y-58359619D01*
X57271190Y-58435809D02*
X57118809Y-58359619D01*
X57042619Y-58283428D01*
X56966428Y-58131047D01*
X56966428Y-57673904D01*
X57042619Y-57521523D01*
X57118809Y-57445333D01*
X57271190Y-57369142D01*
X57499761Y-57369142D01*
X57652142Y-57445333D01*
X57728333Y-57521523D01*
X57804523Y-57673904D01*
X57804523Y-58131047D01*
X57728333Y-58283428D01*
X57652142Y-58359619D01*
X57499761Y-58435809D01*
X57271190Y-58435809D01*
X58337857Y-58435809D02*
X59175952Y-57369142D01*
X58337857Y-57369142D02*
X59175952Y-58435809D01*
X61766428Y-58435809D02*
X61004523Y-58435809D01*
X61004523Y-56835809D01*
X62299761Y-58435809D02*
X62299761Y-56835809D01*
X62909285Y-56835809D01*
X63061666Y-56912000D01*
X63137857Y-56988190D01*
X63214047Y-57140571D01*
X63214047Y-57369142D01*
X63137857Y-57521523D01*
X63061666Y-57597714D01*
X62909285Y-57673904D01*
X62299761Y-57673904D01*
X64814047Y-58283428D02*
X64737857Y-58359619D01*
X64509285Y-58435809D01*
X64356904Y-58435809D01*
X64128333Y-58359619D01*
X63975952Y-58207238D01*
X63899761Y-58054857D01*
X63823571Y-57750095D01*
X63823571Y-57521523D01*
X63899761Y-57216761D01*
X63975952Y-57064380D01*
X64128333Y-56912000D01*
X64356904Y-56835809D01*
X64509285Y-56835809D01*
X64737857Y-56912000D01*
X64814047Y-56988190D01*
X66642619Y-56759619D02*
X65271190Y-58816761D01*
X67709285Y-57597714D02*
X67175952Y-57597714D01*
X67175952Y-58435809D02*
X67175952Y-56835809D01*
X67937857Y-56835809D01*
X68395000Y-56835809D02*
X68775952Y-58435809D01*
X69080714Y-57292952D01*
X69385476Y-58435809D01*
X69766428Y-56835809D01*
X70375952Y-58435809D02*
X70375952Y-56835809D01*
X70375952Y-57597714D02*
X71290238Y-57597714D01*
X71290238Y-58435809D02*
X71290238Y-56835809D01*
X49575952Y-61011809D02*
X49575952Y-59411809D01*
X50109285Y-60554666D01*
X50642619Y-59411809D01*
X50642619Y-61011809D01*
X51404523Y-61011809D02*
X51404523Y-59945142D01*
X51404523Y-59411809D02*
X51328333Y-59488000D01*
X51404523Y-59564190D01*
X51480714Y-59488000D01*
X51404523Y-59411809D01*
X51404523Y-59564190D01*
X52166428Y-59945142D02*
X52166428Y-61011809D01*
X52166428Y-60097523D02*
X52242619Y-60021333D01*
X52395000Y-59945142D01*
X52623571Y-59945142D01*
X52775952Y-60021333D01*
X52852142Y-60173714D01*
X52852142Y-61011809D01*
X53614047Y-61011809D02*
X53614047Y-59945142D01*
X53614047Y-59411809D02*
X53537857Y-59488000D01*
X53614047Y-59564190D01*
X53690238Y-59488000D01*
X53614047Y-59411809D01*
X53614047Y-59564190D01*
X55595000Y-61011809D02*
X55595000Y-59411809D01*
X56204523Y-59411809D01*
X56356904Y-59488000D01*
X56433095Y-59564190D01*
X56509285Y-59716571D01*
X56509285Y-59945142D01*
X56433095Y-60097523D01*
X56356904Y-60173714D01*
X56204523Y-60249904D01*
X55595000Y-60249904D01*
X57195000Y-61011809D02*
X57195000Y-59945142D01*
X57195000Y-60249904D02*
X57271190Y-60097523D01*
X57347380Y-60021333D01*
X57499761Y-59945142D01*
X57652142Y-59945142D01*
X58414047Y-61011809D02*
X58261666Y-60935619D01*
X58185476Y-60859428D01*
X58109285Y-60707047D01*
X58109285Y-60249904D01*
X58185476Y-60097523D01*
X58261666Y-60021333D01*
X58414047Y-59945142D01*
X58642619Y-59945142D01*
X58795000Y-60021333D01*
X58871190Y-60097523D01*
X58947380Y-60249904D01*
X58947380Y-60707047D01*
X58871190Y-60859428D01*
X58795000Y-60935619D01*
X58642619Y-61011809D01*
X58414047Y-61011809D01*
X60318809Y-59945142D02*
X60318809Y-61240380D01*
X60242619Y-61392761D01*
X60166428Y-61468952D01*
X60014047Y-61545142D01*
X59785476Y-61545142D01*
X59633095Y-61468952D01*
X60318809Y-60935619D02*
X60166428Y-61011809D01*
X59861666Y-61011809D01*
X59709285Y-60935619D01*
X59633095Y-60859428D01*
X59556904Y-60707047D01*
X59556904Y-60249904D01*
X59633095Y-60097523D01*
X59709285Y-60021333D01*
X59861666Y-59945142D01*
X60166428Y-59945142D01*
X60318809Y-60021333D01*
X61080714Y-61011809D02*
X61080714Y-59945142D01*
X61080714Y-60249904D02*
X61156904Y-60097523D01*
X61233095Y-60021333D01*
X61385476Y-59945142D01*
X61537857Y-59945142D01*
X62756904Y-61011809D02*
X62756904Y-60173714D01*
X62680714Y-60021333D01*
X62528333Y-59945142D01*
X62223571Y-59945142D01*
X62071190Y-60021333D01*
X62756904Y-60935619D02*
X62604523Y-61011809D01*
X62223571Y-61011809D01*
X62071190Y-60935619D01*
X61995000Y-60783238D01*
X61995000Y-60630857D01*
X62071190Y-60478476D01*
X62223571Y-60402285D01*
X62604523Y-60402285D01*
X62756904Y-60326095D01*
X63518809Y-61011809D02*
X63518809Y-59945142D01*
X63518809Y-60097523D02*
X63595000Y-60021333D01*
X63747380Y-59945142D01*
X63975952Y-59945142D01*
X64128333Y-60021333D01*
X64204523Y-60173714D01*
X64204523Y-61011809D01*
X64204523Y-60173714D02*
X64280714Y-60021333D01*
X64433095Y-59945142D01*
X64661666Y-59945142D01*
X64814047Y-60021333D01*
X64890238Y-60173714D01*
X64890238Y-61011809D01*
X65652142Y-61011809D02*
X65652142Y-59945142D01*
X65652142Y-60097523D02*
X65728333Y-60021333D01*
X65880714Y-59945142D01*
X66109285Y-59945142D01*
X66261666Y-60021333D01*
X66337857Y-60173714D01*
X66337857Y-61011809D01*
X66337857Y-60173714D02*
X66414047Y-60021333D01*
X66566428Y-59945142D01*
X66795000Y-59945142D01*
X66947380Y-60021333D01*
X67023571Y-60173714D01*
X67023571Y-61011809D01*
X68395000Y-60935619D02*
X68242619Y-61011809D01*
X67937857Y-61011809D01*
X67785476Y-60935619D01*
X67709285Y-60783238D01*
X67709285Y-60173714D01*
X67785476Y-60021333D01*
X67937857Y-59945142D01*
X68242619Y-59945142D01*
X68395000Y-60021333D01*
X68471190Y-60173714D01*
X68471190Y-60326095D01*
X67709285Y-60478476D01*
X69156904Y-61011809D02*
X69156904Y-59945142D01*
X69156904Y-60249904D02*
X69233095Y-60097523D01*
X69309285Y-60021333D01*
X69461666Y-59945142D01*
X69614047Y-59945142D01*
D11*
X58066666Y-47252380D02*
X58066666Y-46252380D01*
X58447619Y-46252380D01*
X58542857Y-46300000D01*
X58590476Y-46347619D01*
X58638095Y-46442857D01*
X58638095Y-46585714D01*
X58590476Y-46680952D01*
X58542857Y-46728571D01*
X58447619Y-46776190D01*
X58066666Y-46776190D01*
X58971428Y-46252380D02*
X59209523Y-47252380D01*
X59400000Y-46538095D01*
X59590476Y-47252380D01*
X59828571Y-46252380D01*
X60780952Y-47252380D02*
X60447619Y-46776190D01*
X60209523Y-47252380D02*
X60209523Y-46252380D01*
X60590476Y-46252380D01*
X60685714Y-46300000D01*
X60733333Y-46347619D01*
X60780952Y-46442857D01*
X60780952Y-46585714D01*
X60733333Y-46680952D01*
X60685714Y-46728571D01*
X60590476Y-46776190D01*
X60209523Y-46776190D01*
X49997738Y-64452380D02*
X49997738Y-63452380D01*
X50378690Y-63452380D01*
X50473928Y-63500000D01*
X50521547Y-63547619D01*
X50569166Y-63642857D01*
X50569166Y-63785714D01*
X50521547Y-63880952D01*
X50473928Y-63928571D01*
X50378690Y-63976190D01*
X49997738Y-63976190D01*
X50902500Y-63452380D02*
X51140595Y-64452380D01*
X51331071Y-63738095D01*
X51521547Y-64452380D01*
X51759642Y-63452380D01*
X52712023Y-64452380D02*
X52378690Y-63976190D01*
X52140595Y-64452380D02*
X52140595Y-63452380D01*
X52521547Y-63452380D01*
X52616785Y-63500000D01*
X52664404Y-63547619D01*
X52712023Y-63642857D01*
X52712023Y-63785714D01*
X52664404Y-63880952D01*
X52616785Y-63928571D01*
X52521547Y-63976190D01*
X52140595Y-63976190D01*
X70738095Y-46252380D02*
X70738095Y-47061904D01*
X70785714Y-47157142D01*
X70833333Y-47204761D01*
X70928571Y-47252380D01*
X71119047Y-47252380D01*
X71214285Y-47204761D01*
X71261904Y-47157142D01*
X71309523Y-47061904D01*
X71309523Y-46252380D01*
X71738095Y-47204761D02*
X71880952Y-47252380D01*
X72119047Y-47252380D01*
X72214285Y-47204761D01*
X72261904Y-47157142D01*
X72309523Y-47061904D01*
X72309523Y-46966666D01*
X72261904Y-46871428D01*
X72214285Y-46823809D01*
X72119047Y-46776190D01*
X71928571Y-46728571D01*
X71833333Y-46680952D01*
X71785714Y-46633333D01*
X71738095Y-46538095D01*
X71738095Y-46442857D01*
X71785714Y-46347619D01*
X71833333Y-46300000D01*
X71928571Y-46252380D01*
X72166666Y-46252380D01*
X72309523Y-46300000D01*
X73071428Y-46728571D02*
X73214285Y-46776190D01*
X73261904Y-46823809D01*
X73309523Y-46919047D01*
X73309523Y-47061904D01*
X73261904Y-47157142D01*
X73214285Y-47204761D01*
X73119047Y-47252380D01*
X72738095Y-47252380D01*
X72738095Y-46252380D01*
X73071428Y-46252380D01*
X73166666Y-46300000D01*
X73214285Y-46347619D01*
X73261904Y-46442857D01*
X73261904Y-46538095D01*
X73214285Y-46633333D01*
X73166666Y-46680952D01*
X73071428Y-46728571D01*
X72738095Y-46728571D01*
X52033452Y-84452380D02*
X52223928Y-84452380D01*
X52319166Y-84500000D01*
X52414404Y-84595238D01*
X52462023Y-84785714D01*
X52462023Y-85119047D01*
X52414404Y-85309523D01*
X52319166Y-85404761D01*
X52223928Y-85452380D01*
X52033452Y-85452380D01*
X51938214Y-85404761D01*
X51842976Y-85309523D01*
X51795357Y-85119047D01*
X51795357Y-84785714D01*
X51842976Y-84595238D01*
X51938214Y-84500000D01*
X52033452Y-84452380D01*
X52890595Y-85452380D02*
X52890595Y-84452380D01*
X53462023Y-85452380D02*
X53033452Y-84880952D01*
X53462023Y-84452380D02*
X52890595Y-85023809D01*
X50985833Y-92928571D02*
X51319166Y-92928571D01*
X51462023Y-93452380D02*
X50985833Y-93452380D01*
X50985833Y-92452380D01*
X51462023Y-92452380D01*
X52462023Y-93452380D02*
X52128690Y-92976190D01*
X51890595Y-93452380D02*
X51890595Y-92452380D01*
X52271547Y-92452380D01*
X52366785Y-92500000D01*
X52414404Y-92547619D01*
X52462023Y-92642857D01*
X52462023Y-92785714D01*
X52414404Y-92880952D01*
X52366785Y-92928571D01*
X52271547Y-92976190D01*
X51890595Y-92976190D01*
X53462023Y-93452380D02*
X53128690Y-92976190D01*
X52890595Y-93452380D02*
X52890595Y-92452380D01*
X53271547Y-92452380D01*
X53366785Y-92500000D01*
X53414404Y-92547619D01*
X53462023Y-92642857D01*
X53462023Y-92785714D01*
X53414404Y-92880952D01*
X53366785Y-92928571D01*
X53271547Y-92976190D01*
X52890595Y-92976190D01*
X85857142Y-56702380D02*
X86047619Y-56702380D01*
X86142857Y-56750000D01*
X86238095Y-56845238D01*
X86285714Y-57035714D01*
X86285714Y-57369047D01*
X86238095Y-57559523D01*
X86142857Y-57654761D01*
X86047619Y-57702380D01*
X85857142Y-57702380D01*
X85761904Y-57654761D01*
X85666666Y-57559523D01*
X85619047Y-57369047D01*
X85619047Y-57035714D01*
X85666666Y-56845238D01*
X85761904Y-56750000D01*
X85857142Y-56702380D01*
X86714285Y-57035714D02*
X86714285Y-58035714D01*
X86714285Y-57083333D02*
X86809523Y-57035714D01*
X87000000Y-57035714D01*
X87095238Y-57083333D01*
X87142857Y-57130952D01*
X87190476Y-57226190D01*
X87190476Y-57511904D01*
X87142857Y-57607142D01*
X87095238Y-57654761D01*
X87000000Y-57702380D01*
X86809523Y-57702380D01*
X86714285Y-57654761D01*
X88000000Y-57654761D02*
X87904761Y-57702380D01*
X87714285Y-57702380D01*
X87619047Y-57654761D01*
X87571428Y-57559523D01*
X87571428Y-57178571D01*
X87619047Y-57083333D01*
X87714285Y-57035714D01*
X87904761Y-57035714D01*
X88000000Y-57083333D01*
X88047619Y-57178571D01*
X88047619Y-57273809D01*
X87571428Y-57369047D01*
X88476190Y-57035714D02*
X88476190Y-57702380D01*
X88476190Y-57130952D02*
X88523809Y-57083333D01*
X88619047Y-57035714D01*
X88761904Y-57035714D01*
X88857142Y-57083333D01*
X88904761Y-57178571D01*
X88904761Y-57702380D01*
X89285714Y-56702380D02*
X89952380Y-57702380D01*
X89952380Y-56702380D02*
X89285714Y-57702380D01*
X90714285Y-57654761D02*
X90619047Y-57702380D01*
X90428571Y-57702380D01*
X90333333Y-57654761D01*
X90285714Y-57559523D01*
X90285714Y-57178571D01*
X90333333Y-57083333D01*
X90428571Y-57035714D01*
X90619047Y-57035714D01*
X90714285Y-57083333D01*
X90761904Y-57178571D01*
X90761904Y-57273809D01*
X90285714Y-57369047D01*
X91190476Y-57035714D02*
X91190476Y-57702380D01*
X91190476Y-57130952D02*
X91238095Y-57083333D01*
X91333333Y-57035714D01*
X91476190Y-57035714D01*
X91571428Y-57083333D01*
X91619047Y-57178571D01*
X91619047Y-57702380D01*
X92095238Y-57702380D02*
X92095238Y-57035714D01*
X92095238Y-56702380D02*
X92047619Y-56750000D01*
X92095238Y-56797619D01*
X92142857Y-56750000D01*
X92095238Y-56702380D01*
X92095238Y-56797619D01*
X93000000Y-57035714D02*
X93000000Y-57702380D01*
X92571428Y-57035714D02*
X92571428Y-57559523D01*
X92619047Y-57654761D01*
X92714285Y-57702380D01*
X92857142Y-57702380D01*
X92952380Y-57654761D01*
X93000000Y-57607142D01*
X93476190Y-57702380D02*
X93476190Y-57035714D01*
X93476190Y-57130952D02*
X93523809Y-57083333D01*
X93619047Y-57035714D01*
X93761904Y-57035714D01*
X93857142Y-57083333D01*
X93904761Y-57178571D01*
X93904761Y-57702380D01*
X93904761Y-57178571D02*
X93952380Y-57083333D01*
X94047619Y-57035714D01*
X94190476Y-57035714D01*
X94285714Y-57083333D01*
X94333333Y-57178571D01*
X94333333Y-57702380D01*
X95571428Y-57702380D02*
X95571428Y-56702380D01*
X95904761Y-57416666D01*
X96238095Y-56702380D01*
X96238095Y-57702380D01*
X96857142Y-57702380D02*
X96761904Y-57654761D01*
X96714285Y-57607142D01*
X96666666Y-57511904D01*
X96666666Y-57226190D01*
X96714285Y-57130952D01*
X96761904Y-57083333D01*
X96857142Y-57035714D01*
X97000000Y-57035714D01*
X97095238Y-57083333D01*
X97142857Y-57130952D01*
X97190476Y-57226190D01*
X97190476Y-57511904D01*
X97142857Y-57607142D01*
X97095238Y-57654761D01*
X97000000Y-57702380D01*
X96857142Y-57702380D01*
X98047619Y-57702380D02*
X98047619Y-56702380D01*
X98047619Y-57654761D02*
X97952380Y-57702380D01*
X97761904Y-57702380D01*
X97666666Y-57654761D01*
X97619047Y-57607142D01*
X97571428Y-57511904D01*
X97571428Y-57226190D01*
X97619047Y-57130952D01*
X97666666Y-57083333D01*
X97761904Y-57035714D01*
X97952380Y-57035714D01*
X98047619Y-57083333D01*
X99095238Y-57607142D02*
X99047619Y-57654761D01*
X98904761Y-57702380D01*
X98809523Y-57702380D01*
X98666666Y-57654761D01*
X98571428Y-57559523D01*
X98523809Y-57464285D01*
X98476190Y-57273809D01*
X98476190Y-57130952D01*
X98523809Y-56940476D01*
X98571428Y-56845238D01*
X98666666Y-56750000D01*
X98809523Y-56702380D01*
X98904761Y-56702380D01*
X99047619Y-56750000D01*
X99095238Y-56797619D01*
X99523809Y-57702380D02*
X99523809Y-56702380D01*
X99952380Y-57702380D02*
X99952380Y-57178571D01*
X99904761Y-57083333D01*
X99809523Y-57035714D01*
X99666666Y-57035714D01*
X99571428Y-57083333D01*
X99523809Y-57130952D01*
X100428571Y-57702380D02*
X100428571Y-57035714D01*
X100428571Y-56702380D02*
X100380952Y-56750000D01*
X100428571Y-56797619D01*
X100476190Y-56750000D01*
X100428571Y-56702380D01*
X100428571Y-56797619D01*
X100904761Y-57035714D02*
X100904761Y-58035714D01*
X100904761Y-57083333D02*
X101000000Y-57035714D01*
X101190476Y-57035714D01*
X101285714Y-57083333D01*
X101333333Y-57130952D01*
X101380952Y-57226190D01*
X101380952Y-57511904D01*
X101333333Y-57607142D01*
X101285714Y-57654761D01*
X101190476Y-57702380D01*
X101000000Y-57702380D01*
X100904761Y-57654761D01*
X87807261Y-93902380D02*
X87807261Y-92902380D01*
X88045357Y-92902380D01*
X88188214Y-92950000D01*
X88283452Y-93045238D01*
X88331071Y-93140476D01*
X88378690Y-93330952D01*
X88378690Y-93473809D01*
X88331071Y-93664285D01*
X88283452Y-93759523D01*
X88188214Y-93854761D01*
X88045357Y-93902380D01*
X87807261Y-93902380D01*
X88807261Y-93378571D02*
X89140595Y-93378571D01*
X89283452Y-93902380D02*
X88807261Y-93902380D01*
X88807261Y-92902380D01*
X89283452Y-92902380D01*
X89569166Y-92902380D02*
X90140595Y-92902380D01*
X89854880Y-93902380D02*
X89854880Y-92902380D01*
X90473928Y-93378571D02*
X90807261Y-93378571D01*
X90950119Y-93902380D02*
X90473928Y-93902380D01*
X90473928Y-92902380D01*
X90950119Y-92902380D01*
X91950119Y-93807142D02*
X91902500Y-93854761D01*
X91759642Y-93902380D01*
X91664404Y-93902380D01*
X91521547Y-93854761D01*
X91426309Y-93759523D01*
X91378690Y-93664285D01*
X91331071Y-93473809D01*
X91331071Y-93330952D01*
X91378690Y-93140476D01*
X91426309Y-93045238D01*
X91521547Y-92950000D01*
X91664404Y-92902380D01*
X91759642Y-92902380D01*
X91902500Y-92950000D01*
X91950119Y-92997619D01*
X92235833Y-92902380D02*
X92807261Y-92902380D01*
X92521547Y-93902380D02*
X92521547Y-92902380D01*
%TO.C,J3*%
X78011864Y-72267380D02*
X78011864Y-72981666D01*
X77964245Y-73124523D01*
X77869007Y-73219761D01*
X77726150Y-73267380D01*
X77630912Y-73267380D01*
X78392817Y-72267380D02*
X79011864Y-72267380D01*
X78678531Y-72648333D01*
X78821388Y-72648333D01*
X78916626Y-72695952D01*
X78964245Y-72743571D01*
X79011864Y-72838809D01*
X79011864Y-73076904D01*
X78964245Y-73172142D01*
X78916626Y-73219761D01*
X78821388Y-73267380D01*
X78535674Y-73267380D01*
X78440436Y-73219761D01*
X78392817Y-73172142D01*
%TO.C,J2*%
X109126864Y-69727380D02*
X109126864Y-70441666D01*
X109079245Y-70584523D01*
X108984007Y-70679761D01*
X108841150Y-70727380D01*
X108745912Y-70727380D01*
X109555436Y-69822619D02*
X109603055Y-69775000D01*
X109698293Y-69727380D01*
X109936388Y-69727380D01*
X110031626Y-69775000D01*
X110079245Y-69822619D01*
X110126864Y-69917857D01*
X110126864Y-70013095D01*
X110079245Y-70155952D01*
X109507817Y-70727380D01*
X110126864Y-70727380D01*
%TO.C,J1*%
X109126864Y-85124861D02*
X109126864Y-85839147D01*
X109079245Y-85982004D01*
X108984007Y-86077242D01*
X108841150Y-86124861D01*
X108745912Y-86124861D01*
X110126864Y-86124861D02*
X109555436Y-86124861D01*
X109841150Y-86124861D02*
X109841150Y-85124861D01*
X109745912Y-85267719D01*
X109650674Y-85362957D01*
X109555436Y-85410576D01*
%TO.C,U1*%
X89714285Y-65904761D02*
X89857142Y-65952380D01*
X90095238Y-65952380D01*
X90190476Y-65904761D01*
X90238095Y-65857142D01*
X90285714Y-65761904D01*
X90285714Y-65666666D01*
X90238095Y-65571428D01*
X90190476Y-65523809D01*
X90095238Y-65476190D01*
X89904761Y-65428571D01*
X89809523Y-65380952D01*
X89761904Y-65333333D01*
X89714285Y-65238095D01*
X89714285Y-65142857D01*
X89761904Y-65047619D01*
X89809523Y-65000000D01*
X89904761Y-64952380D01*
X90142857Y-64952380D01*
X90285714Y-65000000D01*
X90666666Y-65904761D02*
X90809523Y-65952380D01*
X91047619Y-65952380D01*
X91142857Y-65904761D01*
X91190476Y-65857142D01*
X91238095Y-65761904D01*
X91238095Y-65666666D01*
X91190476Y-65571428D01*
X91142857Y-65523809D01*
X91047619Y-65476190D01*
X90857142Y-65428571D01*
X90761904Y-65380952D01*
X90714285Y-65333333D01*
X90666666Y-65238095D01*
X90666666Y-65142857D01*
X90714285Y-65047619D01*
X90761904Y-65000000D01*
X90857142Y-64952380D01*
X91095238Y-64952380D01*
X91238095Y-65000000D01*
X91523809Y-64952380D02*
X92095238Y-64952380D01*
X91809523Y-65952380D02*
X91809523Y-64952380D01*
X92857142Y-65285714D02*
X92857142Y-65952380D01*
X92619047Y-64904761D02*
X92380952Y-65619047D01*
X93000000Y-65619047D01*
X93428571Y-65952380D02*
X93619047Y-65952380D01*
X93714285Y-65904761D01*
X93761904Y-65857142D01*
X93857142Y-65714285D01*
X93904761Y-65523809D01*
X93904761Y-65142857D01*
X93857142Y-65047619D01*
X93809523Y-65000000D01*
X93714285Y-64952380D01*
X93523809Y-64952380D01*
X93428571Y-65000000D01*
X93380952Y-65047619D01*
X93333333Y-65142857D01*
X93333333Y-65380952D01*
X93380952Y-65476190D01*
X93428571Y-65523809D01*
X93523809Y-65571428D01*
X93714285Y-65571428D01*
X93809523Y-65523809D01*
X93857142Y-65476190D01*
X93904761Y-65380952D01*
X94809523Y-65952380D02*
X94333333Y-65952380D01*
X94333333Y-64952380D01*
X95476190Y-65428571D02*
X95142857Y-65428571D01*
X95142857Y-65952380D02*
X95142857Y-64952380D01*
X95619047Y-64952380D01*
X96190476Y-64952380D02*
X96285714Y-64952380D01*
X96380952Y-65000000D01*
X96428571Y-65047619D01*
X96476190Y-65142857D01*
X96523809Y-65333333D01*
X96523809Y-65571428D01*
X96476190Y-65761904D01*
X96428571Y-65857142D01*
X96380952Y-65904761D01*
X96285714Y-65952380D01*
X96190476Y-65952380D01*
X96095238Y-65904761D01*
X96047619Y-65857142D01*
X96000000Y-65761904D01*
X95952380Y-65571428D01*
X95952380Y-65333333D01*
X96000000Y-65142857D01*
X96047619Y-65047619D01*
X96095238Y-65000000D01*
X96190476Y-64952380D01*
X97142857Y-64952380D02*
X97238095Y-64952380D01*
X97333333Y-65000000D01*
X97380952Y-65047619D01*
X97428571Y-65142857D01*
X97476190Y-65333333D01*
X97476190Y-65571428D01*
X97428571Y-65761904D01*
X97380952Y-65857142D01*
X97333333Y-65904761D01*
X97238095Y-65952380D01*
X97142857Y-65952380D01*
X97047619Y-65904761D01*
X97000000Y-65857142D01*
X96952380Y-65761904D01*
X96904761Y-65571428D01*
X96904761Y-65333333D01*
X96952380Y-65142857D01*
X97000000Y-65047619D01*
X97047619Y-65000000D01*
X97142857Y-64952380D01*
X97857142Y-65047619D02*
X97904761Y-65000000D01*
X98000000Y-64952380D01*
X98238095Y-64952380D01*
X98333333Y-65000000D01*
X98380952Y-65047619D01*
X98428571Y-65142857D01*
X98428571Y-65238095D01*
X98380952Y-65380952D01*
X97809523Y-65952380D01*
X98428571Y-65952380D01*
X98809523Y-65666666D02*
X99285714Y-65666666D01*
X98714285Y-65952380D02*
X99047619Y-64952380D01*
X99380952Y-65952380D01*
%TO.C,SW2*%
X64833333Y-78128571D02*
X64976190Y-78176190D01*
X65023809Y-78223809D01*
X65071428Y-78319047D01*
X65071428Y-78461904D01*
X65023809Y-78557142D01*
X64976190Y-78604761D01*
X64880952Y-78652380D01*
X64500000Y-78652380D01*
X64500000Y-77652380D01*
X64833333Y-77652380D01*
X64928571Y-77700000D01*
X64976190Y-77747619D01*
X65023809Y-77842857D01*
X65023809Y-77938095D01*
X64976190Y-78033333D01*
X64928571Y-78080952D01*
X64833333Y-78128571D01*
X64500000Y-78128571D01*
X65500000Y-78652380D02*
X65500000Y-77652380D01*
X66166666Y-77652380D02*
X66357142Y-77652380D01*
X66452380Y-77700000D01*
X66547619Y-77795238D01*
X66595238Y-77985714D01*
X66595238Y-78319047D01*
X66547619Y-78509523D01*
X66452380Y-78604761D01*
X66357142Y-78652380D01*
X66166666Y-78652380D01*
X66071428Y-78604761D01*
X65976190Y-78509523D01*
X65928571Y-78319047D01*
X65928571Y-77985714D01*
X65976190Y-77795238D01*
X66071428Y-77700000D01*
X66166666Y-77652380D01*
X66976190Y-78604761D02*
X67119047Y-78652380D01*
X67357142Y-78652380D01*
X67452380Y-78604761D01*
X67500000Y-78557142D01*
X67547619Y-78461904D01*
X67547619Y-78366666D01*
X67500000Y-78271428D01*
X67452380Y-78223809D01*
X67357142Y-78176190D01*
X67166666Y-78128571D01*
X67071428Y-78080952D01*
X67023809Y-78033333D01*
X66976190Y-77938095D01*
X66976190Y-77842857D01*
X67023809Y-77747619D01*
X67071428Y-77700000D01*
X67166666Y-77652380D01*
X67404761Y-77652380D01*
X67547619Y-77700000D01*
%TO.C,D6*%
X54261904Y-81702380D02*
X54261904Y-80702380D01*
X54500000Y-80702380D01*
X54642857Y-80750000D01*
X54738095Y-80845238D01*
X54785714Y-80940476D01*
X54833333Y-81130952D01*
X54833333Y-81273809D01*
X54785714Y-81464285D01*
X54738095Y-81559523D01*
X54642857Y-81654761D01*
X54500000Y-81702380D01*
X54261904Y-81702380D01*
X55690476Y-80702380D02*
X55500000Y-80702380D01*
X55404761Y-80750000D01*
X55357142Y-80797619D01*
X55261904Y-80940476D01*
X55214285Y-81130952D01*
X55214285Y-81511904D01*
X55261904Y-81607142D01*
X55309523Y-81654761D01*
X55404761Y-81702380D01*
X55595238Y-81702380D01*
X55690476Y-81654761D01*
X55738095Y-81607142D01*
X55785714Y-81511904D01*
X55785714Y-81273809D01*
X55738095Y-81178571D01*
X55690476Y-81130952D01*
X55595238Y-81083333D01*
X55404761Y-81083333D01*
X55309523Y-81130952D01*
X55261904Y-81178571D01*
X55214285Y-81273809D01*
%TO.C,SW1*%
X53904761Y-78557142D02*
X53857142Y-78604761D01*
X53714285Y-78652380D01*
X53619047Y-78652380D01*
X53476190Y-78604761D01*
X53380952Y-78509523D01*
X53333333Y-78414285D01*
X53285714Y-78223809D01*
X53285714Y-78080952D01*
X53333333Y-77890476D01*
X53380952Y-77795238D01*
X53476190Y-77700000D01*
X53619047Y-77652380D01*
X53714285Y-77652380D01*
X53857142Y-77700000D01*
X53904761Y-77747619D01*
X54333333Y-78652380D02*
X54333333Y-77652380D01*
X54714285Y-77652380D01*
X54809523Y-77700000D01*
X54857142Y-77747619D01*
X54904761Y-77842857D01*
X54904761Y-77985714D01*
X54857142Y-78080952D01*
X54809523Y-78128571D01*
X54714285Y-78176190D01*
X54333333Y-78176190D01*
X55809523Y-78652380D02*
X55333333Y-78652380D01*
X55333333Y-77652380D01*
X56142857Y-78652380D02*
X56142857Y-77652380D01*
X56380952Y-77652380D01*
X56523809Y-77700000D01*
X56619047Y-77795238D01*
X56666666Y-77890476D01*
X56714285Y-78080952D01*
X56714285Y-78223809D01*
X56666666Y-78414285D01*
X56619047Y-78509523D01*
X56523809Y-78604761D01*
X56380952Y-78652380D01*
X56142857Y-78652380D01*
%TO.C,D7*%
X65261904Y-81702380D02*
X65261904Y-80702380D01*
X65500000Y-80702380D01*
X65642857Y-80750000D01*
X65738095Y-80845238D01*
X65785714Y-80940476D01*
X65833333Y-81130952D01*
X65833333Y-81273809D01*
X65785714Y-81464285D01*
X65738095Y-81559523D01*
X65642857Y-81654761D01*
X65500000Y-81702380D01*
X65261904Y-81702380D01*
X66166666Y-80702380D02*
X66833333Y-80702380D01*
X66404761Y-81702380D01*
%TO.C,C5*%
X58333333Y-68357142D02*
X58285714Y-68404761D01*
X58142857Y-68452380D01*
X58047619Y-68452380D01*
X57904761Y-68404761D01*
X57809523Y-68309523D01*
X57761904Y-68214285D01*
X57714285Y-68023809D01*
X57714285Y-67880952D01*
X57761904Y-67690476D01*
X57809523Y-67595238D01*
X57904761Y-67500000D01*
X58047619Y-67452380D01*
X58142857Y-67452380D01*
X58285714Y-67500000D01*
X58333333Y-67547619D01*
X59238095Y-67452380D02*
X58761904Y-67452380D01*
X58714285Y-67928571D01*
X58761904Y-67880952D01*
X58857142Y-67833333D01*
X59095238Y-67833333D01*
X59190476Y-67880952D01*
X59238095Y-67928571D01*
X59285714Y-68023809D01*
X59285714Y-68261904D01*
X59238095Y-68357142D01*
X59190476Y-68404761D01*
X59095238Y-68452380D01*
X58857142Y-68452380D01*
X58761904Y-68404761D01*
X58714285Y-68357142D01*
%TO.C,D1*%
X55011904Y-83952380D02*
X55011904Y-82952380D01*
X55250000Y-82952380D01*
X55392857Y-83000000D01*
X55488095Y-83095238D01*
X55535714Y-83190476D01*
X55583333Y-83380952D01*
X55583333Y-83523809D01*
X55535714Y-83714285D01*
X55488095Y-83809523D01*
X55392857Y-83904761D01*
X55250000Y-83952380D01*
X55011904Y-83952380D01*
X56535714Y-83952380D02*
X55964285Y-83952380D01*
X56250000Y-83952380D02*
X56250000Y-82952380D01*
X56154761Y-83095238D01*
X56059523Y-83190476D01*
X55964285Y-83238095D01*
%TO.C,RPI_ZERO1*%
X107228571Y-49961904D02*
X106771428Y-49961904D01*
X107000000Y-49961904D02*
X107000000Y-49161904D01*
X106923809Y-49276190D01*
X106847619Y-49352380D01*
X106771428Y-49390476D01*
%TO.C,R2*%
X59583333Y-87952380D02*
X59250000Y-87476190D01*
X59011904Y-87952380D02*
X59011904Y-86952380D01*
X59392857Y-86952380D01*
X59488095Y-87000000D01*
X59535714Y-87047619D01*
X59583333Y-87142857D01*
X59583333Y-87285714D01*
X59535714Y-87380952D01*
X59488095Y-87428571D01*
X59392857Y-87476190D01*
X59011904Y-87476190D01*
X59964285Y-87047619D02*
X60011904Y-87000000D01*
X60107142Y-86952380D01*
X60345238Y-86952380D01*
X60440476Y-87000000D01*
X60488095Y-87047619D01*
X60535714Y-87142857D01*
X60535714Y-87238095D01*
X60488095Y-87380952D01*
X59916666Y-87952380D01*
X60535714Y-87952380D01*
%TO.C,D3*%
X55011904Y-91952380D02*
X55011904Y-90952380D01*
X55250000Y-90952380D01*
X55392857Y-91000000D01*
X55488095Y-91095238D01*
X55535714Y-91190476D01*
X55583333Y-91380952D01*
X55583333Y-91523809D01*
X55535714Y-91714285D01*
X55488095Y-91809523D01*
X55392857Y-91904761D01*
X55250000Y-91952380D01*
X55011904Y-91952380D01*
X55916666Y-90952380D02*
X56535714Y-90952380D01*
X56202380Y-91333333D01*
X56345238Y-91333333D01*
X56440476Y-91380952D01*
X56488095Y-91428571D01*
X56535714Y-91523809D01*
X56535714Y-91761904D01*
X56488095Y-91857142D01*
X56440476Y-91904761D01*
X56345238Y-91952380D01*
X56059523Y-91952380D01*
X55964285Y-91904761D01*
X55916666Y-91857142D01*
%TO.C,C2*%
X105833333Y-77357142D02*
X105785714Y-77404761D01*
X105642857Y-77452380D01*
X105547619Y-77452380D01*
X105404761Y-77404761D01*
X105309523Y-77309523D01*
X105261904Y-77214285D01*
X105214285Y-77023809D01*
X105214285Y-76880952D01*
X105261904Y-76690476D01*
X105309523Y-76595238D01*
X105404761Y-76500000D01*
X105547619Y-76452380D01*
X105642857Y-76452380D01*
X105785714Y-76500000D01*
X105833333Y-76547619D01*
X106214285Y-76547619D02*
X106261904Y-76500000D01*
X106357142Y-76452380D01*
X106595238Y-76452380D01*
X106690476Y-76500000D01*
X106738095Y-76547619D01*
X106785714Y-76642857D01*
X106785714Y-76738095D01*
X106738095Y-76880952D01*
X106166666Y-77452380D01*
X106785714Y-77452380D01*
%TO.C,R11*%
X69357142Y-81632380D02*
X69023809Y-81156190D01*
X68785714Y-81632380D02*
X68785714Y-80632380D01*
X69166666Y-80632380D01*
X69261904Y-80680000D01*
X69309523Y-80727619D01*
X69357142Y-80822857D01*
X69357142Y-80965714D01*
X69309523Y-81060952D01*
X69261904Y-81108571D01*
X69166666Y-81156190D01*
X68785714Y-81156190D01*
X70309523Y-81632380D02*
X69738095Y-81632380D01*
X70023809Y-81632380D02*
X70023809Y-80632380D01*
X69928571Y-80775238D01*
X69833333Y-80870476D01*
X69738095Y-80918095D01*
X71261904Y-81632380D02*
X70690476Y-81632380D01*
X70976190Y-81632380D02*
X70976190Y-80632380D01*
X70880952Y-80775238D01*
X70785714Y-80870476D01*
X70690476Y-80918095D01*
%TO.C,C4*%
X62333333Y-68357142D02*
X62285714Y-68404761D01*
X62142857Y-68452380D01*
X62047619Y-68452380D01*
X61904761Y-68404761D01*
X61809523Y-68309523D01*
X61761904Y-68214285D01*
X61714285Y-68023809D01*
X61714285Y-67880952D01*
X61761904Y-67690476D01*
X61809523Y-67595238D01*
X61904761Y-67500000D01*
X62047619Y-67452380D01*
X62142857Y-67452380D01*
X62285714Y-67500000D01*
X62333333Y-67547619D01*
X63190476Y-67785714D02*
X63190476Y-68452380D01*
X62952380Y-67404761D02*
X62714285Y-68119047D01*
X63333333Y-68119047D01*
%TO.C,C3*%
X82833333Y-81357142D02*
X82785714Y-81404761D01*
X82642857Y-81452380D01*
X82547619Y-81452380D01*
X82404761Y-81404761D01*
X82309523Y-81309523D01*
X82261904Y-81214285D01*
X82214285Y-81023809D01*
X82214285Y-80880952D01*
X82261904Y-80690476D01*
X82309523Y-80595238D01*
X82404761Y-80500000D01*
X82547619Y-80452380D01*
X82642857Y-80452380D01*
X82785714Y-80500000D01*
X82833333Y-80547619D01*
X83166666Y-80452380D02*
X83785714Y-80452380D01*
X83452380Y-80833333D01*
X83595238Y-80833333D01*
X83690476Y-80880952D01*
X83738095Y-80928571D01*
X83785714Y-81023809D01*
X83785714Y-81261904D01*
X83738095Y-81357142D01*
X83690476Y-81404761D01*
X83595238Y-81452380D01*
X83309523Y-81452380D01*
X83214285Y-81404761D01*
X83166666Y-81357142D01*
%TO.C,R5*%
X98833333Y-92202380D02*
X98500000Y-91726190D01*
X98261904Y-92202380D02*
X98261904Y-91202380D01*
X98642857Y-91202380D01*
X98738095Y-91250000D01*
X98785714Y-91297619D01*
X98833333Y-91392857D01*
X98833333Y-91535714D01*
X98785714Y-91630952D01*
X98738095Y-91678571D01*
X98642857Y-91726190D01*
X98261904Y-91726190D01*
X99738095Y-91202380D02*
X99261904Y-91202380D01*
X99214285Y-91678571D01*
X99261904Y-91630952D01*
X99357142Y-91583333D01*
X99595238Y-91583333D01*
X99690476Y-91630952D01*
X99738095Y-91678571D01*
X99785714Y-91773809D01*
X99785714Y-92011904D01*
X99738095Y-92107142D01*
X99690476Y-92154761D01*
X99595238Y-92202380D01*
X99357142Y-92202380D01*
X99261904Y-92154761D01*
X99214285Y-92107142D01*
%TO.C,D5*%
X94261904Y-92202380D02*
X94261904Y-91202380D01*
X94500000Y-91202380D01*
X94642857Y-91250000D01*
X94738095Y-91345238D01*
X94785714Y-91440476D01*
X94833333Y-91630952D01*
X94833333Y-91773809D01*
X94785714Y-91964285D01*
X94738095Y-92059523D01*
X94642857Y-92154761D01*
X94500000Y-92202380D01*
X94261904Y-92202380D01*
X95738095Y-91202380D02*
X95261904Y-91202380D01*
X95214285Y-91678571D01*
X95261904Y-91630952D01*
X95357142Y-91583333D01*
X95595238Y-91583333D01*
X95690476Y-91630952D01*
X95738095Y-91678571D01*
X95785714Y-91773809D01*
X95785714Y-92011904D01*
X95738095Y-92107142D01*
X95690476Y-92154761D01*
X95595238Y-92202380D01*
X95357142Y-92202380D01*
X95261904Y-92154761D01*
X95214285Y-92107142D01*
%TO.C,R4*%
X58833333Y-65882380D02*
X58500000Y-65406190D01*
X58261904Y-65882380D02*
X58261904Y-64882380D01*
X58642857Y-64882380D01*
X58738095Y-64930000D01*
X58785714Y-64977619D01*
X58833333Y-65072857D01*
X58833333Y-65215714D01*
X58785714Y-65310952D01*
X58738095Y-65358571D01*
X58642857Y-65406190D01*
X58261904Y-65406190D01*
X59690476Y-65215714D02*
X59690476Y-65882380D01*
X59452380Y-64834761D02*
X59214285Y-65549047D01*
X59833333Y-65549047D01*
%TO.C,R6*%
X51333333Y-68452380D02*
X51000000Y-67976190D01*
X50761904Y-68452380D02*
X50761904Y-67452380D01*
X51142857Y-67452380D01*
X51238095Y-67500000D01*
X51285714Y-67547619D01*
X51333333Y-67642857D01*
X51333333Y-67785714D01*
X51285714Y-67880952D01*
X51238095Y-67928571D01*
X51142857Y-67976190D01*
X50761904Y-67976190D01*
X52190476Y-67452380D02*
X52000000Y-67452380D01*
X51904761Y-67500000D01*
X51857142Y-67547619D01*
X51761904Y-67690476D01*
X51714285Y-67880952D01*
X51714285Y-68261904D01*
X51761904Y-68357142D01*
X51809523Y-68404761D01*
X51904761Y-68452380D01*
X52095238Y-68452380D01*
X52190476Y-68404761D01*
X52238095Y-68357142D01*
X52285714Y-68261904D01*
X52285714Y-68023809D01*
X52238095Y-67928571D01*
X52190476Y-67880952D01*
X52095238Y-67833333D01*
X51904761Y-67833333D01*
X51809523Y-67880952D01*
X51761904Y-67928571D01*
X51714285Y-68023809D01*
%TO.C,R7*%
X69333333Y-68452380D02*
X69000000Y-67976190D01*
X68761904Y-68452380D02*
X68761904Y-67452380D01*
X69142857Y-67452380D01*
X69238095Y-67500000D01*
X69285714Y-67547619D01*
X69333333Y-67642857D01*
X69333333Y-67785714D01*
X69285714Y-67880952D01*
X69238095Y-67928571D01*
X69142857Y-67976190D01*
X68761904Y-67976190D01*
X69666666Y-67452380D02*
X70333333Y-67452380D01*
X69904761Y-68452380D01*
%TO.C,R3*%
X59583333Y-91952380D02*
X59250000Y-91476190D01*
X59011904Y-91952380D02*
X59011904Y-90952380D01*
X59392857Y-90952380D01*
X59488095Y-91000000D01*
X59535714Y-91047619D01*
X59583333Y-91142857D01*
X59583333Y-91285714D01*
X59535714Y-91380952D01*
X59488095Y-91428571D01*
X59392857Y-91476190D01*
X59011904Y-91476190D01*
X59916666Y-90952380D02*
X60535714Y-90952380D01*
X60202380Y-91333333D01*
X60345238Y-91333333D01*
X60440476Y-91380952D01*
X60488095Y-91428571D01*
X60535714Y-91523809D01*
X60535714Y-91761904D01*
X60488095Y-91857142D01*
X60440476Y-91904761D01*
X60345238Y-91952380D01*
X60059523Y-91952380D01*
X59964285Y-91904761D01*
X59916666Y-91857142D01*
%TO.C,R10*%
X58357142Y-81632380D02*
X58023809Y-81156190D01*
X57785714Y-81632380D02*
X57785714Y-80632380D01*
X58166666Y-80632380D01*
X58261904Y-80680000D01*
X58309523Y-80727619D01*
X58357142Y-80822857D01*
X58357142Y-80965714D01*
X58309523Y-81060952D01*
X58261904Y-81108571D01*
X58166666Y-81156190D01*
X57785714Y-81156190D01*
X59309523Y-81632380D02*
X58738095Y-81632380D01*
X59023809Y-81632380D02*
X59023809Y-80632380D01*
X58928571Y-80775238D01*
X58833333Y-80870476D01*
X58738095Y-80918095D01*
X59928571Y-80632380D02*
X60023809Y-80632380D01*
X60119047Y-80680000D01*
X60166666Y-80727619D01*
X60214285Y-80822857D01*
X60261904Y-81013333D01*
X60261904Y-81251428D01*
X60214285Y-81441904D01*
X60166666Y-81537142D01*
X60119047Y-81584761D01*
X60023809Y-81632380D01*
X59928571Y-81632380D01*
X59833333Y-81584761D01*
X59785714Y-81537142D01*
X59738095Y-81441904D01*
X59690476Y-81251428D01*
X59690476Y-81013333D01*
X59738095Y-80822857D01*
X59785714Y-80727619D01*
X59833333Y-80680000D01*
X59928571Y-80632380D01*
%TO.C,D2*%
X55011904Y-87952380D02*
X55011904Y-86952380D01*
X55250000Y-86952380D01*
X55392857Y-87000000D01*
X55488095Y-87095238D01*
X55535714Y-87190476D01*
X55583333Y-87380952D01*
X55583333Y-87523809D01*
X55535714Y-87714285D01*
X55488095Y-87809523D01*
X55392857Y-87904761D01*
X55250000Y-87952380D01*
X55011904Y-87952380D01*
X55964285Y-87047619D02*
X56011904Y-87000000D01*
X56107142Y-86952380D01*
X56345238Y-86952380D01*
X56440476Y-87000000D01*
X56488095Y-87047619D01*
X56535714Y-87142857D01*
X56535714Y-87238095D01*
X56488095Y-87380952D01*
X55916666Y-87952380D01*
X56535714Y-87952380D01*
%TO.C,R8*%
X54833333Y-68452380D02*
X54500000Y-67976190D01*
X54261904Y-68452380D02*
X54261904Y-67452380D01*
X54642857Y-67452380D01*
X54738095Y-67500000D01*
X54785714Y-67547619D01*
X54833333Y-67642857D01*
X54833333Y-67785714D01*
X54785714Y-67880952D01*
X54738095Y-67928571D01*
X54642857Y-67976190D01*
X54261904Y-67976190D01*
X55404761Y-67880952D02*
X55309523Y-67833333D01*
X55261904Y-67785714D01*
X55214285Y-67690476D01*
X55214285Y-67642857D01*
X55261904Y-67547619D01*
X55309523Y-67500000D01*
X55404761Y-67452380D01*
X55595238Y-67452380D01*
X55690476Y-67500000D01*
X55738095Y-67547619D01*
X55785714Y-67642857D01*
X55785714Y-67690476D01*
X55738095Y-67785714D01*
X55690476Y-67833333D01*
X55595238Y-67880952D01*
X55404761Y-67880952D01*
X55309523Y-67928571D01*
X55261904Y-67976190D01*
X55214285Y-68071428D01*
X55214285Y-68261904D01*
X55261904Y-68357142D01*
X55309523Y-68404761D01*
X55404761Y-68452380D01*
X55595238Y-68452380D01*
X55690476Y-68404761D01*
X55738095Y-68357142D01*
X55785714Y-68261904D01*
X55785714Y-68071428D01*
X55738095Y-67976190D01*
X55690476Y-67928571D01*
X55595238Y-67880952D01*
%TO.C,R9*%
X65833333Y-68452380D02*
X65500000Y-67976190D01*
X65261904Y-68452380D02*
X65261904Y-67452380D01*
X65642857Y-67452380D01*
X65738095Y-67500000D01*
X65785714Y-67547619D01*
X65833333Y-67642857D01*
X65833333Y-67785714D01*
X65785714Y-67880952D01*
X65738095Y-67928571D01*
X65642857Y-67976190D01*
X65261904Y-67976190D01*
X66309523Y-68452380D02*
X66500000Y-68452380D01*
X66595238Y-68404761D01*
X66642857Y-68357142D01*
X66738095Y-68214285D01*
X66785714Y-68023809D01*
X66785714Y-67642857D01*
X66738095Y-67547619D01*
X66690476Y-67500000D01*
X66595238Y-67452380D01*
X66404761Y-67452380D01*
X66309523Y-67500000D01*
X66261904Y-67547619D01*
X66214285Y-67642857D01*
X66214285Y-67880952D01*
X66261904Y-67976190D01*
X66309523Y-68023809D01*
X66404761Y-68071428D01*
X66595238Y-68071428D01*
X66690476Y-68023809D01*
X66738095Y-67976190D01*
X66785714Y-67880952D01*
%TO.C,C1*%
X72833333Y-86357142D02*
X72785714Y-86404761D01*
X72642857Y-86452380D01*
X72547619Y-86452380D01*
X72404761Y-86404761D01*
X72309523Y-86309523D01*
X72261904Y-86214285D01*
X72214285Y-86023809D01*
X72214285Y-85880952D01*
X72261904Y-85690476D01*
X72309523Y-85595238D01*
X72404761Y-85500000D01*
X72547619Y-85452380D01*
X72642857Y-85452380D01*
X72785714Y-85500000D01*
X72833333Y-85547619D01*
X73785714Y-86452380D02*
X73214285Y-86452380D01*
X73500000Y-86452380D02*
X73500000Y-85452380D01*
X73404761Y-85595238D01*
X73309523Y-85690476D01*
X73214285Y-85738095D01*
%TO.C,R1*%
X59583333Y-83952380D02*
X59250000Y-83476190D01*
X59011904Y-83952380D02*
X59011904Y-82952380D01*
X59392857Y-82952380D01*
X59488095Y-83000000D01*
X59535714Y-83047619D01*
X59583333Y-83142857D01*
X59583333Y-83285714D01*
X59535714Y-83380952D01*
X59488095Y-83428571D01*
X59392857Y-83476190D01*
X59011904Y-83476190D01*
X60535714Y-83952380D02*
X59964285Y-83952380D01*
X60250000Y-83952380D02*
X60250000Y-82952380D01*
X60154761Y-83095238D01*
X60059523Y-83190476D01*
X59964285Y-83238095D01*
%TO.C,D4*%
X54261904Y-65882380D02*
X54261904Y-64882380D01*
X54500000Y-64882380D01*
X54642857Y-64930000D01*
X54738095Y-65025238D01*
X54785714Y-65120476D01*
X54833333Y-65310952D01*
X54833333Y-65453809D01*
X54785714Y-65644285D01*
X54738095Y-65739523D01*
X54642857Y-65834761D01*
X54500000Y-65882380D01*
X54261904Y-65882380D01*
X55690476Y-65215714D02*
X55690476Y-65882380D01*
X55452380Y-64834761D02*
X55214285Y-65549047D01*
X55833333Y-65549047D01*
D13*
%TO.C,J3*%
X75745198Y-91715000D02*
X80945198Y-91715000D01*
X78345198Y-73815000D02*
X80945198Y-73815000D01*
X75745198Y-75145000D02*
X75745198Y-73815000D01*
X75745198Y-76415000D02*
X78345198Y-76415000D01*
X80945198Y-73815000D02*
X80945198Y-91715000D01*
X75745198Y-73815000D02*
X77075198Y-73815000D01*
X75745198Y-76415000D02*
X75745198Y-91715000D01*
X78345198Y-76415000D02*
X78345198Y-73815000D01*
%TO.C,J2*%
X108130198Y-73875000D02*
X108130198Y-86635000D01*
X108130198Y-72605000D02*
X108130198Y-71275000D01*
X108130198Y-71275000D02*
X109460198Y-71275000D01*
X108130198Y-73875000D02*
X110790198Y-73875000D01*
X108130198Y-86635000D02*
X110790198Y-86635000D01*
X110790198Y-73875000D02*
X110790198Y-86635000D01*
%TO.C,J1*%
X108130198Y-88002481D02*
X108130198Y-86672481D01*
X108130198Y-91872481D02*
X110790198Y-91872481D01*
X108130198Y-89272481D02*
X108130198Y-91872481D01*
X108130198Y-89272481D02*
X110790198Y-89272481D01*
X108130198Y-86672481D02*
X109460198Y-86672481D01*
X110790198Y-89272481D02*
X110790198Y-91872481D01*
%TO.C,U1*%
X88675000Y-84095000D02*
X88675000Y-82640000D01*
X90130000Y-84095000D02*
X88675000Y-84095000D01*
X100325000Y-84095000D02*
X100325000Y-82640000D01*
X90130000Y-69905000D02*
X89847218Y-69905000D01*
X88675000Y-71077218D02*
X88675000Y-71360000D01*
X89847218Y-69905000D02*
X88675000Y-71077218D01*
X100325000Y-69905000D02*
X100325000Y-71360000D01*
X98870000Y-84095000D02*
X100325000Y-84095000D01*
X98870000Y-69905000D02*
X100325000Y-69905000D01*
%TO.C,SW2*%
X62770000Y-70770000D02*
X62770000Y-70800000D01*
X69230000Y-77230000D02*
X62770000Y-77230000D01*
X69230000Y-77200000D02*
X69230000Y-77230000D01*
X62770000Y-75300000D02*
X62770000Y-72700000D01*
X69230000Y-70770000D02*
X62770000Y-70770000D01*
X69230000Y-70770000D02*
X69230000Y-70800000D01*
X69230000Y-75300000D02*
X69230000Y-72700000D01*
X62770000Y-77230000D02*
X62770000Y-77200000D01*
%TO.C,D6*%
X56485000Y-80485000D02*
X56485000Y-79015000D01*
X54200000Y-80485000D02*
X56485000Y-80485000D01*
X56485000Y-79015000D02*
X54200000Y-79015000D01*
%TO.C,SW1*%
X51770000Y-75300000D02*
X51770000Y-72700000D01*
X58230000Y-75300000D02*
X58230000Y-72700000D01*
X58230000Y-70770000D02*
X51770000Y-70770000D01*
X58230000Y-77200000D02*
X58230000Y-77230000D01*
X58230000Y-70770000D02*
X58230000Y-70800000D01*
X51770000Y-70770000D02*
X51770000Y-70800000D01*
X58230000Y-77230000D02*
X51770000Y-77230000D01*
X51770000Y-77230000D02*
X51770000Y-77200000D01*
%TO.C,D7*%
X65200000Y-80485000D02*
X67485000Y-80485000D01*
X67485000Y-80485000D02*
X67485000Y-79015000D01*
X67485000Y-79015000D02*
X65200000Y-79015000D01*
%TO.C,C5*%
X58640580Y-68990000D02*
X58359420Y-68990000D01*
X58640580Y-70010000D02*
X58359420Y-70010000D01*
%TO.C,D1*%
X54950000Y-85735000D02*
X57235000Y-85735000D01*
X57235000Y-85735000D02*
X57235000Y-84265000D01*
X57235000Y-84265000D02*
X54950000Y-84265000D01*
D10*
%TO.C,RPI_ZERO1*%
X113500000Y-52250000D02*
X113500000Y-42750000D01*
X48500000Y-42750000D02*
X48500000Y-52250000D01*
X51500000Y-55250000D02*
X110500000Y-55250000D01*
X48500000Y-52250000D02*
G75*
G03*
X51500001Y-55249999I2999999J0D01*
G01*
X110500000Y-55250000D02*
G75*
G03*
X113500001Y-52249999I0J3000001D01*
G01*
D13*
%TO.C,R2*%
X59987258Y-88477500D02*
X59512742Y-88477500D01*
X59987258Y-89522500D02*
X59512742Y-89522500D01*
%TO.C,D3*%
X57235000Y-93735000D02*
X57235000Y-92265000D01*
X57235000Y-92265000D02*
X54950000Y-92265000D01*
X54950000Y-93735000D02*
X57235000Y-93735000D01*
%TO.C,C2*%
X105065000Y-71690000D02*
X105065000Y-75600000D01*
X106935000Y-75600000D02*
X106935000Y-71690000D01*
X106935000Y-71690000D02*
X105065000Y-71690000D01*
%TO.C,R11*%
X70237258Y-79227500D02*
X69762742Y-79227500D01*
X70237258Y-80272500D02*
X69762742Y-80272500D01*
%TO.C,C4*%
X62359420Y-68990000D02*
X62640580Y-68990000D01*
X62359420Y-70010000D02*
X62640580Y-70010000D01*
%TO.C,C3*%
X83935000Y-80060000D02*
X83935000Y-76150000D01*
X82065000Y-76150000D02*
X82065000Y-80060000D01*
X82065000Y-80060000D02*
X83935000Y-80060000D01*
%TO.C,R5*%
X99237258Y-93972500D02*
X98762742Y-93972500D01*
X99237258Y-92927500D02*
X98762742Y-92927500D01*
%TO.C,D5*%
X96485000Y-94185000D02*
X96485000Y-92715000D01*
X94200000Y-94185000D02*
X96485000Y-94185000D01*
X96485000Y-92715000D02*
X94200000Y-92715000D01*
%TO.C,R4*%
X59237258Y-64522500D02*
X58762742Y-64522500D01*
X59237258Y-63477500D02*
X58762742Y-63477500D01*
%TO.C,R6*%
X51737258Y-68977500D02*
X51262742Y-68977500D01*
X51737258Y-70022500D02*
X51262742Y-70022500D01*
%TO.C,R7*%
X69262742Y-68977500D02*
X69737258Y-68977500D01*
X69262742Y-70022500D02*
X69737258Y-70022500D01*
%TO.C,R3*%
X59987258Y-92477500D02*
X59512742Y-92477500D01*
X59987258Y-93522500D02*
X59512742Y-93522500D01*
%TO.C,R10*%
X59237258Y-79227500D02*
X58762742Y-79227500D01*
X59237258Y-80272500D02*
X58762742Y-80272500D01*
%TO.C,D2*%
X57235000Y-88265000D02*
X54950000Y-88265000D01*
X54950000Y-89735000D02*
X57235000Y-89735000D01*
X57235000Y-89735000D02*
X57235000Y-88265000D01*
%TO.C,R8*%
X54762742Y-68977500D02*
X55237258Y-68977500D01*
X54762742Y-70022500D02*
X55237258Y-70022500D01*
%TO.C,R9*%
X66237258Y-70022500D02*
X65762742Y-70022500D01*
X66237258Y-68977500D02*
X65762742Y-68977500D01*
%TO.C,C1*%
X72065000Y-91310000D02*
X73935000Y-91310000D01*
X73935000Y-91310000D02*
X73935000Y-87400000D01*
X72065000Y-87400000D02*
X72065000Y-91310000D01*
%TO.C,R1*%
X59987258Y-84477500D02*
X59512742Y-84477500D01*
X59987258Y-85522500D02*
X59512742Y-85522500D01*
%TO.C,D4*%
X56485000Y-63265000D02*
X54200000Y-63265000D01*
X56485000Y-64735000D02*
X56485000Y-63265000D01*
X54200000Y-64735000D02*
X56485000Y-64735000D01*
%TD*%
M02*
