M48
; DRILL file {KiCad (6.0.2)} date Sun Aug 14 15:00:58 2022
; FORMAT={-:-/ absolute / metric / decimal}
; #@! TF.CreationDate,2022-08-14T15:00:58-07:00
; #@! TF.GenerationSoftware,Kicad,Pcbnew,(6.0.2)
; #@! TF.FileFunction,Plated,1,2,PTH
FMAT,2
METRIC
; #@! TA.AperFunction,Plated,PTH,ViaDrill
T1C0.400
; #@! TA.AperFunction,Plated,PTH,ComponentDrill
T2C1.000
%
G90
G05
T1
X53.0Y-76.0
X53.087Y-67.087
X57.0Y-76.0
X60.5Y-69.5
X64.0Y-65.0
X64.0Y-76.0
X65.0Y-63.0
X65.0Y-86.0
X65.0Y-90.0
X66.0Y-88.0
X67.912Y-67.087
X68.0Y-76.0
X68.0Y-88.0
X69.0Y-66.0
X69.0Y-86.0
X69.0Y-90.0
X71.0Y-64.0
X74.0Y-81.0
X74.0Y-85.0
X75.0Y-74.5
X79.0Y-58.0
X79.0Y-60.0
X79.0Y-65.0
X79.0Y-67.0
X82.0Y-70.5
X83.0Y-89.0
X85.0Y-80.0
X85.0Y-87.0
X86.0Y-62.0
X86.0Y-65.0
X86.0Y-70.0
X86.5Y-80.5
X86.5Y-82.0
X87.0Y-78.0
X88.0Y-60.0
X88.0Y-65.0
X88.0Y-70.0
X88.5Y-84.25
X89.0Y-89.0
X91.0Y-56.5
X91.0Y-87.0
X91.5Y-58.5
X91.5Y-80.0
X91.5Y-81.5
X92.5Y-58.5
X93.05Y-93.45
X95.0Y-63.0
X95.0Y-66.5
X95.0Y-74.75
X95.0Y-89.0
X96.25Y-74.0
X97.0Y-87.0
X97.5Y-72.75
X98.0Y-61.0
X99.0Y-63.0
X100.0Y-61.0
X100.0Y-69.0
X101.0Y-63.0
X102.0Y-71.0
X102.0Y-72.75
X103.0Y-58.25
X103.0Y-76.5
X103.0Y-86.5
X104.0Y-92.0
X104.5Y-76.5
X104.5Y-86.5
X106.0Y-79.0
X106.0Y-82.0
X106.0Y-84.0
X106.0Y-87.0
X106.0Y-90.0
X109.0Y-63.0
X109.0Y-67.0
X111.0Y-65.0
X111.0Y-69.0
X112.0Y-74.0
X112.0Y-79.0
T2
X56.87Y-50.48
X56.87Y-53.02
X59.41Y-50.48
X59.41Y-53.02
X61.95Y-50.48
X61.95Y-53.02
X64.49Y-50.48
X64.49Y-53.02
X67.03Y-50.48
X67.03Y-53.02
X69.57Y-50.48
X69.57Y-53.02
X72.11Y-50.48
X72.11Y-53.02
X74.65Y-50.48
X74.65Y-53.02
X77.075Y-75.145
X77.075Y-77.685
X77.075Y-80.225
X77.075Y-82.765
X77.075Y-85.305
X77.075Y-87.845
X77.075Y-90.385
X77.19Y-50.48
X77.19Y-53.02
X79.615Y-75.145
X79.615Y-77.685
X79.615Y-80.225
X79.615Y-82.765
X79.615Y-85.305
X79.615Y-87.845
X79.615Y-90.385
X79.73Y-50.48
X79.73Y-53.02
X82.27Y-50.48
X82.27Y-53.02
X84.81Y-50.48
X84.81Y-53.02
X87.35Y-50.48
X87.35Y-53.02
X89.89Y-50.48
X89.89Y-53.02
X92.43Y-50.48
X92.43Y-53.02
X94.97Y-50.48
X94.97Y-53.02
X97.51Y-50.48
X97.51Y-53.02
X100.05Y-50.48
X100.05Y-53.02
X102.59Y-50.48
X102.59Y-53.02
X105.13Y-50.48
X105.13Y-53.02
X109.46Y-72.605
X109.46Y-75.145
X109.46Y-77.685
X109.46Y-80.225
X109.46Y-82.765
X109.46Y-85.305
X109.46Y-88.002
X109.46Y-90.542
T0
M30
