%FSLAX45Y45*%
G04 Gerber Fmt 4.5, Leading zero omitted, Abs format (unit mm)*
G04 Created by KiCad (PCBNEW (6.0.2)) date 2022-07-06 19:52:06*
%MOMM*%
%LPD*%
G01*
G04 APERTURE LIST*
%TA.AperFunction,Profile*%
%ADD10C,0.200000*%
%TD*%
%ADD11C,0.200000*%
%ADD12C,0.275000*%
G04 APERTURE END LIST*
D10*
X4700000Y-4700000D02*
X4700000Y-9400000D01*
X4900000Y-4500000D02*
X11300000Y-4500000D01*
X4900000Y-9600000D02*
X11300000Y-9600000D01*
X11500000Y-4700000D02*
X11500000Y-9400000D01*
X11500000Y-4700000D02*
G75*
G03*
X11300000Y-4500000I-200000J0D01*
G01*
X4900000Y-4500000D02*
G75*
G03*
X4700000Y-4700000I0J-200000D01*
G01*
X4700000Y-9400000D02*
G75*
G03*
X4900000Y-9600000I200000J0D01*
G01*
X11300000Y-9600000D02*
G75*
G03*
X11500000Y-9400000I0J200000D01*
G01*
D11*
D12*
X5062500Y-5037500D02*
X5337500Y-5312500D01*
X5337500Y-5037500D02*
X5062500Y-5312500D01*
X10862500Y-5037500D02*
X11137500Y-5312500D01*
X11137500Y-5037500D02*
X10862500Y-5312500D01*
D11*
X4947619Y-9920476D02*
X4947619Y-9720476D01*
X4995238Y-9720476D01*
X5023810Y-9730000D01*
X5042857Y-9749048D01*
X5052381Y-9768095D01*
X5061905Y-9806190D01*
X5061905Y-9834762D01*
X5052381Y-9872857D01*
X5042857Y-9891905D01*
X5023810Y-9910952D01*
X4995238Y-9920476D01*
X4947619Y-9920476D01*
X5147619Y-9920476D02*
X5147619Y-9787143D01*
X5147619Y-9825238D02*
X5157143Y-9806190D01*
X5166667Y-9796667D01*
X5185714Y-9787143D01*
X5204762Y-9787143D01*
X5271429Y-9920476D02*
X5271429Y-9787143D01*
X5271429Y-9720476D02*
X5261905Y-9730000D01*
X5271429Y-9739524D01*
X5280952Y-9730000D01*
X5271429Y-9720476D01*
X5271429Y-9739524D01*
X5395238Y-9920476D02*
X5376190Y-9910952D01*
X5366667Y-9891905D01*
X5366667Y-9720476D01*
X5500000Y-9920476D02*
X5480952Y-9910952D01*
X5471429Y-9891905D01*
X5471429Y-9720476D01*
X5728571Y-9920476D02*
X5728571Y-9720476D01*
X5795238Y-9863333D01*
X5861905Y-9720476D01*
X5861905Y-9920476D01*
X6042857Y-9920476D02*
X6042857Y-9815714D01*
X6033333Y-9796667D01*
X6014286Y-9787143D01*
X5976190Y-9787143D01*
X5957143Y-9796667D01*
X6042857Y-9910952D02*
X6023809Y-9920476D01*
X5976190Y-9920476D01*
X5957143Y-9910952D01*
X5947619Y-9891905D01*
X5947619Y-9872857D01*
X5957143Y-9853810D01*
X5976190Y-9844286D01*
X6023809Y-9844286D01*
X6042857Y-9834762D01*
X6138095Y-9787143D02*
X6138095Y-9987143D01*
X6138095Y-9796667D02*
X6157143Y-9787143D01*
X6195238Y-9787143D01*
X6214286Y-9796667D01*
X6223809Y-9806190D01*
X6233333Y-9825238D01*
X6233333Y-9882381D01*
X6223809Y-9901429D01*
X6214286Y-9910952D01*
X6195238Y-9920476D01*
X6157143Y-9920476D01*
X6138095Y-9910952D01*
X6319048Y-9901429D02*
X6328571Y-9910952D01*
X6319048Y-9920476D01*
X6309524Y-9910952D01*
X6319048Y-9901429D01*
X6319048Y-9920476D01*
X6319048Y-9796667D02*
X6328571Y-9806190D01*
X6319048Y-9815714D01*
X6309524Y-9806190D01*
X6319048Y-9796667D01*
X6319048Y-9815714D01*
X4490000Y-10150000D02*
X4690000Y-10350000D01*
X4690000Y-10150000D02*
X4490000Y-10350000D01*
X4938095Y-10159524D02*
X4947619Y-10150000D01*
X4966667Y-10140476D01*
X5014286Y-10140476D01*
X5033333Y-10150000D01*
X5042857Y-10159524D01*
X5052381Y-10178571D01*
X5052381Y-10197619D01*
X5042857Y-10226190D01*
X4928571Y-10340476D01*
X5052381Y-10340476D01*
X5138095Y-10321429D02*
X5147619Y-10330952D01*
X5138095Y-10340476D01*
X5128571Y-10330952D01*
X5138095Y-10321429D01*
X5138095Y-10340476D01*
X5214286Y-10140476D02*
X5347619Y-10140476D01*
X5261905Y-10340476D01*
X5519048Y-10140476D02*
X5423810Y-10140476D01*
X5414286Y-10235714D01*
X5423810Y-10226190D01*
X5442857Y-10216667D01*
X5490476Y-10216667D01*
X5509524Y-10226190D01*
X5519048Y-10235714D01*
X5528571Y-10254762D01*
X5528571Y-10302381D01*
X5519048Y-10321429D01*
X5509524Y-10330952D01*
X5490476Y-10340476D01*
X5442857Y-10340476D01*
X5423810Y-10330952D01*
X5414286Y-10321429D01*
X5652381Y-10140476D02*
X5671428Y-10140476D01*
X5690476Y-10150000D01*
X5700000Y-10159524D01*
X5709524Y-10178571D01*
X5719048Y-10216667D01*
X5719048Y-10264286D01*
X5709524Y-10302381D01*
X5700000Y-10321429D01*
X5690476Y-10330952D01*
X5671428Y-10340476D01*
X5652381Y-10340476D01*
X5633333Y-10330952D01*
X5623809Y-10321429D01*
X5614286Y-10302381D01*
X5604762Y-10264286D01*
X5604762Y-10216667D01*
X5614286Y-10178571D01*
X5623809Y-10159524D01*
X5633333Y-10150000D01*
X5652381Y-10140476D01*
X5804762Y-10340476D02*
X5804762Y-10207143D01*
X5804762Y-10226190D02*
X5814286Y-10216667D01*
X5833333Y-10207143D01*
X5861905Y-10207143D01*
X5880952Y-10216667D01*
X5890476Y-10235714D01*
X5890476Y-10340476D01*
X5890476Y-10235714D02*
X5900000Y-10216667D01*
X5919048Y-10207143D01*
X5947619Y-10207143D01*
X5966667Y-10216667D01*
X5976190Y-10235714D01*
X5976190Y-10340476D01*
X6071428Y-10340476D02*
X6071428Y-10207143D01*
X6071428Y-10226190D02*
X6080952Y-10216667D01*
X6100000Y-10207143D01*
X6128571Y-10207143D01*
X6147619Y-10216667D01*
X6157143Y-10235714D01*
X6157143Y-10340476D01*
X6157143Y-10235714D02*
X6166667Y-10216667D01*
X6185714Y-10207143D01*
X6214286Y-10207143D01*
X6233333Y-10216667D01*
X6242857Y-10235714D01*
X6242857Y-10340476D01*
X6633333Y-10130952D02*
X6461905Y-10388095D01*
X6890476Y-10140476D02*
X6909524Y-10140476D01*
X6928571Y-10150000D01*
X6938095Y-10159524D01*
X6947619Y-10178571D01*
X6957143Y-10216667D01*
X6957143Y-10264286D01*
X6947619Y-10302381D01*
X6938095Y-10321429D01*
X6928571Y-10330952D01*
X6909524Y-10340476D01*
X6890476Y-10340476D01*
X6871428Y-10330952D01*
X6861905Y-10321429D01*
X6852381Y-10302381D01*
X6842857Y-10264286D01*
X6842857Y-10216667D01*
X6852381Y-10178571D01*
X6861905Y-10159524D01*
X6871428Y-10150000D01*
X6890476Y-10140476D01*
X7042857Y-10321429D02*
X7052381Y-10330952D01*
X7042857Y-10340476D01*
X7033333Y-10330952D01*
X7042857Y-10321429D01*
X7042857Y-10340476D01*
X7242857Y-10340476D02*
X7128571Y-10340476D01*
X7185714Y-10340476D02*
X7185714Y-10140476D01*
X7166667Y-10169048D01*
X7147619Y-10188095D01*
X7128571Y-10197619D01*
X7366667Y-10140476D02*
X7385714Y-10140476D01*
X7404762Y-10150000D01*
X7414286Y-10159524D01*
X7423809Y-10178571D01*
X7433333Y-10216667D01*
X7433333Y-10264286D01*
X7423809Y-10302381D01*
X7414286Y-10321429D01*
X7404762Y-10330952D01*
X7385714Y-10340476D01*
X7366667Y-10340476D01*
X7347619Y-10330952D01*
X7338095Y-10321429D01*
X7328571Y-10302381D01*
X7319048Y-10264286D01*
X7319048Y-10216667D01*
X7328571Y-10178571D01*
X7338095Y-10159524D01*
X7347619Y-10150000D01*
X7366667Y-10140476D01*
X7547619Y-10226190D02*
X7528571Y-10216667D01*
X7519048Y-10207143D01*
X7509524Y-10188095D01*
X7509524Y-10178571D01*
X7519048Y-10159524D01*
X7528571Y-10150000D01*
X7547619Y-10140476D01*
X7585714Y-10140476D01*
X7604762Y-10150000D01*
X7614286Y-10159524D01*
X7623809Y-10178571D01*
X7623809Y-10188095D01*
X7614286Y-10207143D01*
X7604762Y-10216667D01*
X7585714Y-10226190D01*
X7547619Y-10226190D01*
X7528571Y-10235714D01*
X7519048Y-10245238D01*
X7509524Y-10264286D01*
X7509524Y-10302381D01*
X7519048Y-10321429D01*
X7528571Y-10330952D01*
X7547619Y-10340476D01*
X7585714Y-10340476D01*
X7604762Y-10330952D01*
X7614286Y-10321429D01*
X7623809Y-10302381D01*
X7623809Y-10264286D01*
X7614286Y-10245238D01*
X7604762Y-10235714D01*
X7585714Y-10226190D01*
X7690476Y-10140476D02*
X7814286Y-10140476D01*
X7747619Y-10216667D01*
X7776190Y-10216667D01*
X7795238Y-10226190D01*
X7804762Y-10235714D01*
X7814286Y-10254762D01*
X7814286Y-10302381D01*
X7804762Y-10321429D01*
X7795238Y-10330952D01*
X7776190Y-10340476D01*
X7719048Y-10340476D01*
X7700000Y-10330952D01*
X7690476Y-10321429D01*
X7890476Y-10140476D02*
X7890476Y-10178571D01*
X7966667Y-10140476D02*
X7966667Y-10178571D01*
X8261905Y-10416667D02*
X8252381Y-10407143D01*
X8233333Y-10378571D01*
X8223809Y-10359524D01*
X8214286Y-10330952D01*
X8204762Y-10283333D01*
X8204762Y-10245238D01*
X8214286Y-10197619D01*
X8223809Y-10169048D01*
X8233333Y-10150000D01*
X8252381Y-10121429D01*
X8261905Y-10111905D01*
X8328571Y-10159524D02*
X8338095Y-10150000D01*
X8357143Y-10140476D01*
X8404762Y-10140476D01*
X8423810Y-10150000D01*
X8433333Y-10159524D01*
X8442857Y-10178571D01*
X8442857Y-10197619D01*
X8433333Y-10226190D01*
X8319048Y-10340476D01*
X8442857Y-10340476D01*
X8680952Y-10340476D02*
X8680952Y-10140476D01*
X8766667Y-10340476D02*
X8766667Y-10235714D01*
X8757143Y-10216667D01*
X8738095Y-10207143D01*
X8709524Y-10207143D01*
X8690476Y-10216667D01*
X8680952Y-10226190D01*
X8890476Y-10340476D02*
X8871429Y-10330952D01*
X8861905Y-10321429D01*
X8852381Y-10302381D01*
X8852381Y-10245238D01*
X8861905Y-10226190D01*
X8871429Y-10216667D01*
X8890476Y-10207143D01*
X8919048Y-10207143D01*
X8938095Y-10216667D01*
X8947619Y-10226190D01*
X8957143Y-10245238D01*
X8957143Y-10302381D01*
X8947619Y-10321429D01*
X8938095Y-10330952D01*
X8919048Y-10340476D01*
X8890476Y-10340476D01*
X9071429Y-10340476D02*
X9052381Y-10330952D01*
X9042857Y-10311905D01*
X9042857Y-10140476D01*
X9223810Y-10330952D02*
X9204762Y-10340476D01*
X9166667Y-10340476D01*
X9147619Y-10330952D01*
X9138095Y-10311905D01*
X9138095Y-10235714D01*
X9147619Y-10216667D01*
X9166667Y-10207143D01*
X9204762Y-10207143D01*
X9223810Y-10216667D01*
X9233333Y-10235714D01*
X9233333Y-10254762D01*
X9138095Y-10273810D01*
X9309524Y-10330952D02*
X9328571Y-10340476D01*
X9366667Y-10340476D01*
X9385714Y-10330952D01*
X9395238Y-10311905D01*
X9395238Y-10302381D01*
X9385714Y-10283333D01*
X9366667Y-10273810D01*
X9338095Y-10273810D01*
X9319048Y-10264286D01*
X9309524Y-10245238D01*
X9309524Y-10235714D01*
X9319048Y-10216667D01*
X9338095Y-10207143D01*
X9366667Y-10207143D01*
X9385714Y-10216667D01*
X9461905Y-10416667D02*
X9471429Y-10407143D01*
X9490476Y-10378571D01*
X9500000Y-10359524D01*
X9509524Y-10330952D01*
X9519048Y-10283333D01*
X9519048Y-10245238D01*
X9509524Y-10197619D01*
X9500000Y-10169048D01*
X9490476Y-10150000D01*
X9471429Y-10121429D01*
X9461905Y-10111905D01*
X9823810Y-10416667D02*
X9814286Y-10407143D01*
X9795238Y-10378571D01*
X9785714Y-10359524D01*
X9776190Y-10330952D01*
X9766667Y-10283333D01*
X9766667Y-10245238D01*
X9776190Y-10197619D01*
X9785714Y-10169048D01*
X9795238Y-10150000D01*
X9814286Y-10121429D01*
X9823810Y-10111905D01*
X9900000Y-10207143D02*
X9900000Y-10340476D01*
X9900000Y-10226190D02*
X9909524Y-10216667D01*
X9928571Y-10207143D01*
X9957143Y-10207143D01*
X9976190Y-10216667D01*
X9985714Y-10235714D01*
X9985714Y-10340476D01*
X10109524Y-10340476D02*
X10090476Y-10330952D01*
X10080952Y-10321429D01*
X10071429Y-10302381D01*
X10071429Y-10245238D01*
X10080952Y-10226190D01*
X10090476Y-10216667D01*
X10109524Y-10207143D01*
X10138095Y-10207143D01*
X10157143Y-10216667D01*
X10166667Y-10226190D01*
X10176190Y-10245238D01*
X10176190Y-10302381D01*
X10166667Y-10321429D01*
X10157143Y-10330952D01*
X10138095Y-10340476D01*
X10109524Y-10340476D01*
X10233333Y-10207143D02*
X10309524Y-10207143D01*
X10261905Y-10140476D02*
X10261905Y-10311905D01*
X10271429Y-10330952D01*
X10290476Y-10340476D01*
X10309524Y-10340476D01*
X10528571Y-10207143D02*
X10528571Y-10407143D01*
X10528571Y-10216667D02*
X10547619Y-10207143D01*
X10585714Y-10207143D01*
X10604762Y-10216667D01*
X10614286Y-10226190D01*
X10623810Y-10245238D01*
X10623810Y-10302381D01*
X10614286Y-10321429D01*
X10604762Y-10330952D01*
X10585714Y-10340476D01*
X10547619Y-10340476D01*
X10528571Y-10330952D01*
X10738095Y-10340476D02*
X10719048Y-10330952D01*
X10709524Y-10311905D01*
X10709524Y-10140476D01*
X10900000Y-10340476D02*
X10900000Y-10235714D01*
X10890476Y-10216667D01*
X10871429Y-10207143D01*
X10833333Y-10207143D01*
X10814286Y-10216667D01*
X10900000Y-10330952D02*
X10880952Y-10340476D01*
X10833333Y-10340476D01*
X10814286Y-10330952D01*
X10804762Y-10311905D01*
X10804762Y-10292857D01*
X10814286Y-10273810D01*
X10833333Y-10264286D01*
X10880952Y-10264286D01*
X10900000Y-10254762D01*
X10966667Y-10207143D02*
X11042857Y-10207143D01*
X10995238Y-10140476D02*
X10995238Y-10311905D01*
X11004762Y-10330952D01*
X11023810Y-10340476D01*
X11042857Y-10340476D01*
X11185714Y-10330952D02*
X11166667Y-10340476D01*
X11128571Y-10340476D01*
X11109524Y-10330952D01*
X11100000Y-10311905D01*
X11100000Y-10235714D01*
X11109524Y-10216667D01*
X11128571Y-10207143D01*
X11166667Y-10207143D01*
X11185714Y-10216667D01*
X11195238Y-10235714D01*
X11195238Y-10254762D01*
X11100000Y-10273810D01*
X11366667Y-10340476D02*
X11366667Y-10140476D01*
X11366667Y-10330952D02*
X11347619Y-10340476D01*
X11309524Y-10340476D01*
X11290476Y-10330952D01*
X11280952Y-10321429D01*
X11271428Y-10302381D01*
X11271428Y-10245238D01*
X11280952Y-10226190D01*
X11290476Y-10216667D01*
X11309524Y-10207143D01*
X11347619Y-10207143D01*
X11366667Y-10216667D01*
X11442857Y-10416667D02*
X11452381Y-10407143D01*
X11471428Y-10378571D01*
X11480952Y-10359524D01*
X11490476Y-10330952D01*
X11500000Y-10283333D01*
X11500000Y-10245238D01*
X11490476Y-10197619D01*
X11480952Y-10169048D01*
X11471428Y-10150000D01*
X11452381Y-10121429D01*
X11442857Y-10111905D01*
M02*
