%FSLAX45Y45*%
G04 Gerber Fmt 4.5, Leading zero omitted, Abs format (unit mm)*
G04 Created by KiCad (PCBNEW (6.0.2)) date 2022-07-07 22:01:21*
%MOMM*%
%LPD*%
G01*
G04 APERTURE LIST*
%TA.AperFunction,Profile*%
%ADD10C,0.200000*%
%TD*%
%ADD11C,0.200000*%
%ADD12C,0.030000*%
%ADD13C,0.100000*%
G04 APERTURE END LIST*
D10*
X4900000Y-9600000D02*
X11300000Y-9600000D01*
X4900000Y-4500000D02*
X11300000Y-4500000D01*
X4900000Y-4500000D02*
G75*
G03*
X4700000Y-4700000I0J-200000D01*
G01*
X4700000Y-4700000D02*
X4700000Y-9400000D01*
X11300000Y-9600000D02*
G75*
G03*
X11500000Y-9400000I0J200000D01*
G01*
X11500000Y-4700000D02*
G75*
G03*
X11300000Y-4500000I-200000J0D01*
G01*
X11500000Y-4700000D02*
X11500000Y-9400000D01*
X4700000Y-9400000D02*
G75*
G03*
X4900000Y-9600000I200000J0D01*
G01*
D11*
D12*
X5293750Y-6693750D02*
X5323750Y-6723750D01*
X5323750Y-6693750D02*
X5293750Y-6723750D01*
X6776250Y-6693750D02*
X6806250Y-6723750D01*
X6806250Y-6693750D02*
X6776250Y-6723750D01*
X7385000Y-8085000D02*
X7415000Y-8115000D01*
X7415000Y-8085000D02*
X7385000Y-8115000D01*
X7385000Y-8485000D02*
X7415000Y-8515000D01*
X7415000Y-8485000D02*
X7385000Y-8515000D01*
X9085000Y-5635000D02*
X9115000Y-5665000D01*
X9115000Y-5635000D02*
X9085000Y-5665000D01*
X9135000Y-5835000D02*
X9165000Y-5865000D01*
X9165000Y-5835000D02*
X9135000Y-5865000D01*
X9235000Y-5835000D02*
X9265000Y-5865000D01*
X9265000Y-5835000D02*
X9235000Y-5865000D01*
X10185000Y-5635000D02*
X10215000Y-5665000D01*
X10215000Y-5635000D02*
X10185000Y-5665000D01*
X10185000Y-7635000D02*
X10215000Y-7665000D01*
X10215000Y-7635000D02*
X10185000Y-7665000D01*
X10185000Y-8635000D02*
X10215000Y-8665000D01*
X10215000Y-8635000D02*
X10185000Y-8665000D01*
X10285000Y-7635000D02*
X10315000Y-7665000D01*
X10315000Y-7635000D02*
X10285000Y-7665000D01*
X10285000Y-8635000D02*
X10315000Y-8665000D01*
X10315000Y-8635000D02*
X10285000Y-8665000D01*
D13*
X5737000Y-5048000D02*
G75*
G03*
X5737000Y-5048000I-50000J0D01*
G01*
X5737000Y-5302000D02*
G75*
G03*
X5737000Y-5302000I-50000J0D01*
G01*
X5991000Y-5048000D02*
G75*
G03*
X5991000Y-5048000I-50000J0D01*
G01*
X5991000Y-5302000D02*
G75*
G03*
X5991000Y-5302000I-50000J0D01*
G01*
X6245000Y-5048000D02*
G75*
G03*
X6245000Y-5048000I-50000J0D01*
G01*
X6245000Y-5302000D02*
G75*
G03*
X6245000Y-5302000I-50000J0D01*
G01*
X6499000Y-5048000D02*
G75*
G03*
X6499000Y-5048000I-50000J0D01*
G01*
X6499000Y-5302000D02*
G75*
G03*
X6499000Y-5302000I-50000J0D01*
G01*
X6753000Y-5048000D02*
G75*
G03*
X6753000Y-5048000I-50000J0D01*
G01*
X6753000Y-5302000D02*
G75*
G03*
X6753000Y-5302000I-50000J0D01*
G01*
X7007000Y-5048000D02*
G75*
G03*
X7007000Y-5048000I-50000J0D01*
G01*
X7007000Y-5302000D02*
G75*
G03*
X7007000Y-5302000I-50000J0D01*
G01*
X7261000Y-5048000D02*
G75*
G03*
X7261000Y-5048000I-50000J0D01*
G01*
X7261000Y-5302000D02*
G75*
G03*
X7261000Y-5302000I-50000J0D01*
G01*
X7515000Y-5048000D02*
G75*
G03*
X7515000Y-5048000I-50000J0D01*
G01*
X7515000Y-5302000D02*
G75*
G03*
X7515000Y-5302000I-50000J0D01*
G01*
X7757520Y-7514500D02*
G75*
G03*
X7757520Y-7514500I-50000J0D01*
G01*
X7757520Y-7768500D02*
G75*
G03*
X7757520Y-7768500I-50000J0D01*
G01*
X7757520Y-8022500D02*
G75*
G03*
X7757520Y-8022500I-50000J0D01*
G01*
X7757520Y-8276500D02*
G75*
G03*
X7757520Y-8276500I-50000J0D01*
G01*
X7757520Y-8530500D02*
G75*
G03*
X7757520Y-8530500I-50000J0D01*
G01*
X7757520Y-8784500D02*
G75*
G03*
X7757520Y-8784500I-50000J0D01*
G01*
X7757520Y-9038500D02*
G75*
G03*
X7757520Y-9038500I-50000J0D01*
G01*
X7769000Y-5048000D02*
G75*
G03*
X7769000Y-5048000I-50000J0D01*
G01*
X7769000Y-5302000D02*
G75*
G03*
X7769000Y-5302000I-50000J0D01*
G01*
X8011520Y-7514500D02*
G75*
G03*
X8011520Y-7514500I-50000J0D01*
G01*
X8011520Y-7768500D02*
G75*
G03*
X8011520Y-7768500I-50000J0D01*
G01*
X8011520Y-8022500D02*
G75*
G03*
X8011520Y-8022500I-50000J0D01*
G01*
X8011520Y-8276500D02*
G75*
G03*
X8011520Y-8276500I-50000J0D01*
G01*
X8011520Y-8530500D02*
G75*
G03*
X8011520Y-8530500I-50000J0D01*
G01*
X8011520Y-8784500D02*
G75*
G03*
X8011520Y-8784500I-50000J0D01*
G01*
X8011520Y-9038500D02*
G75*
G03*
X8011520Y-9038500I-50000J0D01*
G01*
X8023000Y-5048000D02*
G75*
G03*
X8023000Y-5048000I-50000J0D01*
G01*
X8023000Y-5302000D02*
G75*
G03*
X8023000Y-5302000I-50000J0D01*
G01*
X8277000Y-5048000D02*
G75*
G03*
X8277000Y-5048000I-50000J0D01*
G01*
X8277000Y-5302000D02*
G75*
G03*
X8277000Y-5302000I-50000J0D01*
G01*
X8531000Y-5048000D02*
G75*
G03*
X8531000Y-5048000I-50000J0D01*
G01*
X8531000Y-5302000D02*
G75*
G03*
X8531000Y-5302000I-50000J0D01*
G01*
X8785000Y-5048000D02*
G75*
G03*
X8785000Y-5048000I-50000J0D01*
G01*
X8785000Y-5302000D02*
G75*
G03*
X8785000Y-5302000I-50000J0D01*
G01*
X9039000Y-5048000D02*
G75*
G03*
X9039000Y-5048000I-50000J0D01*
G01*
X9039000Y-5302000D02*
G75*
G03*
X9039000Y-5302000I-50000J0D01*
G01*
X9293000Y-5048000D02*
G75*
G03*
X9293000Y-5048000I-50000J0D01*
G01*
X9293000Y-5302000D02*
G75*
G03*
X9293000Y-5302000I-50000J0D01*
G01*
X9547000Y-5048000D02*
G75*
G03*
X9547000Y-5048000I-50000J0D01*
G01*
X9547000Y-5302000D02*
G75*
G03*
X9547000Y-5302000I-50000J0D01*
G01*
X9801000Y-5048000D02*
G75*
G03*
X9801000Y-5048000I-50000J0D01*
G01*
X9801000Y-5302000D02*
G75*
G03*
X9801000Y-5302000I-50000J0D01*
G01*
X10055000Y-5048000D02*
G75*
G03*
X10055000Y-5048000I-50000J0D01*
G01*
X10055000Y-5302000D02*
G75*
G03*
X10055000Y-5302000I-50000J0D01*
G01*
X10309000Y-5048000D02*
G75*
G03*
X10309000Y-5048000I-50000J0D01*
G01*
X10309000Y-5302000D02*
G75*
G03*
X10309000Y-5302000I-50000J0D01*
G01*
X10563000Y-5048000D02*
G75*
G03*
X10563000Y-5048000I-50000J0D01*
G01*
X10563000Y-5302000D02*
G75*
G03*
X10563000Y-5302000I-50000J0D01*
G01*
X10996020Y-7260500D02*
G75*
G03*
X10996020Y-7260500I-50000J0D01*
G01*
X10996020Y-7514500D02*
G75*
G03*
X10996020Y-7514500I-50000J0D01*
G01*
X10996020Y-7768500D02*
G75*
G03*
X10996020Y-7768500I-50000J0D01*
G01*
X10996020Y-8022500D02*
G75*
G03*
X10996020Y-8022500I-50000J0D01*
G01*
X10996020Y-8276500D02*
G75*
G03*
X10996020Y-8276500I-50000J0D01*
G01*
X10996020Y-8530500D02*
G75*
G03*
X10996020Y-8530500I-50000J0D01*
G01*
X10996020Y-8800248D02*
G75*
G03*
X10996020Y-8800248I-50000J0D01*
G01*
X10996020Y-9054248D02*
G75*
G03*
X10996020Y-9054248I-50000J0D01*
G01*
D11*
X4947619Y-9920476D02*
X4947619Y-9720476D01*
X4995238Y-9720476D01*
X5023810Y-9730000D01*
X5042857Y-9749048D01*
X5052381Y-9768095D01*
X5061905Y-9806190D01*
X5061905Y-9834762D01*
X5052381Y-9872857D01*
X5042857Y-9891905D01*
X5023810Y-9910952D01*
X4995238Y-9920476D01*
X4947619Y-9920476D01*
X5147619Y-9920476D02*
X5147619Y-9787143D01*
X5147619Y-9825238D02*
X5157143Y-9806190D01*
X5166667Y-9796667D01*
X5185714Y-9787143D01*
X5204762Y-9787143D01*
X5271429Y-9920476D02*
X5271429Y-9787143D01*
X5271429Y-9720476D02*
X5261905Y-9730000D01*
X5271429Y-9739524D01*
X5280952Y-9730000D01*
X5271429Y-9720476D01*
X5271429Y-9739524D01*
X5395238Y-9920476D02*
X5376190Y-9910952D01*
X5366667Y-9891905D01*
X5366667Y-9720476D01*
X5500000Y-9920476D02*
X5480952Y-9910952D01*
X5471429Y-9891905D01*
X5471429Y-9720476D01*
X5728571Y-9920476D02*
X5728571Y-9720476D01*
X5795238Y-9863333D01*
X5861905Y-9720476D01*
X5861905Y-9920476D01*
X6042857Y-9920476D02*
X6042857Y-9815714D01*
X6033333Y-9796667D01*
X6014286Y-9787143D01*
X5976190Y-9787143D01*
X5957143Y-9796667D01*
X6042857Y-9910952D02*
X6023809Y-9920476D01*
X5976190Y-9920476D01*
X5957143Y-9910952D01*
X5947619Y-9891905D01*
X5947619Y-9872857D01*
X5957143Y-9853810D01*
X5976190Y-9844286D01*
X6023809Y-9844286D01*
X6042857Y-9834762D01*
X6138095Y-9787143D02*
X6138095Y-9987143D01*
X6138095Y-9796667D02*
X6157143Y-9787143D01*
X6195238Y-9787143D01*
X6214286Y-9796667D01*
X6223809Y-9806190D01*
X6233333Y-9825238D01*
X6233333Y-9882381D01*
X6223809Y-9901429D01*
X6214286Y-9910952D01*
X6195238Y-9920476D01*
X6157143Y-9920476D01*
X6138095Y-9910952D01*
X6319048Y-9901429D02*
X6328571Y-9910952D01*
X6319048Y-9920476D01*
X6309524Y-9910952D01*
X6319048Y-9901429D01*
X6319048Y-9920476D01*
X6319048Y-9796667D02*
X6328571Y-9806190D01*
X6319048Y-9815714D01*
X6309524Y-9806190D01*
X6319048Y-9796667D01*
X6319048Y-9815714D01*
D12*
X4660000Y-10235000D02*
X4690000Y-10265000D01*
X4690000Y-10235000D02*
X4660000Y-10265000D01*
D11*
X4985714Y-10140476D02*
X5004762Y-10140476D01*
X5023810Y-10150000D01*
X5033333Y-10159524D01*
X5042857Y-10178571D01*
X5052381Y-10216667D01*
X5052381Y-10264286D01*
X5042857Y-10302381D01*
X5033333Y-10321429D01*
X5023810Y-10330952D01*
X5004762Y-10340476D01*
X4985714Y-10340476D01*
X4966667Y-10330952D01*
X4957143Y-10321429D01*
X4947619Y-10302381D01*
X4938095Y-10264286D01*
X4938095Y-10216667D01*
X4947619Y-10178571D01*
X4957143Y-10159524D01*
X4966667Y-10150000D01*
X4985714Y-10140476D01*
X5138095Y-10321429D02*
X5147619Y-10330952D01*
X5138095Y-10340476D01*
X5128571Y-10330952D01*
X5138095Y-10321429D01*
X5138095Y-10340476D01*
X5214286Y-10140476D02*
X5338095Y-10140476D01*
X5271429Y-10216667D01*
X5300000Y-10216667D01*
X5319048Y-10226190D01*
X5328571Y-10235714D01*
X5338095Y-10254762D01*
X5338095Y-10302381D01*
X5328571Y-10321429D01*
X5319048Y-10330952D01*
X5300000Y-10340476D01*
X5242857Y-10340476D01*
X5223810Y-10330952D01*
X5214286Y-10321429D01*
X5461905Y-10140476D02*
X5480952Y-10140476D01*
X5500000Y-10150000D01*
X5509524Y-10159524D01*
X5519048Y-10178571D01*
X5528571Y-10216667D01*
X5528571Y-10264286D01*
X5519048Y-10302381D01*
X5509524Y-10321429D01*
X5500000Y-10330952D01*
X5480952Y-10340476D01*
X5461905Y-10340476D01*
X5442857Y-10330952D01*
X5433333Y-10321429D01*
X5423810Y-10302381D01*
X5414286Y-10264286D01*
X5414286Y-10216667D01*
X5423810Y-10178571D01*
X5433333Y-10159524D01*
X5442857Y-10150000D01*
X5461905Y-10140476D01*
X5652381Y-10140476D02*
X5671428Y-10140476D01*
X5690476Y-10150000D01*
X5700000Y-10159524D01*
X5709524Y-10178571D01*
X5719048Y-10216667D01*
X5719048Y-10264286D01*
X5709524Y-10302381D01*
X5700000Y-10321429D01*
X5690476Y-10330952D01*
X5671428Y-10340476D01*
X5652381Y-10340476D01*
X5633333Y-10330952D01*
X5623809Y-10321429D01*
X5614286Y-10302381D01*
X5604762Y-10264286D01*
X5604762Y-10216667D01*
X5614286Y-10178571D01*
X5623809Y-10159524D01*
X5633333Y-10150000D01*
X5652381Y-10140476D01*
X5804762Y-10340476D02*
X5804762Y-10207143D01*
X5804762Y-10226190D02*
X5814286Y-10216667D01*
X5833333Y-10207143D01*
X5861905Y-10207143D01*
X5880952Y-10216667D01*
X5890476Y-10235714D01*
X5890476Y-10340476D01*
X5890476Y-10235714D02*
X5900000Y-10216667D01*
X5919048Y-10207143D01*
X5947619Y-10207143D01*
X5966667Y-10216667D01*
X5976190Y-10235714D01*
X5976190Y-10340476D01*
X6071428Y-10340476D02*
X6071428Y-10207143D01*
X6071428Y-10226190D02*
X6080952Y-10216667D01*
X6100000Y-10207143D01*
X6128571Y-10207143D01*
X6147619Y-10216667D01*
X6157143Y-10235714D01*
X6157143Y-10340476D01*
X6157143Y-10235714D02*
X6166667Y-10216667D01*
X6185714Y-10207143D01*
X6214286Y-10207143D01*
X6233333Y-10216667D01*
X6242857Y-10235714D01*
X6242857Y-10340476D01*
X6633333Y-10130952D02*
X6461905Y-10388095D01*
X6890476Y-10140476D02*
X6909524Y-10140476D01*
X6928571Y-10150000D01*
X6938095Y-10159524D01*
X6947619Y-10178571D01*
X6957143Y-10216667D01*
X6957143Y-10264286D01*
X6947619Y-10302381D01*
X6938095Y-10321429D01*
X6928571Y-10330952D01*
X6909524Y-10340476D01*
X6890476Y-10340476D01*
X6871428Y-10330952D01*
X6861905Y-10321429D01*
X6852381Y-10302381D01*
X6842857Y-10264286D01*
X6842857Y-10216667D01*
X6852381Y-10178571D01*
X6861905Y-10159524D01*
X6871428Y-10150000D01*
X6890476Y-10140476D01*
X7042857Y-10321429D02*
X7052381Y-10330952D01*
X7042857Y-10340476D01*
X7033333Y-10330952D01*
X7042857Y-10321429D01*
X7042857Y-10340476D01*
X7176190Y-10140476D02*
X7195238Y-10140476D01*
X7214286Y-10150000D01*
X7223809Y-10159524D01*
X7233333Y-10178571D01*
X7242857Y-10216667D01*
X7242857Y-10264286D01*
X7233333Y-10302381D01*
X7223809Y-10321429D01*
X7214286Y-10330952D01*
X7195238Y-10340476D01*
X7176190Y-10340476D01*
X7157143Y-10330952D01*
X7147619Y-10321429D01*
X7138095Y-10302381D01*
X7128571Y-10264286D01*
X7128571Y-10216667D01*
X7138095Y-10178571D01*
X7147619Y-10159524D01*
X7157143Y-10150000D01*
X7176190Y-10140476D01*
X7433333Y-10340476D02*
X7319048Y-10340476D01*
X7376190Y-10340476D02*
X7376190Y-10140476D01*
X7357143Y-10169048D01*
X7338095Y-10188095D01*
X7319048Y-10197619D01*
X7623809Y-10340476D02*
X7509524Y-10340476D01*
X7566667Y-10340476D02*
X7566667Y-10140476D01*
X7547619Y-10169048D01*
X7528571Y-10188095D01*
X7509524Y-10197619D01*
X7738095Y-10226190D02*
X7719048Y-10216667D01*
X7709524Y-10207143D01*
X7700000Y-10188095D01*
X7700000Y-10178571D01*
X7709524Y-10159524D01*
X7719048Y-10150000D01*
X7738095Y-10140476D01*
X7776190Y-10140476D01*
X7795238Y-10150000D01*
X7804762Y-10159524D01*
X7814286Y-10178571D01*
X7814286Y-10188095D01*
X7804762Y-10207143D01*
X7795238Y-10216667D01*
X7776190Y-10226190D01*
X7738095Y-10226190D01*
X7719048Y-10235714D01*
X7709524Y-10245238D01*
X7700000Y-10264286D01*
X7700000Y-10302381D01*
X7709524Y-10321429D01*
X7719048Y-10330952D01*
X7738095Y-10340476D01*
X7776190Y-10340476D01*
X7795238Y-10330952D01*
X7804762Y-10321429D01*
X7814286Y-10302381D01*
X7814286Y-10264286D01*
X7804762Y-10245238D01*
X7795238Y-10235714D01*
X7776190Y-10226190D01*
X7890476Y-10140476D02*
X7890476Y-10178571D01*
X7966667Y-10140476D02*
X7966667Y-10178571D01*
X8261905Y-10416667D02*
X8252381Y-10407143D01*
X8233333Y-10378571D01*
X8223809Y-10359524D01*
X8214286Y-10330952D01*
X8204762Y-10283333D01*
X8204762Y-10245238D01*
X8214286Y-10197619D01*
X8223809Y-10169048D01*
X8233333Y-10150000D01*
X8252381Y-10121429D01*
X8261905Y-10111905D01*
X8442857Y-10340476D02*
X8328571Y-10340476D01*
X8385714Y-10340476D02*
X8385714Y-10140476D01*
X8366667Y-10169048D01*
X8347619Y-10188095D01*
X8328571Y-10197619D01*
X8519048Y-10159524D02*
X8528571Y-10150000D01*
X8547619Y-10140476D01*
X8595238Y-10140476D01*
X8614286Y-10150000D01*
X8623810Y-10159524D01*
X8633333Y-10178571D01*
X8633333Y-10197619D01*
X8623810Y-10226190D01*
X8509524Y-10340476D01*
X8633333Y-10340476D01*
X8871429Y-10340476D02*
X8871429Y-10140476D01*
X8957143Y-10340476D02*
X8957143Y-10235714D01*
X8947619Y-10216667D01*
X8928571Y-10207143D01*
X8900000Y-10207143D01*
X8880952Y-10216667D01*
X8871429Y-10226190D01*
X9080952Y-10340476D02*
X9061905Y-10330952D01*
X9052381Y-10321429D01*
X9042857Y-10302381D01*
X9042857Y-10245238D01*
X9052381Y-10226190D01*
X9061905Y-10216667D01*
X9080952Y-10207143D01*
X9109524Y-10207143D01*
X9128571Y-10216667D01*
X9138095Y-10226190D01*
X9147619Y-10245238D01*
X9147619Y-10302381D01*
X9138095Y-10321429D01*
X9128571Y-10330952D01*
X9109524Y-10340476D01*
X9080952Y-10340476D01*
X9261905Y-10340476D02*
X9242857Y-10330952D01*
X9233333Y-10311905D01*
X9233333Y-10140476D01*
X9414286Y-10330952D02*
X9395238Y-10340476D01*
X9357143Y-10340476D01*
X9338095Y-10330952D01*
X9328571Y-10311905D01*
X9328571Y-10235714D01*
X9338095Y-10216667D01*
X9357143Y-10207143D01*
X9395238Y-10207143D01*
X9414286Y-10216667D01*
X9423810Y-10235714D01*
X9423810Y-10254762D01*
X9328571Y-10273810D01*
X9500000Y-10330952D02*
X9519048Y-10340476D01*
X9557143Y-10340476D01*
X9576190Y-10330952D01*
X9585714Y-10311905D01*
X9585714Y-10302381D01*
X9576190Y-10283333D01*
X9557143Y-10273810D01*
X9528571Y-10273810D01*
X9509524Y-10264286D01*
X9500000Y-10245238D01*
X9500000Y-10235714D01*
X9509524Y-10216667D01*
X9528571Y-10207143D01*
X9557143Y-10207143D01*
X9576190Y-10216667D01*
X9652381Y-10416667D02*
X9661905Y-10407143D01*
X9680952Y-10378571D01*
X9690476Y-10359524D01*
X9700000Y-10330952D01*
X9709524Y-10283333D01*
X9709524Y-10245238D01*
X9700000Y-10197619D01*
X9690476Y-10169048D01*
X9680952Y-10150000D01*
X9661905Y-10121429D01*
X9652381Y-10111905D01*
D13*
X4690000Y-10514000D02*
G75*
G03*
X4690000Y-10514000I-50000J0D01*
G01*
D11*
X5052381Y-10604476D02*
X4938095Y-10604476D01*
X4995238Y-10604476D02*
X4995238Y-10404476D01*
X4976190Y-10433048D01*
X4957143Y-10452095D01*
X4938095Y-10461619D01*
X5138095Y-10585429D02*
X5147619Y-10594952D01*
X5138095Y-10604476D01*
X5128571Y-10594952D01*
X5138095Y-10585429D01*
X5138095Y-10604476D01*
X5271429Y-10404476D02*
X5290476Y-10404476D01*
X5309524Y-10414000D01*
X5319048Y-10423524D01*
X5328571Y-10442571D01*
X5338095Y-10480667D01*
X5338095Y-10528286D01*
X5328571Y-10566381D01*
X5319048Y-10585429D01*
X5309524Y-10594952D01*
X5290476Y-10604476D01*
X5271429Y-10604476D01*
X5252381Y-10594952D01*
X5242857Y-10585429D01*
X5233333Y-10566381D01*
X5223810Y-10528286D01*
X5223810Y-10480667D01*
X5233333Y-10442571D01*
X5242857Y-10423524D01*
X5252381Y-10414000D01*
X5271429Y-10404476D01*
X5461905Y-10404476D02*
X5480952Y-10404476D01*
X5500000Y-10414000D01*
X5509524Y-10423524D01*
X5519048Y-10442571D01*
X5528571Y-10480667D01*
X5528571Y-10528286D01*
X5519048Y-10566381D01*
X5509524Y-10585429D01*
X5500000Y-10594952D01*
X5480952Y-10604476D01*
X5461905Y-10604476D01*
X5442857Y-10594952D01*
X5433333Y-10585429D01*
X5423810Y-10566381D01*
X5414286Y-10528286D01*
X5414286Y-10480667D01*
X5423810Y-10442571D01*
X5433333Y-10423524D01*
X5442857Y-10414000D01*
X5461905Y-10404476D01*
X5652381Y-10404476D02*
X5671428Y-10404476D01*
X5690476Y-10414000D01*
X5700000Y-10423524D01*
X5709524Y-10442571D01*
X5719048Y-10480667D01*
X5719048Y-10528286D01*
X5709524Y-10566381D01*
X5700000Y-10585429D01*
X5690476Y-10594952D01*
X5671428Y-10604476D01*
X5652381Y-10604476D01*
X5633333Y-10594952D01*
X5623809Y-10585429D01*
X5614286Y-10566381D01*
X5604762Y-10528286D01*
X5604762Y-10480667D01*
X5614286Y-10442571D01*
X5623809Y-10423524D01*
X5633333Y-10414000D01*
X5652381Y-10404476D01*
X5804762Y-10604476D02*
X5804762Y-10471143D01*
X5804762Y-10490190D02*
X5814286Y-10480667D01*
X5833333Y-10471143D01*
X5861905Y-10471143D01*
X5880952Y-10480667D01*
X5890476Y-10499714D01*
X5890476Y-10604476D01*
X5890476Y-10499714D02*
X5900000Y-10480667D01*
X5919048Y-10471143D01*
X5947619Y-10471143D01*
X5966667Y-10480667D01*
X5976190Y-10499714D01*
X5976190Y-10604476D01*
X6071428Y-10604476D02*
X6071428Y-10471143D01*
X6071428Y-10490190D02*
X6080952Y-10480667D01*
X6100000Y-10471143D01*
X6128571Y-10471143D01*
X6147619Y-10480667D01*
X6157143Y-10499714D01*
X6157143Y-10604476D01*
X6157143Y-10499714D02*
X6166667Y-10480667D01*
X6185714Y-10471143D01*
X6214286Y-10471143D01*
X6233333Y-10480667D01*
X6242857Y-10499714D01*
X6242857Y-10604476D01*
X6633333Y-10394952D02*
X6461905Y-10652095D01*
X6890476Y-10404476D02*
X6909524Y-10404476D01*
X6928571Y-10414000D01*
X6938095Y-10423524D01*
X6947619Y-10442571D01*
X6957143Y-10480667D01*
X6957143Y-10528286D01*
X6947619Y-10566381D01*
X6938095Y-10585429D01*
X6928571Y-10594952D01*
X6909524Y-10604476D01*
X6890476Y-10604476D01*
X6871428Y-10594952D01*
X6861905Y-10585429D01*
X6852381Y-10566381D01*
X6842857Y-10528286D01*
X6842857Y-10480667D01*
X6852381Y-10442571D01*
X6861905Y-10423524D01*
X6871428Y-10414000D01*
X6890476Y-10404476D01*
X7042857Y-10585429D02*
X7052381Y-10594952D01*
X7042857Y-10604476D01*
X7033333Y-10594952D01*
X7042857Y-10585429D01*
X7042857Y-10604476D01*
X7176190Y-10404476D02*
X7195238Y-10404476D01*
X7214286Y-10414000D01*
X7223809Y-10423524D01*
X7233333Y-10442571D01*
X7242857Y-10480667D01*
X7242857Y-10528286D01*
X7233333Y-10566381D01*
X7223809Y-10585429D01*
X7214286Y-10594952D01*
X7195238Y-10604476D01*
X7176190Y-10604476D01*
X7157143Y-10594952D01*
X7147619Y-10585429D01*
X7138095Y-10566381D01*
X7128571Y-10528286D01*
X7128571Y-10480667D01*
X7138095Y-10442571D01*
X7147619Y-10423524D01*
X7157143Y-10414000D01*
X7176190Y-10404476D01*
X7309524Y-10404476D02*
X7433333Y-10404476D01*
X7366667Y-10480667D01*
X7395238Y-10480667D01*
X7414286Y-10490190D01*
X7423809Y-10499714D01*
X7433333Y-10518762D01*
X7433333Y-10566381D01*
X7423809Y-10585429D01*
X7414286Y-10594952D01*
X7395238Y-10604476D01*
X7338095Y-10604476D01*
X7319048Y-10594952D01*
X7309524Y-10585429D01*
X7528571Y-10604476D02*
X7566667Y-10604476D01*
X7585714Y-10594952D01*
X7595238Y-10585429D01*
X7614286Y-10556857D01*
X7623809Y-10518762D01*
X7623809Y-10442571D01*
X7614286Y-10423524D01*
X7604762Y-10414000D01*
X7585714Y-10404476D01*
X7547619Y-10404476D01*
X7528571Y-10414000D01*
X7519048Y-10423524D01*
X7509524Y-10442571D01*
X7509524Y-10490190D01*
X7519048Y-10509238D01*
X7528571Y-10518762D01*
X7547619Y-10528286D01*
X7585714Y-10528286D01*
X7604762Y-10518762D01*
X7614286Y-10509238D01*
X7623809Y-10490190D01*
X7795238Y-10471143D02*
X7795238Y-10604476D01*
X7747619Y-10394952D02*
X7700000Y-10537810D01*
X7823809Y-10537810D01*
X7890476Y-10404476D02*
X7890476Y-10442571D01*
X7966667Y-10404476D02*
X7966667Y-10442571D01*
X8261905Y-10680667D02*
X8252381Y-10671143D01*
X8233333Y-10642571D01*
X8223809Y-10623524D01*
X8214286Y-10594952D01*
X8204762Y-10547333D01*
X8204762Y-10509238D01*
X8214286Y-10461619D01*
X8223809Y-10433048D01*
X8233333Y-10414000D01*
X8252381Y-10385429D01*
X8261905Y-10375905D01*
X8423810Y-10404476D02*
X8385714Y-10404476D01*
X8366667Y-10414000D01*
X8357143Y-10423524D01*
X8338095Y-10452095D01*
X8328571Y-10490190D01*
X8328571Y-10566381D01*
X8338095Y-10585429D01*
X8347619Y-10594952D01*
X8366667Y-10604476D01*
X8404762Y-10604476D01*
X8423810Y-10594952D01*
X8433333Y-10585429D01*
X8442857Y-10566381D01*
X8442857Y-10518762D01*
X8433333Y-10499714D01*
X8423810Y-10490190D01*
X8404762Y-10480667D01*
X8366667Y-10480667D01*
X8347619Y-10490190D01*
X8338095Y-10499714D01*
X8328571Y-10518762D01*
X8519048Y-10423524D02*
X8528571Y-10414000D01*
X8547619Y-10404476D01*
X8595238Y-10404476D01*
X8614286Y-10414000D01*
X8623810Y-10423524D01*
X8633333Y-10442571D01*
X8633333Y-10461619D01*
X8623810Y-10490190D01*
X8509524Y-10604476D01*
X8633333Y-10604476D01*
X8871429Y-10604476D02*
X8871429Y-10404476D01*
X8957143Y-10604476D02*
X8957143Y-10499714D01*
X8947619Y-10480667D01*
X8928571Y-10471143D01*
X8900000Y-10471143D01*
X8880952Y-10480667D01*
X8871429Y-10490190D01*
X9080952Y-10604476D02*
X9061905Y-10594952D01*
X9052381Y-10585429D01*
X9042857Y-10566381D01*
X9042857Y-10509238D01*
X9052381Y-10490190D01*
X9061905Y-10480667D01*
X9080952Y-10471143D01*
X9109524Y-10471143D01*
X9128571Y-10480667D01*
X9138095Y-10490190D01*
X9147619Y-10509238D01*
X9147619Y-10566381D01*
X9138095Y-10585429D01*
X9128571Y-10594952D01*
X9109524Y-10604476D01*
X9080952Y-10604476D01*
X9261905Y-10604476D02*
X9242857Y-10594952D01*
X9233333Y-10575905D01*
X9233333Y-10404476D01*
X9414286Y-10594952D02*
X9395238Y-10604476D01*
X9357143Y-10604476D01*
X9338095Y-10594952D01*
X9328571Y-10575905D01*
X9328571Y-10499714D01*
X9338095Y-10480667D01*
X9357143Y-10471143D01*
X9395238Y-10471143D01*
X9414286Y-10480667D01*
X9423810Y-10499714D01*
X9423810Y-10518762D01*
X9328571Y-10537810D01*
X9500000Y-10594952D02*
X9519048Y-10604476D01*
X9557143Y-10604476D01*
X9576190Y-10594952D01*
X9585714Y-10575905D01*
X9585714Y-10566381D01*
X9576190Y-10547333D01*
X9557143Y-10537810D01*
X9528571Y-10537810D01*
X9509524Y-10528286D01*
X9500000Y-10509238D01*
X9500000Y-10499714D01*
X9509524Y-10480667D01*
X9528571Y-10471143D01*
X9557143Y-10471143D01*
X9576190Y-10480667D01*
X9652381Y-10680667D02*
X9661905Y-10671143D01*
X9680952Y-10642571D01*
X9690476Y-10623524D01*
X9700000Y-10594952D01*
X9709524Y-10547333D01*
X9709524Y-10509238D01*
X9700000Y-10461619D01*
X9690476Y-10433048D01*
X9680952Y-10414000D01*
X9661905Y-10385429D01*
X9652381Y-10375905D01*
M02*
