%TF.GenerationSoftware,KiCad,Pcbnew,(6.0.2)*%
%TF.CreationDate,2022-08-14T15:00:56-07:00*%
%TF.ProjectId,RaspberryPIZero-small,52617370-6265-4727-9279-50495a65726f,rev?*%
%TF.SameCoordinates,Original*%
%TF.FileFunction,Soldermask,Top*%
%TF.FilePolarity,Negative*%
%FSLAX46Y46*%
G04 Gerber Fmt 4.6, Leading zero omitted, Abs format (unit mm)*
G04 Created by KiCad (PCBNEW (6.0.2)) date 2022-08-14 15:00:56*
%MOMM*%
%LPD*%
G01*
G04 APERTURE LIST*
G04 Aperture macros list*
%AMRoundRect*
0 Rectangle with rounded corners*
0 $1 Rounding radius*
0 $2 $3 $4 $5 $6 $7 $8 $9 X,Y pos of 4 corners*
0 Add a 4 corners polygon primitive as box body*
4,1,4,$2,$3,$4,$5,$6,$7,$8,$9,$2,$3,0*
0 Add four circle primitives for the rounded corners*
1,1,$1+$1,$2,$3*
1,1,$1+$1,$4,$5*
1,1,$1+$1,$6,$7*
1,1,$1+$1,$8,$9*
0 Add four rect primitives between the rounded corners*
20,1,$1+$1,$2,$3,$4,$5,0*
20,1,$1+$1,$4,$5,$6,$7,0*
20,1,$1+$1,$6,$7,$8,$9,0*
20,1,$1+$1,$8,$9,$2,$3,0*%
G04 Aperture macros list end*
%ADD10R,1.700000X1.700000*%
%ADD11O,1.700000X1.700000*%
%ADD12RoundRect,0.150000X-0.150000X-0.987500X0.150000X-0.987500X0.150000X0.987500X-0.150000X0.987500X0*%
%ADD13RoundRect,0.150000X-0.150000X-0.887500X0.150000X-0.887500X0.150000X0.887500X-0.150000X0.887500X0*%
%ADD14RoundRect,0.150000X-0.900000X-0.150000X0.900000X-0.150000X0.900000X0.150000X-0.900000X0.150000X0*%
%ADD15RoundRect,0.152500X-0.997500X-0.152500X0.997500X-0.152500X0.997500X0.152500X-0.997500X0.152500X0*%
%ADD16RoundRect,0.150000X-1.000000X-0.150000X1.000000X-0.150000X1.000000X0.150000X-1.000000X0.150000X0*%
%ADD17R,1.550000X1.300000*%
%ADD18RoundRect,0.218750X0.218750X0.256250X-0.218750X0.256250X-0.218750X-0.256250X0.218750X-0.256250X0*%
%ADD19C,1.300000*%
%ADD20RoundRect,0.225000X0.225000X0.250000X-0.225000X0.250000X-0.225000X-0.250000X0.225000X-0.250000X0*%
%ADD21C,2.750000*%
%ADD22RoundRect,0.050800X0.754000X0.754000X-0.754000X0.754000X-0.754000X-0.754000X0.754000X-0.754000X0*%
%ADD23C,1.609600*%
%ADD24RoundRect,0.200000X0.200000X0.275000X-0.200000X0.275000X-0.200000X-0.275000X0.200000X-0.275000X0*%
%ADD25RoundRect,0.250000X-0.425000X0.450000X-0.425000X-0.450000X0.425000X-0.450000X0.425000X0.450000X0*%
%ADD26RoundRect,0.225000X-0.225000X-0.250000X0.225000X-0.250000X0.225000X0.250000X-0.225000X0.250000X0*%
%ADD27RoundRect,0.250000X0.425000X-0.450000X0.425000X0.450000X-0.425000X0.450000X-0.425000X-0.450000X0*%
%ADD28RoundRect,0.200000X-0.200000X-0.275000X0.200000X-0.275000X0.200000X0.275000X-0.200000X0.275000X0*%
G04 APERTURE END LIST*
D10*
%TO.C,J3*%
X77075198Y-75145000D03*
D11*
X79615198Y-75145000D03*
X77075198Y-77685000D03*
X79615198Y-77685000D03*
X77075198Y-80225000D03*
X79615198Y-80225000D03*
X77075198Y-82765000D03*
X79615198Y-82765000D03*
X77075198Y-85305000D03*
X79615198Y-85305000D03*
X77075198Y-87845000D03*
X79615198Y-87845000D03*
X77075198Y-90385000D03*
X79615198Y-90385000D03*
%TD*%
D10*
%TO.C,J2*%
X109460198Y-72605000D03*
D11*
X109460198Y-75145000D03*
X109460198Y-77685000D03*
X109460198Y-80225000D03*
X109460198Y-82765000D03*
X109460198Y-85305000D03*
%TD*%
D10*
%TO.C,J1*%
X109460198Y-88002481D03*
D11*
X109460198Y-90542481D03*
%TD*%
D12*
%TO.C,U1*%
X94500000Y-70562500D03*
X93230000Y-70562500D03*
X91960000Y-70562500D03*
D13*
X90690000Y-70462500D03*
D14*
X89250000Y-71920000D03*
D15*
X89350000Y-73195000D03*
D16*
X89350000Y-74460000D03*
X89350000Y-75730000D03*
X89350000Y-77000000D03*
X89350000Y-78270000D03*
X89350000Y-79540000D03*
X89350000Y-80810000D03*
D14*
X89250000Y-82080000D03*
D13*
X90690000Y-83537500D03*
D12*
X91960000Y-83437500D03*
X93230000Y-83437500D03*
X94500000Y-83437500D03*
X95770000Y-83437500D03*
X97040000Y-83437500D03*
D13*
X98310000Y-83537500D03*
D14*
X99750000Y-82080000D03*
D16*
X99650000Y-80810000D03*
X99650000Y-79540000D03*
X99650000Y-78270000D03*
X99650000Y-77000000D03*
X99650000Y-75730000D03*
X99650000Y-74460000D03*
D15*
X99650000Y-73195000D03*
D14*
X99750000Y-71920000D03*
D13*
X98310000Y-70462500D03*
D12*
X97040000Y-70562500D03*
X95770000Y-70562500D03*
%TD*%
D17*
%TO.C,SW2*%
X69980000Y-76250000D03*
X62020000Y-76250000D03*
X69980000Y-71750000D03*
X62020000Y-71750000D03*
%TD*%
D18*
%TO.C,D6*%
X55787500Y-79750000D03*
X54212500Y-79750000D03*
%TD*%
D17*
%TO.C,SW1*%
X51020000Y-76250000D03*
X58980000Y-76250000D03*
X51020000Y-71750000D03*
X58980000Y-71750000D03*
%TD*%
D19*
%TO.C,REF\u002A\u002A*%
X50000000Y-48000000D03*
%TD*%
D18*
%TO.C,D7*%
X66787500Y-79750000D03*
X65212500Y-79750000D03*
%TD*%
D20*
%TO.C,C5*%
X59275000Y-69500000D03*
X57725000Y-69500000D03*
%TD*%
D19*
%TO.C,REF\u002A\u002A*%
X112000000Y-93000000D03*
%TD*%
D18*
%TO.C,D1*%
X56537500Y-85000000D03*
X54962500Y-85000000D03*
%TD*%
D21*
%TO.C,RPI_ZERO1*%
X110000000Y-51750000D03*
X52000000Y-51750000D03*
D22*
X105130000Y-50480000D03*
D23*
X105130000Y-53020000D03*
X102590000Y-50480000D03*
X102590000Y-53020000D03*
X100050000Y-50480000D03*
X100050000Y-53020000D03*
X97510000Y-50480000D03*
X97510000Y-53020000D03*
X94970000Y-50480000D03*
X94970000Y-53020000D03*
X92430000Y-50480000D03*
X92430000Y-53020000D03*
X89890000Y-50480000D03*
X89890000Y-53020000D03*
X87350000Y-50480000D03*
X87350000Y-53020000D03*
X84810000Y-50480000D03*
X84810000Y-53020000D03*
X82270000Y-50480000D03*
X82270000Y-53020000D03*
X79730000Y-50480000D03*
X79730000Y-53020000D03*
X77190000Y-50480000D03*
X77190000Y-53020000D03*
X74650000Y-50480000D03*
X74650000Y-53020000D03*
X72110000Y-50480000D03*
X72110000Y-53020000D03*
X69570000Y-50480000D03*
X69570000Y-53020000D03*
X67030000Y-50480000D03*
X67030000Y-53020000D03*
X64490000Y-50480000D03*
X64490000Y-53020000D03*
X61950000Y-50480000D03*
X61950000Y-53020000D03*
X59410000Y-50480000D03*
X59410000Y-53020000D03*
X56870000Y-50480000D03*
X56870000Y-53020000D03*
%TD*%
D24*
%TO.C,R2*%
X60575000Y-89000000D03*
X58925000Y-89000000D03*
%TD*%
D18*
%TO.C,D3*%
X56537500Y-93000000D03*
X54962500Y-93000000D03*
%TD*%
D25*
%TO.C,C2*%
X106000000Y-72650000D03*
X106000000Y-75350000D03*
%TD*%
D24*
%TO.C,R11*%
X70825000Y-79750000D03*
X69175000Y-79750000D03*
%TD*%
D26*
%TO.C,C4*%
X61725000Y-69500000D03*
X63275000Y-69500000D03*
%TD*%
D27*
%TO.C,C3*%
X83000000Y-79100000D03*
X83000000Y-76400000D03*
%TD*%
D24*
%TO.C,R5*%
X99825000Y-93450000D03*
X98175000Y-93450000D03*
%TD*%
D18*
%TO.C,D5*%
X95787500Y-93450000D03*
X94212500Y-93450000D03*
%TD*%
D24*
%TO.C,R4*%
X59825000Y-64000000D03*
X58175000Y-64000000D03*
%TD*%
%TO.C,R6*%
X52325000Y-69500000D03*
X50675000Y-69500000D03*
%TD*%
D28*
%TO.C,R7*%
X68675000Y-69500000D03*
X70325000Y-69500000D03*
%TD*%
D24*
%TO.C,R3*%
X60575000Y-93000000D03*
X58925000Y-93000000D03*
%TD*%
%TO.C,R10*%
X59825000Y-79750000D03*
X58175000Y-79750000D03*
%TD*%
D18*
%TO.C,D2*%
X56537500Y-89000000D03*
X54962500Y-89000000D03*
%TD*%
D28*
%TO.C,R8*%
X54175000Y-69500000D03*
X55825000Y-69500000D03*
%TD*%
D24*
%TO.C,R9*%
X66825000Y-69500000D03*
X65175000Y-69500000D03*
%TD*%
D27*
%TO.C,C1*%
X73000000Y-90350000D03*
X73000000Y-87650000D03*
%TD*%
D19*
%TO.C,REF\u002A\u002A*%
X112000000Y-48000000D03*
%TD*%
D24*
%TO.C,R1*%
X60575000Y-85000000D03*
X58925000Y-85000000D03*
%TD*%
D18*
%TO.C,D4*%
X55787500Y-64000000D03*
X54212500Y-64000000D03*
%TD*%
M02*
